<mxfile host="Electron" modified="2023-11-21T21:10:33.307Z" agent="Mozilla/5.0 (Windows NT 10.0; Win64; x64) AppleWebKit/537.36 (KHTML, like Gecko) draw.io/22.1.2 Chrome/114.0.5735.289 Electron/25.9.4 Safari/537.36" etag="wjLg68vgQviGIPJESjlj" version="22.1.2" type="device" pages="6">
  <diagram name="arq1" id="T1HXOSxpdNPFyFyjxCzt">
    <mxGraphModel dx="880" dy="524" grid="1" gridSize="10" guides="1" tooltips="1" connect="1" arrows="1" fold="1" page="1" pageScale="1" pageWidth="827" pageHeight="1169" math="0" shadow="0">
      <root>
        <mxCell id="0" />
        <mxCell id="1" parent="0" />
        <mxCell id="wyomtA_MqoIqlpoY5obs-1" value="&lt;br&gt;&amp;nbsp; &amp;nbsp; &amp;nbsp; &amp;nbsp; &amp;nbsp; &amp;nbsp; &amp;nbsp; &amp;nbsp; &amp;nbsp;Cluster Kubernetes" style="rounded=0;whiteSpace=wrap;html=1;fillColor=#cce5ff;strokeColor=#36393d;align=left;verticalAlign=top;" parent="1" vertex="1">
          <mxGeometry x="218" y="10" width="440" height="360" as="geometry" />
        </mxCell>
        <mxCell id="bg-zHMoBhlFVX-3hGMGY-8" value="" style="rounded=1;arcSize=10;dashed=1;strokeColor=#F59D56;fillColor=none;gradientColor=none;dashPattern=8 4;strokeWidth=2;" parent="1" vertex="1">
          <mxGeometry x="250" y="80" width="390" height="230" as="geometry" />
        </mxCell>
        <mxCell id="svrNNwoKt6SJVCZrMC1B-5" value="" style="endArrow=classic;html=1;rounded=0;" parent="1" source="Bfzu40jN1q7G7ZqrV8ut-2" target="bg-zHMoBhlFVX-3hGMGY-12" edge="1">
          <mxGeometry width="50" height="50" relative="1" as="geometry">
            <mxPoint x="609" y="251" as="sourcePoint" />
            <mxPoint x="381" y="199.5" as="targetPoint" />
          </mxGeometry>
        </mxCell>
        <mxCell id="Bfzu40jN1q7G7ZqrV8ut-2" value="Lancamentos" style="rounded=1;whiteSpace=wrap;html=1;verticalAlign=bottom;" parent="1" vertex="1">
          <mxGeometry x="270" y="183" width="83.91" height="40" as="geometry" />
        </mxCell>
        <mxCell id="Bfzu40jN1q7G7ZqrV8ut-4" value="" style="shape=image;verticalLabelPosition=bottom;labelBackgroundColor=default;verticalAlign=top;aspect=fixed;imageAspect=0;image=data:image/png,iVBORw0KGgoAAAANSUhEUgAAAIoAAAB7CAYAAACrSRjYAAAAAXNSR0IArs4c6QAAAARnQU1BAACxjwv8YQUAAAAJcEhZcwAADsMAAA7DAcdvqGQAACkcSURBVHhe7X0JYBRF1v/rnjMzk/sgJBwCKhA5RPECBRQQddUVj9VPUfBYb10BEWVBEfAAr139Vt3Pc9djD//qrrq7IpfgBbKggJyKXAZIyDGZmczd3f/3qrozSWYmx6R7EjW/ZJKequ7qqle/evVeVXW1AF0cL698MrvaeuC4XbVf2UORWsUEIihq3I8dUfz0yT5OLLH223ebMO974XSrzGO6HrokUZ5dMzd/j//7S2Rb9EI5Kh8viaHSIPgAFAkzLPxkiKIIAljADhY5wy8Kwk5RET/NVvLenTfxjx8LgtClitmliPL427OyfLk1c91K7bSQ4itUBAlJoTBy/JQIEg+tZAKYFSSOYvsiW8h9dP6EF99TIzodXYYov11x7WUe2b04KtT3kwUZTBhGJCGa/FxATUFBzpCmMcs2sCqON/KVohlzJ/2hUj2l09DptbBh+3vWt37462MesfZOSQizMAVpIgB2M6yh/XyIwqlCf6nMEjvCbml3rlx0/YJJL62mMzoLnVoLK3e+a11W/s7fPMrhi6JMd5ChillCjSJQ0/oZQkZtQpUiYvlRCigLCcniCDvD2ZMXn/fGv/lZ6Yeo/u8ULN33jz945KqLIiLa/ygg0iWkSUhIP1dQ2UVFRkngD1OpIkSEgDVk9r2zeM30ifys9KPTiLJw5Y3T/ELFDZIQQQViQQ0SU24/X5pwcLsMNQvKhLgi4nFYDNiqQodfeHHdY/n8rPSiU4jy3CcLimrkI4tDpgjr/ESyR9iows+dIk3Bmw7vjskD9InVfXfWbbyDBacZnUKUQ9EfFgTBW8R6Y5UbkmDqpklzoK2GVgsdMNtFxp+QUH/3gqW3D2LxaUTaifLI8rsGe6Sqa2XUqZpXQy2G/+1GEzS0HDzAX5JPWPQ7/WLNwzw8fUg7UWqVikVBwWPltj2BS4OTphtNEZMRHYmMLyL4BM/k+5fdMIHHpQdpJcpvl02dUC/WXSyLkmrRd6M9kIkt2B2FhSDUi+4ln+x918pjjEfaiLJm1buWoOJdIkEYtYcJmwYfXOpG2yGjShFRbuQFoSxHfPjtP6aqUYYjbURZGv3gzoBYP4I1CmQIdT2aYu1G2yCiSqHGRWZtVIiAH7wLl/zn7kIeayzSQpQnPppR6IOa2ZJA468auvVJauDzX6RXAoK3x0HTnplqhKFIC1EOwL6ZIdFX2K1DdAbaK5IYnLFoxe3D1BDDYDhRnvxi9mjJFL5bs9y7oR9oljkqhCxepfZxNcgwGE6Ucv+BByNQb6IbdbXOhqhL7iYb02G541RubmaT8U2V0uWAhi0tyagH98RHPp0+RQ01BIYS5d7/TL3AL7vHC0Cjrl3PJiFCcFKYIIoGYlCqAZ90GOqkSvDJbgyLYjyewWazu+AqRSI4kjiKnuSRQPl9r77+pEWN0R20PsgQvPLZ7zLKpe/eioh+1So37FYpg3QEESEk1UGOqQhOL74YxhVfASflnwPFtj5QG0DCRCrAJNJwBZ3dtfSiIpCjjPkSJYhAtNDn9Lo/fW3TF2q0rjBMn85ZMe3+Wjj0IE1mkYrk6FpahbIVjHpgTMGlcP7AK6DIUYqhmpKVoSpQDu/vegtWV74BdnM+c+u7YhnYiC1mzipnVh9jGXrCHWMX7lejdYMhzXzJ8pl9qpQDL0lC2EGC5zTpWgImhCUPjM77JVx1/O2QbW08HEE5FsBhyYayouHg9YVht28jWJhm6VrgOSXQLLPkiEqR3E9e2/xPFqQjDLFRKqF8flgMFfAisCU4PKILAR1LcIkFMAk1iV10NcojFzuBlg/ZRAdMOuZSyDEX0zCXGtO1wHOuoGEbhTqhZsr8VTeNYkE6QneiLFh+y6h6wXM1ibkrIyz7YFjuGOjp6q2GxOeXCQdrodjZG4bnnQkh2cvCuy6Yu2z2S+5HFEXRtW51TUyRFLFWqXoYW57ZIGWlGyQ5AkWuEjADOQq0OpXyG9MmDKptRZ1nsbMHu6YrgzQL5dgPvjGPfHynrvNAutbmvFXXXRMUA2NpQbARs8O83miFPvvW8Jdsfol1CxRD7qz6Xz0zEVhMQ6Pj58ehUbDVjNxvFfyedIkkRiEkhCGqhJhrzRaOq2lpd9VdRpg+3SOK9z0c2Xv3i/9alKHGdBi6EeW5VQtzfUrdXAVCzAo3gCeYZixRGigLoDEqyUHIEnuAU8iGoFSJXUo93l+jSPJMUEwT26m1/LZxwTeNuQSkGhAiAvQ09YeelmMw1Aw+qYp1bkRiog390EywniCZU5omzGvUFCr73rpzlhrVYejm9Yy4ps8DPqi9UEGfnrUsFIi+YiBgiqitZAU1iOyH8cVT4LJBt8I5/S6HMb3OhSE546A+GIZD9VtBNNlavH8Ery/LGQWDCrRpEkpbPUyAPe5t8HXNGrCKTjUkHkSlSDQIZ/a4Aq4afBdM7H8xnN57EozsMRacUADfu7/Ck5AmImpFPFlnnqjk58smqTuNKKGhv7hq4t8+fv2/deyEDkAXoixZPXtwtXToTxEhZCJ1Sn06CUFnOSBoHUYQXEIuXFd2P0w6+hIoyOgJGWYnZFgyoYerFIb3PAlCIYAdnrVgRo8lWR6iSJTBjYnSyhB9W4gSlurgsv4zYXLZVMjLKAKbKQOs+Mm25UNZ4XDo6yyD7dWbwStXYN7s6lX6gUrASsEG4hgcWA/5n7+29R/8a+rQpeupjdBiaZ+VD3XzLOrR9dDIIyXDBSCAX66DXtZBcNcJj8HIEjSFmvMcVW6GmAkXDroaBjpHY4sKqBHxiMteSvlVy4oXkxd1Qs4vYPyA8zBXZgxp3LFROzfB8OLT4K6Ri6G/fSQEI3UYRldqUKu2A+Cp0eImdOwxORm1bwjqr1m47Obx/IzU0WGizFs2bbxPcF+qiDGSpCTzhMBuBnNISwDr5Vooc42CO06YD0flDFRNhmZ3YlpBAZc5G04tnYTdi5uHGwm1fskjGll6OlgFB8sbt0I00BGvxt6Z/eGWE+fBMOom0W7RKqAxZVIFt8x4StRQyYAOmgLgNtUs2fD98g6NFnaIKKu+/Iu1XqhfHBSCyGJdlFMTCJgmpRuKVsMQ15lww/H3QpGzVwM/NJO1MRSVrKXO3tiGSb13vAKSAjUopU93MIsZ2PVh3iiY/Y2/LzfGZSiw94Rpx98NI3PORyO3htkU3APSN6+UO6JrQPGe8N73b17NQ1NDh2r3w9r3rw6A70Q0TNQyxldcx6BARHLDsY7T4drhMyHf3gND1IExFGwCmjSERZQwftNX8HGgxqFpUbxfROIP2bPmnOjeRAgUuYKEybUWwpThd8LQzIkQxoZAjUInS6AJyAuKQgR8gnfRi+sfTnnZZMo5e3rF/YVBMbBIFmgQCgXAvJ2OVQy1Kq2iqbsJo+FaaDkKpg6fgUZrD5Y8U+jst/G98Fj7yioJjc/ab9E70sZWjAeNl+yp2aV+I4omvi8LVQ3nXGsBTBt2B/RBmyWEbj0P5fmnIYYO5x01HtmNZNr6oa54V83WGWpMu5EyUSqU8gfDQn0xrzD8qC2rIyAbp0HAsgw2xQrThsyGEtdRXHwsSrsPN3RjDNGOBKj074cvDr4HdlMOC0mEuNymlH3t3gJ6ONmwuvw9qAyU4/f4vDWGdiuKLXSUwjVD7wQHGuESEpvsCnpqknVH/LSUwZ9dpruRHkbDVvTOmL/0pjIe2z6kRJR5H91U5hGOXE9WdYoSTggqE42/ULECUi1cdvR0GJR/ApNoom0waOiqAXgtaZsjgYPw2pbnoDKyG0xC8nU8cal1sFZMghUOhXfD65ufZmThDmrLsuFUkGFAThlcdexMCMpeJIkCJtKE5EEyG0gfkGyCot/qNbkfVIPahZSI4hOq50fA3+hpP33Aew1aaVYLYwouh1F9J/AKVLuTODSyEei6XdVb4Pfr58AW7yqwYAvvYN23Gxlo0G7xfgxPYR52VG9SQ1sG2SxUjSN7jYVzelyLntAR/MYH5PTQ0k2AiQbBf+n85Tefr4a0Ge0mygMrbjw/LPguo2PdiYI/Evb1BZYBcMHAq8AmoNfCboF/1H69MWJEEOCrg5/B01/dAwcju9hYCsW2lLu4uJZObiMoPzbs7iqi32JepsN/yz9WQ1uDAmawwqRjL4O+1uEQQouCbDS9iU7dUEQMQD1UL1659q12ucvtIsp7n71i8Sk1i2lPE4LeXgWlF47WwS/7Xwc9yA1uBWzjRBTouvI18PzWefSkP5Ir+chpOkATgDZwQVSU4fltc+DLH1raUUtravxvnr0QJg+4DqSoH4XBxrdZuH6g+SXsEcBTttLzwa1qYJvQLqKs9a+6NQDeMuJ/ir1WiwgrPjguewKcVHqGGtIaBNhYsQ5e2j6H9UJm0kBtRFwV6FontAudBQSTBV7Y8VvYfGitGt46hpWcAiPzLoCgYsRgIRVSAUmMQL3g/e3C929rs7vc5tp+fM3M3vWCey6togL6oBWtJ0ibKJIEk/pdgd6KCwNaN+T2uHfAn7c+hPnBlikSedte23E9TVxAxyGigSuLIryy/SHYi3ltHTJYkewT+08Gq2xvR2naDlngg5gB8BUEHL42G7ZtJkp1pOrBkOBnyxuZ26WLRuGioL9BmivJnQSDC4ayMF5zzUVF3zmB6iI18Oa2P0CdXImaJIMNLLUHcZUQF9Bx0CAaabk6uRpe3/o0uCNH1JhkjQzLgPk4Om8QnJR3PkQkTyycybvjbCY5saKKEnjkqhse+PevNYG3iDbV9qOrbz/Nq9RMaSxLfewTmhLn6ShSFEb3Pg+sIrUk/GEyaSoYOpONbKKgl+56G3b6VoEdDVd98qI/qEroYzM54Dvfl/DRzneR5kQSEnuiPHN5mNDKOR09Phm7LzbRikf0X59yUnoEdByEkMVndj/GvraCNhGlOlq5MIKJaqaXXqBii4qZzfIem3kaDCwYwiOSCITuTp+dRzbB0vLXwGHuwcK7KqiCmabDj82aCcsOvQTbq8htplIkLyOhf95AKHOdChG2/JKHanF6gbIWEOsnzV9545VqUFK0SpT7l93wP2glj2cbBOvC6Bj4zWXsdjxwctFZWPGaW0s/ie4lQEDywb+++wvIJswP9repIk7oetcCQhtdpaQFdACiaK/8+7s3wM+6FG30tin46DS62aITRvWciN1PPatQVfHqDtQq1DXOfXH14y16Ai1K+vX1z+V6oGaBoq5H1T+vlGYUsk2FUNbj+Iawpv+b4pvKL+Er3zKwoDpX1xqkhLgrDagILUn6TwSwC1mwpW4ZbK34mkckQiNGHF04BHJMxWzCkdtgiWWSKvhIE9s+Y/AeaXuLyyZbJMpOz7rfRAT/0VSdLJ86g/pj1u04ToRCV7EaSkgslKDsh0/2fYR2TAaYmE2beqbirjSgfHxiTwN9kcBsdsKafR9AMKpNAjZHrIPPc/aAwTmjISwHmXbSm81avdLTnN5oxZ1PrJqRdPAqKVHmL721tE6qvjUsUo0YIEUEGWchrPwhBaegW9j6gvG9NTthi3cFEoWWOHZMaHFX61sHCUGVYhFdsM27EvbWfqeGJocFf47LH8ZWz7FHc3UGr1WqBRqxjRRUykcWsqAESEoUtIefDJuChXxPdm2UUGdGY3I0itkP3cHWocDXFWshSl4AbUPRQfLGXW1MW2gKNtqKlYIF33j4UyxD62NFvXMHgEOk555RWDobKlRk+pDmow0YvXLtVb/98LpTWWQzJCTKkhXTJ9TLtb8iN1SkwhCbDegjZUWGAksfKHA27nZiaCyWunANbKpaBxnYz/9YQV4Qfchd/qbmC/BgmQgtVX+BswSK7QNBUiItnpcKiKbsvQPY+DhZQpaAyfsoj22KhEQpl/bOCQt+LBRZ5tgGjDBQEFG0T3pnDgSnzaWGNAW/KxfPIc8BOBzaBqJAC6o7LrK4FDqeZBuAJUKtImI3ezi0HQ7WaZsO0M0TZ8BhdkCpcwDKKmhIPTDNjHliOUDChAT/2AdW3XQtj40hjij3rbh+WsQUODNZxvWEhEQpcfZDx9GGd0t0v1jo/rrd6B+hsFT6/BhBOafKoKOwSCvi+LA+L1F8uaj0NGdU6uzLjH7jy84G4aA2UnHf85891mTVVxOiLF42O8crV83h7rAhO2I0gYwsKHAUsOPEximJhmIk2OfZBSb0dvRCnMiNrgMGrqHpJREWyIQD/j2o/mMDas0bpxZaRF0zdhGcZAaC2VCYOzF4zJ7AV9PVUIYmRPGZjkxHbXIMua3a0LpR4La2BXJseWpIfE1pOQhE/XDYvw/Mgk0N+XGClZkqA7sQi2CGI/6DrGwciUjAZZJjz8fzadyIfTUQVO8yRMUI+BX3zQ//Z0aD8dhAlNfXPpFTD97rqfWaMEMG84TBLFixD9aM03iiaFrGj8L0RKqxb09oUqWEuOKlobx0EzZvg0cCEqU2dAgCER+PYuWPlwHBbnHxJxQNziPpO/7YDXOXi2rEAw2PeDRI/kBg/4lBqC+lrJKvkyzT+oEmyzIgw4othX1LBJ6HUCSALc+LudKPKHGlM7q4zUAqvl6qRqIEG0KSwWq2srEjTjHjQBqP1uySK053UszCZB7TiCjuaNVJINPrY3lQRwe0WgNlhRYk20zairwE91ODaGIsCvR4qH61SUmnmRtNQLYXLXkMRbUXbiaSNw+ziBbseuzG2yhsrS7fKpXcZjSgBz2xagabeW0gCnabI9lr2/CYbxuRKOP6grl79AIFBrpf4nuSgNibJXSsWla+huTooOXyGiMN1BE0jqEeJ4MJu9yWnijQC2y2G/sTAj1jJUE0tzbiPpa+NxAF+8pcUodM7VD96VgpSYEEaHEzGTUL7BQ2hqBjdaHwtR2UeF0lKC+7Lz8MREJ4hn5dH4HuSJXDEX9/rQ5I29Dbv4wGLy51PfQNc4aC8Ua9zNVsKLkkB43PSSOQ6qUHniJyqCEkkbAI1JpoMY+eoJVnez27ICTT2IwmpObgIqEnFvfXfa/rVhV0LzO9bt/MNUUiEmrSiFLXy/KpL1FbBhoh2Jh65x41kr7F7txSyzYE2EfLfgiG+dYUiQaTtLkQMuZsYkbDdz1gQeNwq+dT2FO7Va2RRDoUQ/B3T+1O2OymycjEI8ipgMpiE3PAZtHGhpLLP4x2DG38k0hGxoHuFWs+DUSxChnppCvLBhmp/khLOy1ywThRmC5LLqpC/WZQudBN8P+2vwyH/fvV782ARh1tSvz2jpfRG+C+YMegkQEtJCxLprUQHObWyRdEry+kaOMt6YMiy1Betee/dNxQdrsls7YlVusP6p3D4Ikk3zVKq7oMFGahrSebGNMTVtEKewMb4NmN82FTxVrwRz1kwLEPuePfVP4Xntu4AHb714LFpOeqeFovGIZCewnYzXx4IFbaeHjCbnXr0uTn6A3mlYpmyLUVMqHHGolJ3BC3g5HBELGVVgf4DGpiklIYudE26JN5DMjYT+sLBaymTCgP74KnN0+HJWvvhpc3PQF/+vopeGLdLHhy0x2wL7gdu6k87Jn10CeUBn1kkKQg9HL0Q7JqtldyGlbVVyBFKD59RCEIgtmX48zfQ8cNpXdEs1aLcvuejekoiAAV9QdQbHypZTxIPDw/fXMGYtb0zRsfBBDAChlgNrmgPLQTPj/yNqypegv2BLehoelkC6rIZaQpjQ7fndJAT4+VFInXN4d2jOQUSJY2zbsdRBmZ2MNt+pa/NVjkjM13jn5oLx03EKWPY8Amu+DazzKdJuLSZnw/+HagmteGsZuDLAeexdLsPpBrPkq1U/QSGFU+T5+Gr2kuyY4GZoaYDRY8pnWq5JZyiuhhSpIxTg9sSJBlLkaPoh8PxvSTpR6U/FBe/z0qfLsuOWgN2s5P9HSESRbe5aGNiDJt9PR6h5j5Kgjqk/RpALm9h4O7oNpfrYY0RywjuY4CODZ3JLqqAbIxVXRccGQtaEf8fvyeWsoN/3XQZjTqSZ8QluGYrJFsR0sW3nCXeLixay737wCxoYsyDqxRspFZbMSytTIX8l9To2JEITilnk9ZpQy2bVB6fHYR6hUPHPB8r35vDl5x9NcKdji+x2iIolGnNBnN/TGBKIFaSvLBicWno9ZqfUOBH+r2gkc6iJdSmY0d6iKXnUbLRcUCGUL2c/dN+t8KNaopG+6duMidBQWPmLBa9ByzSAZ6PSvZKduOrMe7qfufNQG1NPpwQpQVDIN+thMhqiQ6t+uD7BNafFVqGQqDC1t/XyQNom+v+Qq7RAe2cApJrnn0gYjaOgoZiutg/8zjnlUDGeLUxhVn3fimHTLXUyYJVEW8HRiQSezjbIILdrjXo4pVux+aQlCJoQmG/1XYxr6nlV4AAakChW600IyAAH6pEkb3Oh9y7Mk2EiBG8PLXhWpga806vsTAAJAEtWFG7tXR2lk7uCwF824+9b5KFqEijihDTaeE881F91nBQfWIKdCEnGbQ6QsSiSiYoSqyB3ZWbWNhDXM/TW5HheEFOqXXGOhlHYGusjb0/+MB5bnEMhxO7XUWlibm0cWA3+lXtYdo88CK0HYQRFriHpOBfsD0tCSpnvGfDWwfLxj7/Ms8MIaEhsicsc+scEHe3yXWaukULJQBFi4TFqo6WuK4oeJT/iYKUn9J76dAnr0Izut3JXoD2s4APx74Mc/n9L0KjVh6+i+RlqZyk/oXsYuKwLqDq1W3WDtX3zogonJjXgQJiYI+HxRZShI+25OQKIQisdc8u+LyUFImmfbUaF4onUDdD6rWTbUrYa97NwtKpr0oLxRzSq+xcGLOZAjIHX4XQNpAI6vDs86DU/qMYd+TNzwefsizF752L2fjO3QqL3mya1IFklK2sCUctFewU8p69d6x/7tSjWyCpESZfuYju5yK6zGygqMiLWjSHyQsQSZrnhbxeGHdgZV4H255J6MlCc2Gwrt40PWQLZZgy6MuiMRoEJE7DNoQOAoOIRsuGXQdOE3ZGEajN/H5ZS2cNUgFZfExak03ahfu4RnjXNAyjyimjQYs5IT7uIYkfdF2UqIQ+ivDH7NJzm38GdoWT00JjRtVhikXPq98Dw7UfUeypSKoMTEw0ary7Z3VH6449naIRn1MeSZS5J0NtmGfILF96a48Zib0z9G2eE2cU6Y1MKrcuw/WHH4XbOZslBHJQZOF3iXkHb1ZtqL88xbfOmrOVjUiDi3W/q/PvjuUZSpcRKN0fBmecVVB62F9UAUr9r6HFR9l31vDKb3GwUV9Z0B9lLwg0nrx5OpMUMV7o4dhcu/fwMl9zsKQ1vJH48MSrNn/AbiVgzTXooYbBT7ubAXn9t71gx5SAxOi1VnANX/e8M24qSefEYJAf95PGgcapt7v3QwDsk6AImeJGpoc1B765R+NBkAGbHWvVNeLGEfm9oBISwQ+r+RWuKBsClgFG+dJK279zuot8Maux8FizjTOLlRByZsVC+SZe9016+yHWtiLo439SaGpZK5FtrPpZt5dUAH0LwTNXivYJ7//7WvgjdTywBa4yRb/CA64aPAU+EXvO2nrBgyLrRvhdgt9w2rDCjKG5o1FqPomigz+yEE4v+QOuKRsGthpp4Y2kCQoeeGD795ADwQ9QQPkGwNlBj+KCBlK1tIHxz33Jg9PjjYR5Z5xT6x1mQpeJxNMs9b5Ngz6ip5sIbPJATu9q2HVnn9h6lQYiklsyNEgEcXQfikXD5oKU/o9ABHJh+ZtiBODydo4M5cZ45gDoiCXDbq1Mr1lwwu/6v8ATD5uGntvMkOCTDSX3po9y2FT3TL1Pcz655pS5HLhK+3NijXskHLv5rEto01EIRRZetxvk21VNLZCwuGVoG9hSNz0Y7Pkw7/2vQBbj2yI5TDhpBzNcvLBQJo3mXTMJXDb0N+xXYrqo1UYr0348fP0Nne1rkEjTBC1YJapCG4Z+hicd8yl2N20NpejNQSAXdWb4Z29z4HdkoNp0bILI7wc1cDGH2pkmWL+iwvO+eM3alSLaNVG0bD0lU89Y6acEI4KoXOYVsEb6e9nUIrccaRZkd012+G4opHgQuHxymh6P6on+tAVvAUKUOLqDccXngxS0AR7vevZSnKBLYpueq0e4PdUIKgEICx74Yyiy2HqsBkwMG84xrTeBlmOsOEdCRyCFzY/gt0tvWvQguF8yEB/8EZOH4eSeSQnmP+rlW+ub9MayzYThTD7N/dt/CG855IIBAp5pSVq5amDC5emDFADoMBqI+VQ5amCoUUnsZc4Mq2CgiWwVsF+2BcMxiPKDl7rsubAkOKToF/miVBX74by0GakncyWNXBhqRcx8I6D041/5x8CS5B94mkqQ0jxQgTd88GuMTBl8CyYOOCXkG3NZ7Halc2hZpERnFL0SXXwt03PwnbfGiwjjbFwqMoqYRqpgqWF3aMJ1Uqm0mPug+e8kHBwLRHanY8Hlt/yi0rY94EihFlBuZCNggBeqRImFF4D/zPsZrW/51XABubwp7Ui0C6SOyq/hk8PLoct7o8hGHVjhbjY+g6RdaPa9Wo52OQYhrH5LVT/DZqTSkqviA0z7WGHHBiWfQaMKp3ENiqkdb2tgZOES4x4TWtr/v7NS7Ds0MvgNBey8IZ8GAAqB3XGmUretgvM5xw/bty1bV6E3LKUk+CelVd+WKdUTIoJ2RhohnN95BCcW3I7XELGIXoQXLFo4zot5IG2SccWRIgoQTjk2Y+k2Qyba9bCnvpt4FO9JAE1DU280V4k2rsRqTopDi0PkNFABaSG05wLfR0jYGjeCWyZQGlOf7RD+BJF+mmtu6H0KL90Hu138o8db8J7B56BTCQJ2Q50Bh+ZNQaUQ3pCKl/ue8GDE//4gRrcJqSUqwXLbhtSJfywIST4dH9nT1Ngz8iGmBV0N6vhnJ43wsVlV4PdRLtVtyXzvAJ55cTOpueJagJH2LYTld7DUOk7BDXBSvDLHv5AGhLMZLKyt3Ll2oqgOLM3FDqL2XuVc+2FeP/YPi2cym3TbjS8RQOJIdkH/9z+V3iv/BkkXxESFbUWM8pTrJA2gkiYqeS8tWTiW79Sg9qMlPM1d8XUP1RD+a28XVMyXGT6IpY9GrP0SodgXN5UuHTYtZBlKWC35H19MjQSPTvk7Z7Q+BoKlSACUQVJKXO3n+ZYzPihB+njNEVDsjEaJgaPb3yGJ+KGt7e+Aisr/wQu1CTMxWc7b7LsGQKerAw2xRnOk0tHzD/7eb6mox1olzHbGJf/evJ6b7RuWhRCTraIiP8aBiosPVrxnW8D7K/eB31yjoZsGz1GQTHUxdD/5qq/UY7YYeJ2T6HU8ZixC7Kg7UIf2ruF1sokJEFDEMUmiG8CJB31K/h7yLcXXtn8BKyveYdpEt7LcOq2lkqqkJHs1MjoCQuHnLXk4Umv/lWNahda7lRbwG1nzD+SaSp4mASs2RJGgxR3BrrKO3xfwu/Wz4IvD67EsChKmfieclEMBVFQFqOw8fAnmOfZsM37MdjNfFF1g2tjIPj2r2hhCa7D/bKGPMVD24+UNQph4YyFG74LbD8P3eWS1gw5PcCcVCSlSbSysYt1lR+Av16Bntml2EK74raiAtSEKuD9nX+BN3c/AgEhyLY5p3EM8qqMpwlBZpspZkH+XbPHPvmpGthudDivc5ZOG+8xH1keAVqdZjyom+MKjHc59VIN9LIMgXMHTGGvvM9ovL6UTkmaqRYjEyJ2ReNrE6dDBvNX5Z/D+3vegP2hr8Fl4psaEvigQvvunRqQkkIEspXCDVf2v2XUiH5npbwqXZfczlpx5d99UHkZiSyd4IYsqlYpChHJD2XZY2F8v8nMdaX5EvUs9T8dNbYoEldwi2i4RKto+qsF8rToRdc7jmyB5XvfgW/qVoDZ5GQPlnUWzIoVcqHX+IUT/q/Ng2uJ0E5JJcbiNbMGl0d2fR0Co93l5qDuTqssgDC24rASgqFZZ8KY0nNhUOFwNHhpu1Tew2o+CiFWwe0EXsbSwUu1lAjucBXsqtwCnx78EDbVfYjdo5PNbKd0D51AknHIuX96auLfp6lBKUO3Uty3/OqH3XD4vnQZtjHwItDCKrZNN5IirNQxDdMrYwSckH8GDCs6CUqzjwKnJRPP1seWIoe6PuJjq9E2V6yDr6vWwA/+rWAxWcAs4n3YlEKKZNQBRGa7nOntYx988swzHmnLCw1bhG6lePmLJYXb/Bs3e6CymITE+WKwkGh0Vh1y5xOVXJ+RsUitiR4UC8kesIAdetoHw7E5I+Do3IFQ6uoLWfY8cNhcbNaZPLeWwEZZlCj4w3XgCdTCIe8PsMv9DXyLn4PBLRCGINjEXOZe09n8GsoLP04rUA60wl9EEzZbKnzw0bNfm6/GdAi61uS85TdeXwPlL0bFALZudJtZaCcIqxmodUlImogcYP/RVYQ8c2/o4TgKcjMKIcdWAJnmXLCZ7GAycY0jS/RmsgD4InXgDlWzkdsK/z6ojuyFoOBBajnYTgc00Zje7rYl8JyQO5whuXYPzznt5GtPvkfbV6RD0LWEClJ51rLLV/lM1WNpIU+ntKgWQcUl2tDYQhQkOYz/I2wvOdIa9OGgfJNWNLMRWhp4M2ELJe1D80JkGzFDmuaSuhQoX9j5KhboAb2vfWD8/72qRnQYujeF+StuOK1SKV8dFSMWvnq/K4G3OMoWn4SjASn+n4ViWOMsa+fGQOShToVaLU+gKzUG6n4pd9lK/uolo/56lpDBZk51ge6jZPPHv/iFA3Jep4fGWMZRniRM+t/pYHLjC3coT42JzA7Jxmn0oUA6hz7c5oqBru8KJGkiVsyzVbJFcyFvjp4kIehOFEKOped8k2I7wvcD6QoMUYF54dVLRGABDR+ey9h3/ml8RGSJhXUF0Eta6MPpQmUQ6UGz1+aMf+5zdoKOMIQoc8c+uT9LKHiGPyFP2oRapyG3+pmDbyBA1GeLpSVLVaG5WBcvpzkMq73jMoY9bgHHNjZxSk1QX03YDQTpEROzmagbNUGBqfiZWeOe1F4rpisMI8pVo6cHkN0P0wNGzHDsSl3QTwbovWEDjKBoHUrm9iGmk9r0+vxUYGh/MG/cs2+45KyPsDyc/t3QHeTCWxQrFFpLHr503M18G3ADYLjhkCnkzzKDPcQNwW626AuUKco1E/JW3Dvm6dfVQENgOFHmTXh2c65Y+Cb6Gfitq/gLPxWgAYsOcaG95AE1wDAYThRCb0u/+TbFxTZp43qlmzCpQ9PKtCBbgBwx/8W7Rz/2mRpoGNJClJtOv3+/Q8l+mM3/sHLSbbu9oPaDFiLxIzJi7YqzItOfO4+HGIu0EIUwwXLuM1bFtZEPepHfT7futlnaC7bduiiDGRudVcmcO/v836dlM7u0EeWscZdHXELuPVaFXoatobsLag/4mhtsXLJITyp+dV6fS/6sRhmOtBGFsGjCiyvs4HrH6Hcq/1TB9+ZX2JvDHHL+PWMHXZS2nZnTShRCgal4rkPOxAJqU/rdaCt4Ry2CS3G9s2jis8vZ1zQh7US598zfbbfLGU8JivFv3fypgbSJRXHU58iFc9SgtCHtRCEMcB73uAMtdjJqu9F20KiJXXY8PufsZ3aqQWlDpxDlxtFzq3LEgnvpUQJOlW7vJxFiUuGeolPJ3jvYOeIZNTCt6BSiEO4/64VXs6DgBf5kLNIFDdxuujQFH0agIwk1iTPUQ+xz43WjZyd7uZGh6DSiEM4rufD2LOj5rghoryBXujuipmBNRxHBLGeGbNHMybPOenyZGpV2dCpRzii7LDy536+vyJbyf08LgtP/TFDXBWkTmh+jd+f0sPT55ZJz3/iPGtUp6DLafu5H117mhZpHw6K/P1+1xbukn0t3RE2EysqbikwvfgST5Hi9WOgz875JTzR5d05noEvVw2P/nJnpd7nn1il10wLgKZLZXraUSVrjisRhq6F/YlqnWXEs9MYc2fZ5NhQ+Om/iH99XgzsdXbLBPv/Jorzv/VsvUSzShXJUGRERA6Uhwce3AlXP+SmASkN7wFlku18QxJ2iInziEgvenX/W86sF2t+jC6HLy/21Vb/PPmTeXbarbmNGKOyRTWzl+U8DEnKhd9ZxYomt//7bXQt2C8d3G2nd+FED4P8DACKGNdr1A1wAAAAASUVORK5CYII=;" parent="1" vertex="1">
          <mxGeometry x="329" y="182.5" width="24.91" height="22.2" as="geometry" />
        </mxCell>
        <mxCell id="Bfzu40jN1q7G7ZqrV8ut-5" value="Consolidador" style="rounded=1;whiteSpace=wrap;html=1;verticalAlign=bottom;" parent="1" vertex="1">
          <mxGeometry x="390" y="259.9" width="82.91" height="39.1" as="geometry" />
        </mxCell>
        <mxCell id="Bfzu40jN1q7G7ZqrV8ut-10" value="" style="endArrow=classic;html=1;rounded=0;" parent="1" source="Bfzu40jN1q7G7ZqrV8ut-11" target="bg-zHMoBhlFVX-3hGMGY-13" edge="1">
          <mxGeometry width="50" height="50" relative="1" as="geometry">
            <mxPoint x="850" y="249.5" as="sourcePoint" />
            <mxPoint x="622" y="198" as="targetPoint" />
          </mxGeometry>
        </mxCell>
        <mxCell id="Bfzu40jN1q7G7ZqrV8ut-11" value="Consolidado" style="rounded=1;whiteSpace=wrap;html=1;verticalAlign=bottom;" parent="1" vertex="1">
          <mxGeometry x="540" y="181.5" width="77.91" height="38.5" as="geometry" />
        </mxCell>
        <mxCell id="Bfzu40jN1q7G7ZqrV8ut-13" value="" style="shape=image;verticalLabelPosition=bottom;labelBackgroundColor=default;verticalAlign=top;aspect=fixed;imageAspect=0;image=data:image/png,iVBORw0KGgoAAAANSUhEUgAAAIoAAAB7CAYAAACrSRjYAAAAAXNSR0IArs4c6QAAAARnQU1BAACxjwv8YQUAAAAJcEhZcwAADsMAAA7DAcdvqGQAACkcSURBVHhe7X0JYBRF1v/rnjMzk/sgJBwCKhA5RPECBRQQddUVj9VPUfBYb10BEWVBEfAAr139Vt3Pc9djD//qrrq7IpfgBbKggJyKXAZIyDGZmczd3f/3qrozSWYmx6R7EjW/ZJKequ7qqle/evVeVXW1AF0cL698MrvaeuC4XbVf2UORWsUEIihq3I8dUfz0yT5OLLH223ebMO974XSrzGO6HrokUZ5dMzd/j//7S2Rb9EI5Kh8viaHSIPgAFAkzLPxkiKIIAljADhY5wy8Kwk5RET/NVvLenTfxjx8LgtClitmliPL427OyfLk1c91K7bSQ4itUBAlJoTBy/JQIEg+tZAKYFSSOYvsiW8h9dP6EF99TIzodXYYov11x7WUe2b04KtT3kwUZTBhGJCGa/FxATUFBzpCmMcs2sCqON/KVohlzJ/2hUj2l09DptbBh+3vWt37462MesfZOSQizMAVpIgB2M6yh/XyIwqlCf6nMEjvCbml3rlx0/YJJL62mMzoLnVoLK3e+a11W/s7fPMrhi6JMd5ChillCjSJQ0/oZQkZtQpUiYvlRCigLCcniCDvD2ZMXn/fGv/lZ6Yeo/u8ULN33jz945KqLIiLa/ygg0iWkSUhIP1dQ2UVFRkngD1OpIkSEgDVk9r2zeM30ifys9KPTiLJw5Y3T/ELFDZIQQQViQQ0SU24/X5pwcLsMNQvKhLgi4nFYDNiqQodfeHHdY/n8rPSiU4jy3CcLimrkI4tDpgjr/ESyR9iows+dIk3Bmw7vjskD9InVfXfWbbyDBacZnUKUQ9EfFgTBW8R6Y5UbkmDqpklzoK2GVgsdMNtFxp+QUH/3gqW3D2LxaUTaifLI8rsGe6Sqa2XUqZpXQy2G/+1GEzS0HDzAX5JPWPQ7/WLNwzw8fUg7UWqVikVBwWPltj2BS4OTphtNEZMRHYmMLyL4BM/k+5fdMIHHpQdpJcpvl02dUC/WXSyLkmrRd6M9kIkt2B2FhSDUi+4ln+x918pjjEfaiLJm1buWoOJdIkEYtYcJmwYfXOpG2yGjShFRbuQFoSxHfPjtP6aqUYYjbURZGv3gzoBYP4I1CmQIdT2aYu1G2yCiSqHGRWZtVIiAH7wLl/zn7kIeayzSQpQnPppR6IOa2ZJA468auvVJauDzX6RXAoK3x0HTnplqhKFIC1EOwL6ZIdFX2K1DdAbaK5IYnLFoxe3D1BDDYDhRnvxi9mjJFL5bs9y7oR9oljkqhCxepfZxNcgwGE6Ucv+BByNQb6IbdbXOhqhL7iYb02G541RubmaT8U2V0uWAhi0tyagH98RHPp0+RQ01BIYS5d7/TL3AL7vHC0Cjrl3PJiFCcFKYIIoGYlCqAZ90GOqkSvDJbgyLYjyewWazu+AqRSI4kjiKnuSRQPl9r77+pEWN0R20PsgQvPLZ7zLKpe/eioh+1So37FYpg3QEESEk1UGOqQhOL74YxhVfASflnwPFtj5QG0DCRCrAJNJwBZ3dtfSiIpCjjPkSJYhAtNDn9Lo/fW3TF2q0rjBMn85ZMe3+Wjj0IE1mkYrk6FpahbIVjHpgTMGlcP7AK6DIUYqhmpKVoSpQDu/vegtWV74BdnM+c+u7YhnYiC1mzipnVh9jGXrCHWMX7lejdYMhzXzJ8pl9qpQDL0lC2EGC5zTpWgImhCUPjM77JVx1/O2QbW08HEE5FsBhyYayouHg9YVht28jWJhm6VrgOSXQLLPkiEqR3E9e2/xPFqQjDLFRKqF8flgMFfAisCU4PKILAR1LcIkFMAk1iV10NcojFzuBlg/ZRAdMOuZSyDEX0zCXGtO1wHOuoGEbhTqhZsr8VTeNYkE6QneiLFh+y6h6wXM1ibkrIyz7YFjuGOjp6q2GxOeXCQdrodjZG4bnnQkh2cvCuy6Yu2z2S+5HFEXRtW51TUyRFLFWqXoYW57ZIGWlGyQ5AkWuEjADOQq0OpXyG9MmDKptRZ1nsbMHu6YrgzQL5dgPvjGPfHynrvNAutbmvFXXXRMUA2NpQbARs8O83miFPvvW8Jdsfol1CxRD7qz6Xz0zEVhMQ6Pj58ehUbDVjNxvFfyedIkkRiEkhCGqhJhrzRaOq2lpd9VdRpg+3SOK9z0c2Xv3i/9alKHGdBi6EeW5VQtzfUrdXAVCzAo3gCeYZixRGigLoDEqyUHIEnuAU8iGoFSJXUo93l+jSPJMUEwT26m1/LZxwTeNuQSkGhAiAvQ09YeelmMw1Aw+qYp1bkRiog390EywniCZU5omzGvUFCr73rpzlhrVYejm9Yy4ps8DPqi9UEGfnrUsFIi+YiBgiqitZAU1iOyH8cVT4LJBt8I5/S6HMb3OhSE546A+GIZD9VtBNNlavH8Ery/LGQWDCrRpEkpbPUyAPe5t8HXNGrCKTjUkHkSlSDQIZ/a4Aq4afBdM7H8xnN57EozsMRacUADfu7/Ck5AmImpFPFlnnqjk58smqTuNKKGhv7hq4t8+fv2/deyEDkAXoixZPXtwtXToTxEhZCJ1Sn06CUFnOSBoHUYQXEIuXFd2P0w6+hIoyOgJGWYnZFgyoYerFIb3PAlCIYAdnrVgRo8lWR6iSJTBjYnSyhB9W4gSlurgsv4zYXLZVMjLKAKbKQOs+Mm25UNZ4XDo6yyD7dWbwStXYN7s6lX6gUrASsEG4hgcWA/5n7+29R/8a+rQpeupjdBiaZ+VD3XzLOrR9dDIIyXDBSCAX66DXtZBcNcJj8HIEjSFmvMcVW6GmAkXDroaBjpHY4sKqBHxiMteSvlVy4oXkxd1Qs4vYPyA8zBXZgxp3LFROzfB8OLT4K6Ri6G/fSQEI3UYRldqUKu2A+Cp0eImdOwxORm1bwjqr1m47Obx/IzU0WGizFs2bbxPcF+qiDGSpCTzhMBuBnNISwDr5Vooc42CO06YD0flDFRNhmZ3YlpBAZc5G04tnYTdi5uHGwm1fskjGll6OlgFB8sbt0I00BGvxt6Z/eGWE+fBMOom0W7RKqAxZVIFt8x4StRQyYAOmgLgNtUs2fD98g6NFnaIKKu+/Iu1XqhfHBSCyGJdlFMTCJgmpRuKVsMQ15lww/H3QpGzVwM/NJO1MRSVrKXO3tiGSb13vAKSAjUopU93MIsZ2PVh3iiY/Y2/LzfGZSiw94Rpx98NI3PORyO3htkU3APSN6+UO6JrQPGe8N73b17NQ1NDh2r3w9r3rw6A70Q0TNQyxldcx6BARHLDsY7T4drhMyHf3gND1IExFGwCmjSERZQwftNX8HGgxqFpUbxfROIP2bPmnOjeRAgUuYKEybUWwpThd8LQzIkQxoZAjUInS6AJyAuKQgR8gnfRi+sfTnnZZMo5e3rF/YVBMbBIFmgQCgXAvJ2OVQy1Kq2iqbsJo+FaaDkKpg6fgUZrD5Y8U+jst/G98Fj7yioJjc/ab9E70sZWjAeNl+yp2aV+I4omvi8LVQ3nXGsBTBt2B/RBmyWEbj0P5fmnIYYO5x01HtmNZNr6oa54V83WGWpMu5EyUSqU8gfDQn0xrzD8qC2rIyAbp0HAsgw2xQrThsyGEtdRXHwsSrsPN3RjDNGOBKj074cvDr4HdlMOC0mEuNymlH3t3gJ6ONmwuvw9qAyU4/f4vDWGdiuKLXSUwjVD7wQHGuESEpvsCnpqknVH/LSUwZ9dpruRHkbDVvTOmL/0pjIe2z6kRJR5H91U5hGOXE9WdYoSTggqE42/ULECUi1cdvR0GJR/ApNoom0waOiqAXgtaZsjgYPw2pbnoDKyG0xC8nU8cal1sFZMghUOhXfD65ufZmThDmrLsuFUkGFAThlcdexMCMpeJIkCJtKE5EEyG0gfkGyCot/qNbkfVIPahZSI4hOq50fA3+hpP33Aew1aaVYLYwouh1F9J/AKVLuTODSyEei6XdVb4Pfr58AW7yqwYAvvYN23Gxlo0G7xfgxPYR52VG9SQ1sG2SxUjSN7jYVzelyLntAR/MYH5PTQ0k2AiQbBf+n85Tefr4a0Ge0mygMrbjw/LPguo2PdiYI/Evb1BZYBcMHAq8AmoNfCboF/1H69MWJEEOCrg5/B01/dAwcju9hYCsW2lLu4uJZObiMoPzbs7iqi32JepsN/yz9WQ1uDAmawwqRjL4O+1uEQQouCbDS9iU7dUEQMQD1UL1659q12ucvtIsp7n71i8Sk1i2lPE4LeXgWlF47WwS/7Xwc9yA1uBWzjRBTouvI18PzWefSkP5Ir+chpOkATgDZwQVSU4fltc+DLH1raUUtravxvnr0QJg+4DqSoH4XBxrdZuH6g+SXsEcBTttLzwa1qYJvQLqKs9a+6NQDeMuJ/ir1WiwgrPjguewKcVHqGGtIaBNhYsQ5e2j6H9UJm0kBtRFwV6FontAudBQSTBV7Y8VvYfGitGt46hpWcAiPzLoCgYsRgIRVSAUmMQL3g/e3C929rs7vc5tp+fM3M3vWCey6togL6oBWtJ0ibKJIEk/pdgd6KCwNaN+T2uHfAn7c+hPnBlikSedte23E9TVxAxyGigSuLIryy/SHYi3ltHTJYkewT+08Gq2xvR2naDlngg5gB8BUEHL42G7ZtJkp1pOrBkOBnyxuZ26WLRuGioL9BmivJnQSDC4ayMF5zzUVF3zmB6iI18Oa2P0CdXImaJIMNLLUHcZUQF9Bx0CAaabk6uRpe3/o0uCNH1JhkjQzLgPk4Om8QnJR3PkQkTyycybvjbCY5saKKEnjkqhse+PevNYG3iDbV9qOrbz/Nq9RMaSxLfewTmhLn6ShSFEb3Pg+sIrUk/GEyaSoYOpONbKKgl+56G3b6VoEdDVd98qI/qEroYzM54Dvfl/DRzneR5kQSEnuiPHN5mNDKOR09Phm7LzbRikf0X59yUnoEdByEkMVndj/GvraCNhGlOlq5MIKJaqaXXqBii4qZzfIem3kaDCwYwiOSCITuTp+dRzbB0vLXwGHuwcK7KqiCmabDj82aCcsOvQTbq8htplIkLyOhf95AKHOdChG2/JKHanF6gbIWEOsnzV9545VqUFK0SpT7l93wP2glj2cbBOvC6Bj4zWXsdjxwctFZWPGaW0s/ie4lQEDywb+++wvIJswP9repIk7oetcCQhtdpaQFdACiaK/8+7s3wM+6FG30tin46DS62aITRvWciN1PPatQVfHqDtQq1DXOfXH14y16Ai1K+vX1z+V6oGaBoq5H1T+vlGYUsk2FUNbj+Iawpv+b4pvKL+Er3zKwoDpX1xqkhLgrDagILUn6TwSwC1mwpW4ZbK34mkckQiNGHF04BHJMxWzCkdtgiWWSKvhIE9s+Y/AeaXuLyyZbJMpOz7rfRAT/0VSdLJ86g/pj1u04ToRCV7EaSkgslKDsh0/2fYR2TAaYmE2beqbirjSgfHxiTwN9kcBsdsKafR9AMKpNAjZHrIPPc/aAwTmjISwHmXbSm81avdLTnN5oxZ1PrJqRdPAqKVHmL721tE6qvjUsUo0YIEUEGWchrPwhBaegW9j6gvG9NTthi3cFEoWWOHZMaHFX61sHCUGVYhFdsM27EvbWfqeGJocFf47LH8ZWz7FHc3UGr1WqBRqxjRRUykcWsqAESEoUtIefDJuChXxPdm2UUGdGY3I0itkP3cHWocDXFWshSl4AbUPRQfLGXW1MW2gKNtqKlYIF33j4UyxD62NFvXMHgEOk555RWDobKlRk+pDmow0YvXLtVb/98LpTWWQzJCTKkhXTJ9TLtb8iN1SkwhCbDegjZUWGAksfKHA27nZiaCyWunANbKpaBxnYz/9YQV4Qfchd/qbmC/BgmQgtVX+BswSK7QNBUiItnpcKiKbsvQPY+DhZQpaAyfsoj22KhEQpl/bOCQt+LBRZ5tgGjDBQEFG0T3pnDgSnzaWGNAW/KxfPIc8BOBzaBqJAC6o7LrK4FDqeZBuAJUKtImI3ezi0HQ7WaZsO0M0TZ8BhdkCpcwDKKmhIPTDNjHliOUDChAT/2AdW3XQtj40hjij3rbh+WsQUODNZxvWEhEQpcfZDx9GGd0t0v1jo/rrd6B+hsFT6/BhBOafKoKOwSCvi+LA+L1F8uaj0NGdU6uzLjH7jy84G4aA2UnHf85891mTVVxOiLF42O8crV83h7rAhO2I0gYwsKHAUsOPEximJhmIk2OfZBSb0dvRCnMiNrgMGrqHpJREWyIQD/j2o/mMDas0bpxZaRF0zdhGcZAaC2VCYOzF4zJ7AV9PVUIYmRPGZjkxHbXIMua3a0LpR4La2BXJseWpIfE1pOQhE/XDYvw/Mgk0N+XGClZkqA7sQi2CGI/6DrGwciUjAZZJjz8fzadyIfTUQVO8yRMUI+BX3zQ//Z0aD8dhAlNfXPpFTD97rqfWaMEMG84TBLFixD9aM03iiaFrGj8L0RKqxb09oUqWEuOKlobx0EzZvg0cCEqU2dAgCER+PYuWPlwHBbnHxJxQNziPpO/7YDXOXi2rEAw2PeDRI/kBg/4lBqC+lrJKvkyzT+oEmyzIgw4othX1LBJ6HUCSALc+LudKPKHGlM7q4zUAqvl6qRqIEG0KSwWq2srEjTjHjQBqP1uySK053UszCZB7TiCjuaNVJINPrY3lQRwe0WgNlhRYk20zairwE91ODaGIsCvR4qH61SUmnmRtNQLYXLXkMRbUXbiaSNw+ziBbseuzG2yhsrS7fKpXcZjSgBz2xagabeW0gCnabI9lr2/CYbxuRKOP6grl79AIFBrpf4nuSgNibJXSsWla+huTooOXyGiMN1BE0jqEeJ4MJu9yWnijQC2y2G/sTAj1jJUE0tzbiPpa+NxAF+8pcUodM7VD96VgpSYEEaHEzGTUL7BQ2hqBjdaHwtR2UeF0lKC+7Lz8MREJ4hn5dH4HuSJXDEX9/rQ5I29Dbv4wGLy51PfQNc4aC8Ua9zNVsKLkkB43PSSOQ6qUHniJyqCEkkbAI1JpoMY+eoJVnez27ICTT2IwmpObgIqEnFvfXfa/rVhV0LzO9bt/MNUUiEmrSiFLXy/KpL1FbBhoh2Jh65x41kr7F7txSyzYE2EfLfgiG+dYUiQaTtLkQMuZsYkbDdz1gQeNwq+dT2FO7Va2RRDoUQ/B3T+1O2OymycjEI8ipgMpiE3PAZtHGhpLLP4x2DG38k0hGxoHuFWs+DUSxChnppCvLBhmp/khLOy1ywThRmC5LLqpC/WZQudBN8P+2vwyH/fvV782ARh1tSvz2jpfRG+C+YMegkQEtJCxLprUQHObWyRdEry+kaOMt6YMiy1Betee/dNxQdrsls7YlVusP6p3D4Ikk3zVKq7oMFGahrSebGNMTVtEKewMb4NmN82FTxVrwRz1kwLEPuePfVP4Xntu4AHb714LFpOeqeFovGIZCewnYzXx4IFbaeHjCbnXr0uTn6A3mlYpmyLUVMqHHGolJ3BC3g5HBELGVVgf4DGpiklIYudE26JN5DMjYT+sLBaymTCgP74KnN0+HJWvvhpc3PQF/+vopeGLdLHhy0x2wL7gdu6k87Jn10CeUBn1kkKQg9HL0Q7JqtldyGlbVVyBFKD59RCEIgtmX48zfQ8cNpXdEs1aLcvuejekoiAAV9QdQbHypZTxIPDw/fXMGYtb0zRsfBBDAChlgNrmgPLQTPj/yNqypegv2BLehoelkC6rIZaQpjQ7fndJAT4+VFInXN4d2jOQUSJY2zbsdRBmZ2MNt+pa/NVjkjM13jn5oLx03EKWPY8Amu+DazzKdJuLSZnw/+HagmteGsZuDLAeexdLsPpBrPkq1U/QSGFU+T5+Gr2kuyY4GZoaYDRY8pnWq5JZyiuhhSpIxTg9sSJBlLkaPoh8PxvSTpR6U/FBe/z0qfLsuOWgN2s5P9HSESRbe5aGNiDJt9PR6h5j5Kgjqk/RpALm9h4O7oNpfrYY0RywjuY4CODZ3JLqqAbIxVXRccGQtaEf8fvyeWsoN/3XQZjTqSZ8QluGYrJFsR0sW3nCXeLixay737wCxoYsyDqxRspFZbMSytTIX8l9To2JEITilnk9ZpQy2bVB6fHYR6hUPHPB8r35vDl5x9NcKdji+x2iIolGnNBnN/TGBKIFaSvLBicWno9ZqfUOBH+r2gkc6iJdSmY0d6iKXnUbLRcUCGUL2c/dN+t8KNaopG+6duMidBQWPmLBa9ByzSAZ6PSvZKduOrMe7qfufNQG1NPpwQpQVDIN+thMhqiQ6t+uD7BNafFVqGQqDC1t/XyQNom+v+Qq7RAe2cApJrnn0gYjaOgoZiutg/8zjnlUDGeLUxhVn3fimHTLXUyYJVEW8HRiQSezjbIILdrjXo4pVux+aQlCJoQmG/1XYxr6nlV4AAakChW600IyAAH6pEkb3Oh9y7Mk2EiBG8PLXhWpga806vsTAAJAEtWFG7tXR2lk7uCwF824+9b5KFqEijihDTaeE881F91nBQfWIKdCEnGbQ6QsSiSiYoSqyB3ZWbWNhDXM/TW5HheEFOqXXGOhlHYGusjb0/+MB5bnEMhxO7XUWlibm0cWA3+lXtYdo88CK0HYQRFriHpOBfsD0tCSpnvGfDWwfLxj7/Ms8MIaEhsicsc+scEHe3yXWaukULJQBFi4TFqo6WuK4oeJT/iYKUn9J76dAnr0Izut3JXoD2s4APx74Mc/n9L0KjVh6+i+RlqZyk/oXsYuKwLqDq1W3WDtX3zogonJjXgQJiYI+HxRZShI+25OQKIQisdc8u+LyUFImmfbUaF4onUDdD6rWTbUrYa97NwtKpr0oLxRzSq+xcGLOZAjIHX4XQNpAI6vDs86DU/qMYd+TNzwefsizF752L2fjO3QqL3mya1IFklK2sCUctFewU8p69d6x/7tSjWyCpESZfuYju5yK6zGygqMiLWjSHyQsQSZrnhbxeGHdgZV4H255J6MlCc2Gwrt40PWQLZZgy6MuiMRoEJE7DNoQOAoOIRsuGXQdOE3ZGEajN/H5ZS2cNUgFZfExak03ahfu4RnjXNAyjyimjQYs5IT7uIYkfdF2UqIQ+ivDH7NJzm38GdoWT00JjRtVhikXPq98Dw7UfUeypSKoMTEw0ary7Z3VH6449naIRn1MeSZS5J0NtmGfILF96a48Zib0z9G2eE2cU6Y1MKrcuw/WHH4XbOZslBHJQZOF3iXkHb1ZtqL88xbfOmrOVjUiDi3W/q/PvjuUZSpcRKN0fBmecVVB62F9UAUr9r6HFR9l31vDKb3GwUV9Z0B9lLwg0nrx5OpMUMV7o4dhcu/fwMl9zsKQ1vJH48MSrNn/AbiVgzTXooYbBT7ubAXn9t71gx5SAxOi1VnANX/e8M24qSefEYJAf95PGgcapt7v3QwDsk6AImeJGpoc1B765R+NBkAGbHWvVNeLGEfm9oBISwQ+r+RWuKBsClgFG+dJK279zuot8Maux8FizjTOLlRByZsVC+SZe9016+yHWtiLo439SaGpZK5FtrPpZt5dUAH0LwTNXivYJ7//7WvgjdTywBa4yRb/CA64aPAU+EXvO2nrBgyLrRvhdgt9w2rDCjKG5o1FqPomigz+yEE4v+QOuKRsGthpp4Y2kCQoeeGD795ADwQ9QQPkGwNlBj+KCBlK1tIHxz33Jg9PjjYR5Z5xT6x1mQpeJxNMs9b5Ngz6ip5sIbPJATu9q2HVnn9h6lQYiklsyNEgEcXQfikXD5oKU/o9ABHJh+ZtiBODydo4M5cZ45gDoiCXDbq1Mr1lwwu/6v8ATD5uGntvMkOCTDSX3po9y2FT3TL1Pcz655pS5HLhK+3NijXskHLv5rEto01EIRRZetxvk21VNLZCwuGVoG9hSNz0Y7Pkw7/2vQBbj2yI5TDhpBzNcvLBQJo3mXTMJXDb0N+xXYrqo1UYr0348fP0Nne1rkEjTBC1YJapCG4Z+hicd8yl2N20NpejNQSAXdWb4Z29z4HdkoNp0bILI7wc1cDGH2pkmWL+iwvO+eM3alSLaNVG0bD0lU89Y6acEI4KoXOYVsEb6e9nUIrccaRZkd012+G4opHgQuHxymh6P6on+tAVvAUKUOLqDccXngxS0AR7vevZSnKBLYpueq0e4PdUIKgEICx74Yyiy2HqsBkwMG84xrTeBlmOsOEdCRyCFzY/gt0tvWvQguF8yEB/8EZOH4eSeSQnmP+rlW+ub9MayzYThTD7N/dt/CG855IIBAp5pSVq5amDC5emDFADoMBqI+VQ5amCoUUnsZc4Mq2CgiWwVsF+2BcMxiPKDl7rsubAkOKToF/miVBX74by0GakncyWNXBhqRcx8I6D041/5x8CS5B94mkqQ0jxQgTd88GuMTBl8CyYOOCXkG3NZ7Halc2hZpERnFL0SXXwt03PwnbfGiwjjbFwqMoqYRqpgqWF3aMJ1Uqm0mPug+e8kHBwLRHanY8Hlt/yi0rY94EihFlBuZCNggBeqRImFF4D/zPsZrW/51XABubwp7Ui0C6SOyq/hk8PLoct7o8hGHVjhbjY+g6RdaPa9Wo52OQYhrH5LVT/DZqTSkqviA0z7WGHHBiWfQaMKp3ENiqkdb2tgZOES4x4TWtr/v7NS7Ds0MvgNBey8IZ8GAAqB3XGmUretgvM5xw/bty1bV6E3LKUk+CelVd+WKdUTIoJ2RhohnN95BCcW3I7XELGIXoQXLFo4zot5IG2SccWRIgoQTjk2Y+k2Qyba9bCnvpt4FO9JAE1DU280V4k2rsRqTopDi0PkNFABaSG05wLfR0jYGjeCWyZQGlOf7RD+BJF+mmtu6H0KL90Hu138o8db8J7B56BTCQJ2Q50Bh+ZNQaUQ3pCKl/ue8GDE//4gRrcJqSUqwXLbhtSJfywIST4dH9nT1Ngz8iGmBV0N6vhnJ43wsVlV4PdRLtVtyXzvAJ55cTOpueJagJH2LYTld7DUOk7BDXBSvDLHv5AGhLMZLKyt3Ll2oqgOLM3FDqL2XuVc+2FeP/YPi2cym3TbjS8RQOJIdkH/9z+V3iv/BkkXxESFbUWM8pTrJA2gkiYqeS8tWTiW79Sg9qMlPM1d8XUP1RD+a28XVMyXGT6IpY9GrP0SodgXN5UuHTYtZBlKWC35H19MjQSPTvk7Z7Q+BoKlSACUQVJKXO3n+ZYzPihB+njNEVDsjEaJgaPb3yGJ+KGt7e+Aisr/wQu1CTMxWc7b7LsGQKerAw2xRnOk0tHzD/7eb6mox1olzHbGJf/evJ6b7RuWhRCTraIiP8aBiosPVrxnW8D7K/eB31yjoZsGz1GQTHUxdD/5qq/UY7YYeJ2T6HU8ZixC7Kg7UIf2ruF1sokJEFDEMUmiG8CJB31K/h7yLcXXtn8BKyveYdpEt7LcOq2lkqqkJHs1MjoCQuHnLXk4Umv/lWNahda7lRbwG1nzD+SaSp4mASs2RJGgxR3BrrKO3xfwu/Wz4IvD67EsChKmfieclEMBVFQFqOw8fAnmOfZsM37MdjNfFF1g2tjIPj2r2hhCa7D/bKGPMVD24+UNQph4YyFG74LbD8P3eWS1gw5PcCcVCSlSbSysYt1lR+Av16Bntml2EK74raiAtSEKuD9nX+BN3c/AgEhyLY5p3EM8qqMpwlBZpspZkH+XbPHPvmpGthudDivc5ZOG+8xH1keAVqdZjyom+MKjHc59VIN9LIMgXMHTGGvvM9ovL6UTkmaqRYjEyJ2ReNrE6dDBvNX5Z/D+3vegP2hr8Fl4psaEvigQvvunRqQkkIEspXCDVf2v2XUiH5npbwqXZfczlpx5d99UHkZiSyd4IYsqlYpChHJD2XZY2F8v8nMdaX5EvUs9T8dNbYoEldwi2i4RKto+qsF8rToRdc7jmyB5XvfgW/qVoDZ5GQPlnUWzIoVcqHX+IUT/q/Ng2uJ0E5JJcbiNbMGl0d2fR0Co93l5qDuTqssgDC24rASgqFZZ8KY0nNhUOFwNHhpu1Tew2o+CiFWwe0EXsbSwUu1lAjucBXsqtwCnx78EDbVfYjdo5PNbKd0D51AknHIuX96auLfp6lBKUO3Uty3/OqH3XD4vnQZtjHwItDCKrZNN5IirNQxDdMrYwSckH8GDCs6CUqzjwKnJRPP1seWIoe6PuJjq9E2V6yDr6vWwA/+rWAxWcAs4n3YlEKKZNQBRGa7nOntYx988swzHmnLCw1bhG6lePmLJYXb/Bs3e6CymITE+WKwkGh0Vh1y5xOVXJ+RsUitiR4UC8kesIAdetoHw7E5I+Do3IFQ6uoLWfY8cNhcbNaZPLeWwEZZlCj4w3XgCdTCIe8PsMv9DXyLn4PBLRCGINjEXOZe09n8GsoLP04rUA60wl9EEzZbKnzw0bNfm6/GdAi61uS85TdeXwPlL0bFALZudJtZaCcIqxmodUlImogcYP/RVYQ8c2/o4TgKcjMKIcdWAJnmXLCZ7GAycY0jS/RmsgD4InXgDlWzkdsK/z6ojuyFoOBBajnYTgc00Zje7rYl8JyQO5whuXYPzznt5GtPvkfbV6RD0LWEClJ51rLLV/lM1WNpIU+ntKgWQcUl2tDYQhQkOYz/I2wvOdIa9OGgfJNWNLMRWhp4M2ELJe1D80JkGzFDmuaSuhQoX9j5KhboAb2vfWD8/72qRnQYujeF+StuOK1SKV8dFSMWvnq/K4G3OMoWn4SjASn+n4ViWOMsa+fGQOShToVaLU+gKzUG6n4pd9lK/uolo/56lpDBZk51ge6jZPPHv/iFA3Jep4fGWMZRniRM+t/pYHLjC3coT42JzA7Jxmn0oUA6hz7c5oqBru8KJGkiVsyzVbJFcyFvjp4kIehOFEKOped8k2I7wvcD6QoMUYF54dVLRGABDR+ey9h3/ml8RGSJhXUF0Eta6MPpQmUQ6UGz1+aMf+5zdoKOMIQoc8c+uT9LKHiGPyFP2oRapyG3+pmDbyBA1GeLpSVLVaG5WBcvpzkMq73jMoY9bgHHNjZxSk1QX03YDQTpEROzmagbNUGBqfiZWeOe1F4rpisMI8pVo6cHkN0P0wNGzHDsSl3QTwbovWEDjKBoHUrm9iGmk9r0+vxUYGh/MG/cs2+45KyPsDyc/t3QHeTCWxQrFFpLHr503M18G3ADYLjhkCnkzzKDPcQNwW626AuUKco1E/JW3Dvm6dfVQENgOFHmTXh2c65Y+Cb6Gfitq/gLPxWgAYsOcaG95AE1wDAYThRCb0u/+TbFxTZp43qlmzCpQ9PKtCBbgBwx/8W7Rz/2mRpoGNJClJtOv3+/Q8l+mM3/sHLSbbu9oPaDFiLxIzJi7YqzItOfO4+HGIu0EIUwwXLuM1bFtZEPepHfT7futlnaC7bduiiDGRudVcmcO/v836dlM7u0EeWscZdHXELuPVaFXoatobsLag/4mhtsXLJITyp+dV6fS/6sRhmOtBGFsGjCiyvs4HrH6Hcq/1TB9+ZX2JvDHHL+PWMHXZS2nZnTShRCgal4rkPOxAJqU/rdaCt4Ry2CS3G9s2jis8vZ1zQh7US598zfbbfLGU8JivFv3fypgbSJRXHU58iFc9SgtCHtRCEMcB73uAMtdjJqu9F20KiJXXY8PufsZ3aqQWlDpxDlxtFzq3LEgnvpUQJOlW7vJxFiUuGeolPJ3jvYOeIZNTCt6BSiEO4/64VXs6DgBf5kLNIFDdxuujQFH0agIwk1iTPUQ+xz43WjZyd7uZGh6DSiEM4rufD2LOj5rghoryBXujuipmBNRxHBLGeGbNHMybPOenyZGpV2dCpRzii7LDy536+vyJbyf08LgtP/TFDXBWkTmh+jd+f0sPT55ZJz3/iPGtUp6DLafu5H117mhZpHw6K/P1+1xbukn0t3RE2EysqbikwvfgST5Hi9WOgz875JTzR5d05noEvVw2P/nJnpd7nn1il10wLgKZLZXraUSVrjisRhq6F/YlqnWXEs9MYc2fZ5NhQ+Om/iH99XgzsdXbLBPv/Jorzv/VsvUSzShXJUGRERA6Uhwce3AlXP+SmASkN7wFlku18QxJ2iInziEgvenX/W86sF2t+jC6HLy/21Vb/PPmTeXbarbmNGKOyRTWzl+U8DEnKhd9ZxYomt//7bXQt2C8d3G2nd+FED4P8DACKGNdr1A1wAAAAASUVORK5CYII=;" parent="1" vertex="1">
          <mxGeometry x="448" y="259.9" width="24.91" height="22.2" as="geometry" />
        </mxCell>
        <mxCell id="Bfzu40jN1q7G7ZqrV8ut-14" value="" style="endArrow=classic;html=1;rounded=0;exitX=0.25;exitY=0;exitDx=0;exitDy=0;" parent="1" source="Bfzu40jN1q7G7ZqrV8ut-5" target="bg-zHMoBhlFVX-3hGMGY-12" edge="1">
          <mxGeometry width="50" height="50" relative="1" as="geometry">
            <mxPoint x="400" y="261" as="sourcePoint" />
            <mxPoint x="327" y="222" as="targetPoint" />
          </mxGeometry>
        </mxCell>
        <mxCell id="Bfzu40jN1q7G7ZqrV8ut-15" value="" style="endArrow=classic;html=1;rounded=0;exitX=0.5;exitY=0;exitDx=0;exitDy=0;" parent="1" source="Bfzu40jN1q7G7ZqrV8ut-13" target="bg-zHMoBhlFVX-3hGMGY-13" edge="1">
          <mxGeometry width="50" height="50" relative="1" as="geometry">
            <mxPoint x="465.975" y="291" as="sourcePoint" />
            <mxPoint x="597" y="220.5" as="targetPoint" />
          </mxGeometry>
        </mxCell>
        <mxCell id="bg-zHMoBhlFVX-3hGMGY-2" value="" style="sketch=0;html=1;dashed=0;whitespace=wrap;fillColor=#2875E2;strokeColor=#ffffff;points=[[0.005,0.63,0],[0.1,0.2,0],[0.9,0.2,0],[0.5,0,0],[0.995,0.63,0],[0.72,0.99,0],[0.5,1,0],[0.28,0.99,0]];verticalLabelPosition=bottom;align=center;verticalAlign=top;shape=mxgraph.kubernetes.icon;prIcon=api" parent="1" vertex="1">
          <mxGeometry x="294.92999999999995" y="165.7" width="33.05" height="30" as="geometry" />
        </mxCell>
        <mxCell id="bg-zHMoBhlFVX-3hGMGY-3" value="NGINX" style="sketch=0;html=1;dashed=0;whitespace=wrap;fillColor=#2875E2;strokeColor=#ffffff;points=[[0.005,0.63,0],[0.1,0.2,0],[0.9,0.2,0],[0.5,0,0],[0.995,0.63,0],[0.72,0.99,0],[0.5,1,0],[0.28,0.99,0]];verticalLabelPosition=bottom;align=center;verticalAlign=top;shape=mxgraph.kubernetes.icon;prIcon=ing" parent="1" vertex="1">
          <mxGeometry x="414.22" y="99.99999999999997" width="50" height="48" as="geometry" />
        </mxCell>
        <mxCell id="bg-zHMoBhlFVX-3hGMGY-5" value="" style="sketch=0;html=1;dashed=0;whitespace=wrap;fillColor=#2875E2;strokeColor=#ffffff;points=[[0.005,0.63,0],[0.1,0.2,0],[0.9,0.2,0],[0.5,0,0],[0.995,0.63,0],[0.72,0.99,0],[0.5,1,0],[0.28,0.99,0]];verticalLabelPosition=bottom;align=center;verticalAlign=top;shape=mxgraph.kubernetes.icon;prIcon=cronjob" parent="1" vertex="1">
          <mxGeometry x="415.7" y="243.89999999999998" width="33.05" height="30" as="geometry" />
        </mxCell>
        <mxCell id="bg-zHMoBhlFVX-3hGMGY-6" value="" style="sketch=0;html=1;dashed=0;whitespace=wrap;fillColor=#2875E2;strokeColor=#ffffff;points=[[0.005,0.63,0],[0.1,0.2,0],[0.9,0.2,0],[0.5,0,0],[0.995,0.63,0],[0.72,0.99,0],[0.5,1,0],[0.28,0.99,0]];verticalLabelPosition=bottom;align=center;verticalAlign=top;shape=mxgraph.kubernetes.icon;prIcon=api" parent="1" vertex="1">
          <mxGeometry x="550.9" y="166.89999999999998" width="33.05" height="30" as="geometry" />
        </mxCell>
        <mxCell id="bg-zHMoBhlFVX-3hGMGY-7" value="" style="shape=image;verticalLabelPosition=bottom;labelBackgroundColor=default;verticalAlign=top;aspect=fixed;imageAspect=0;image=data:image/png,iVBORw0KGgoAAAANSUhEUgAAAIoAAAB7CAYAAACrSRjYAAAAAXNSR0IArs4c6QAAAARnQU1BAACxjwv8YQUAAAAJcEhZcwAADsMAAA7DAcdvqGQAACkcSURBVHhe7X0JYBRF1v/rnjMzk/sgJBwCKhA5RPECBRQQddUVj9VPUfBYb10BEWVBEfAAr139Vt3Pc9djD//qrrq7IpfgBbKggJyKXAZIyDGZmczd3f/3qrozSWYmx6R7EjW/ZJKequ7qqle/evVeVXW1AF0cL698MrvaeuC4XbVf2UORWsUEIihq3I8dUfz0yT5OLLH223ebMO974XSrzGO6HrokUZ5dMzd/j//7S2Rb9EI5Kh8viaHSIPgAFAkzLPxkiKIIAljADhY5wy8Kwk5RET/NVvLenTfxjx8LgtClitmliPL427OyfLk1c91K7bSQ4itUBAlJoTBy/JQIEg+tZAKYFSSOYvsiW8h9dP6EF99TIzodXYYov11x7WUe2b04KtT3kwUZTBhGJCGa/FxATUFBzpCmMcs2sCqON/KVohlzJ/2hUj2l09DptbBh+3vWt37462MesfZOSQizMAVpIgB2M6yh/XyIwqlCf6nMEjvCbml3rlx0/YJJL62mMzoLnVoLK3e+a11W/s7fPMrhi6JMd5ChillCjSJQ0/oZQkZtQpUiYvlRCigLCcniCDvD2ZMXn/fGv/lZ6Yeo/u8ULN33jz945KqLIiLa/ygg0iWkSUhIP1dQ2UVFRkngD1OpIkSEgDVk9r2zeM30ifys9KPTiLJw5Y3T/ELFDZIQQQViQQ0SU24/X5pwcLsMNQvKhLgi4nFYDNiqQodfeHHdY/n8rPSiU4jy3CcLimrkI4tDpgjr/ESyR9iows+dIk3Bmw7vjskD9InVfXfWbbyDBacZnUKUQ9EfFgTBW8R6Y5UbkmDqpklzoK2GVgsdMNtFxp+QUH/3gqW3D2LxaUTaifLI8rsGe6Sqa2XUqZpXQy2G/+1GEzS0HDzAX5JPWPQ7/WLNwzw8fUg7UWqVikVBwWPltj2BS4OTphtNEZMRHYmMLyL4BM/k+5fdMIHHpQdpJcpvl02dUC/WXSyLkmrRd6M9kIkt2B2FhSDUi+4ln+x918pjjEfaiLJm1buWoOJdIkEYtYcJmwYfXOpG2yGjShFRbuQFoSxHfPjtP6aqUYYjbURZGv3gzoBYP4I1CmQIdT2aYu1G2yCiSqHGRWZtVIiAH7wLl/zn7kIeayzSQpQnPppR6IOa2ZJA468auvVJauDzX6RXAoK3x0HTnplqhKFIC1EOwL6ZIdFX2K1DdAbaK5IYnLFoxe3D1BDDYDhRnvxi9mjJFL5bs9y7oR9oljkqhCxepfZxNcgwGE6Ucv+BByNQb6IbdbXOhqhL7iYb02G541RubmaT8U2V0uWAhi0tyagH98RHPp0+RQ01BIYS5d7/TL3AL7vHC0Cjrl3PJiFCcFKYIIoGYlCqAZ90GOqkSvDJbgyLYjyewWazu+AqRSI4kjiKnuSRQPl9r77+pEWN0R20PsgQvPLZ7zLKpe/eioh+1So37FYpg3QEESEk1UGOqQhOL74YxhVfASflnwPFtj5QG0DCRCrAJNJwBZ3dtfSiIpCjjPkSJYhAtNDn9Lo/fW3TF2q0rjBMn85ZMe3+Wjj0IE1mkYrk6FpahbIVjHpgTMGlcP7AK6DIUYqhmpKVoSpQDu/vegtWV74BdnM+c+u7YhnYiC1mzipnVh9jGXrCHWMX7lejdYMhzXzJ8pl9qpQDL0lC2EGC5zTpWgImhCUPjM77JVx1/O2QbW08HEE5FsBhyYayouHg9YVht28jWJhm6VrgOSXQLLPkiEqR3E9e2/xPFqQjDLFRKqF8flgMFfAisCU4PKILAR1LcIkFMAk1iV10NcojFzuBlg/ZRAdMOuZSyDEX0zCXGtO1wHOuoGEbhTqhZsr8VTeNYkE6QneiLFh+y6h6wXM1ibkrIyz7YFjuGOjp6q2GxOeXCQdrodjZG4bnnQkh2cvCuy6Yu2z2S+5HFEXRtW51TUyRFLFWqXoYW57ZIGWlGyQ5AkWuEjADOQq0OpXyG9MmDKptRZ1nsbMHu6YrgzQL5dgPvjGPfHynrvNAutbmvFXXXRMUA2NpQbARs8O83miFPvvW8Jdsfol1CxRD7qz6Xz0zEVhMQ6Pj58ehUbDVjNxvFfyedIkkRiEkhCGqhJhrzRaOq2lpd9VdRpg+3SOK9z0c2Xv3i/9alKHGdBi6EeW5VQtzfUrdXAVCzAo3gCeYZixRGigLoDEqyUHIEnuAU8iGoFSJXUo93l+jSPJMUEwT26m1/LZxwTeNuQSkGhAiAvQ09YeelmMw1Aw+qYp1bkRiog390EywniCZU5omzGvUFCr73rpzlhrVYejm9Yy4ps8DPqi9UEGfnrUsFIi+YiBgiqitZAU1iOyH8cVT4LJBt8I5/S6HMb3OhSE546A+GIZD9VtBNNlavH8Ery/LGQWDCrRpEkpbPUyAPe5t8HXNGrCKTjUkHkSlSDQIZ/a4Aq4afBdM7H8xnN57EozsMRacUADfu7/Ck5AmImpFPFlnnqjk58smqTuNKKGhv7hq4t8+fv2/deyEDkAXoixZPXtwtXToTxEhZCJ1Sn06CUFnOSBoHUYQXEIuXFd2P0w6+hIoyOgJGWYnZFgyoYerFIb3PAlCIYAdnrVgRo8lWR6iSJTBjYnSyhB9W4gSlurgsv4zYXLZVMjLKAKbKQOs+Mm25UNZ4XDo6yyD7dWbwStXYN7s6lX6gUrASsEG4hgcWA/5n7+29R/8a+rQpeupjdBiaZ+VD3XzLOrR9dDIIyXDBSCAX66DXtZBcNcJj8HIEjSFmvMcVW6GmAkXDroaBjpHY4sKqBHxiMteSvlVy4oXkxd1Qs4vYPyA8zBXZgxp3LFROzfB8OLT4K6Ri6G/fSQEI3UYRldqUKu2A+Cp0eImdOwxORm1bwjqr1m47Obx/IzU0WGizFs2bbxPcF+qiDGSpCTzhMBuBnNISwDr5Vooc42CO06YD0flDFRNhmZ3YlpBAZc5G04tnYTdi5uHGwm1fskjGll6OlgFB8sbt0I00BGvxt6Z/eGWE+fBMOom0W7RKqAxZVIFt8x4StRQyYAOmgLgNtUs2fD98g6NFnaIKKu+/Iu1XqhfHBSCyGJdlFMTCJgmpRuKVsMQ15lww/H3QpGzVwM/NJO1MRSVrKXO3tiGSb13vAKSAjUopU93MIsZ2PVh3iiY/Y2/LzfGZSiw94Rpx98NI3PORyO3htkU3APSN6+UO6JrQPGe8N73b17NQ1NDh2r3w9r3rw6A70Q0TNQyxldcx6BARHLDsY7T4drhMyHf3gND1IExFGwCmjSERZQwftNX8HGgxqFpUbxfROIP2bPmnOjeRAgUuYKEybUWwpThd8LQzIkQxoZAjUInS6AJyAuKQgR8gnfRi+sfTnnZZMo5e3rF/YVBMbBIFmgQCgXAvJ2OVQy1Kq2iqbsJo+FaaDkKpg6fgUZrD5Y8U+jst/G98Fj7yioJjc/ab9E70sZWjAeNl+yp2aV+I4omvi8LVQ3nXGsBTBt2B/RBmyWEbj0P5fmnIYYO5x01HtmNZNr6oa54V83WGWpMu5EyUSqU8gfDQn0xrzD8qC2rIyAbp0HAsgw2xQrThsyGEtdRXHwsSrsPN3RjDNGOBKj074cvDr4HdlMOC0mEuNymlH3t3gJ6ONmwuvw9qAyU4/f4vDWGdiuKLXSUwjVD7wQHGuESEpvsCnpqknVH/LSUwZ9dpruRHkbDVvTOmL/0pjIe2z6kRJR5H91U5hGOXE9WdYoSTggqE42/ULECUi1cdvR0GJR/ApNoom0waOiqAXgtaZsjgYPw2pbnoDKyG0xC8nU8cal1sFZMghUOhXfD65ufZmThDmrLsuFUkGFAThlcdexMCMpeJIkCJtKE5EEyG0gfkGyCot/qNbkfVIPahZSI4hOq50fA3+hpP33Aew1aaVYLYwouh1F9J/AKVLuTODSyEei6XdVb4Pfr58AW7yqwYAvvYN23Gxlo0G7xfgxPYR52VG9SQ1sG2SxUjSN7jYVzelyLntAR/MYH5PTQ0k2AiQbBf+n85Tefr4a0Ge0mygMrbjw/LPguo2PdiYI/Evb1BZYBcMHAq8AmoNfCboF/1H69MWJEEOCrg5/B01/dAwcju9hYCsW2lLu4uJZObiMoPzbs7iqi32JepsN/yz9WQ1uDAmawwqRjL4O+1uEQQouCbDS9iU7dUEQMQD1UL1659q12ucvtIsp7n71i8Sk1i2lPE4LeXgWlF47WwS/7Xwc9yA1uBWzjRBTouvI18PzWefSkP5Ir+chpOkATgDZwQVSU4fltc+DLH1raUUtravxvnr0QJg+4DqSoH4XBxrdZuH6g+SXsEcBTttLzwa1qYJvQLqKs9a+6NQDeMuJ/ir1WiwgrPjguewKcVHqGGtIaBNhYsQ5e2j6H9UJm0kBtRFwV6FontAudBQSTBV7Y8VvYfGitGt46hpWcAiPzLoCgYsRgIRVSAUmMQL3g/e3C929rs7vc5tp+fM3M3vWCey6togL6oBWtJ0ibKJIEk/pdgd6KCwNaN+T2uHfAn7c+hPnBlikSedte23E9TVxAxyGigSuLIryy/SHYi3ltHTJYkewT+08Gq2xvR2naDlngg5gB8BUEHL42G7ZtJkp1pOrBkOBnyxuZ26WLRuGioL9BmivJnQSDC4ayMF5zzUVF3zmB6iI18Oa2P0CdXImaJIMNLLUHcZUQF9Bx0CAaabk6uRpe3/o0uCNH1JhkjQzLgPk4Om8QnJR3PkQkTyycybvjbCY5saKKEnjkqhse+PevNYG3iDbV9qOrbz/Nq9RMaSxLfewTmhLn6ShSFEb3Pg+sIrUk/GEyaSoYOpONbKKgl+56G3b6VoEdDVd98qI/qEroYzM54Dvfl/DRzneR5kQSEnuiPHN5mNDKOR09Phm7LzbRikf0X59yUnoEdByEkMVndj/GvraCNhGlOlq5MIKJaqaXXqBii4qZzfIem3kaDCwYwiOSCITuTp+dRzbB0vLXwGHuwcK7KqiCmabDj82aCcsOvQTbq8htplIkLyOhf95AKHOdChG2/JKHanF6gbIWEOsnzV9545VqUFK0SpT7l93wP2glj2cbBOvC6Bj4zWXsdjxwctFZWPGaW0s/ie4lQEDywb+++wvIJswP9repIk7oetcCQhtdpaQFdACiaK/8+7s3wM+6FG30tin46DS62aITRvWciN1PPatQVfHqDtQq1DXOfXH14y16Ai1K+vX1z+V6oGaBoq5H1T+vlGYUsk2FUNbj+Iawpv+b4pvKL+Er3zKwoDpX1xqkhLgrDagILUn6TwSwC1mwpW4ZbK34mkckQiNGHF04BHJMxWzCkdtgiWWSKvhIE9s+Y/AeaXuLyyZbJMpOz7rfRAT/0VSdLJ86g/pj1u04ToRCV7EaSkgslKDsh0/2fYR2TAaYmE2beqbirjSgfHxiTwN9kcBsdsKafR9AMKpNAjZHrIPPc/aAwTmjISwHmXbSm81avdLTnN5oxZ1PrJqRdPAqKVHmL721tE6qvjUsUo0YIEUEGWchrPwhBaegW9j6gvG9NTthi3cFEoWWOHZMaHFX61sHCUGVYhFdsM27EvbWfqeGJocFf47LH8ZWz7FHc3UGr1WqBRqxjRRUykcWsqAESEoUtIefDJuChXxPdm2UUGdGY3I0itkP3cHWocDXFWshSl4AbUPRQfLGXW1MW2gKNtqKlYIF33j4UyxD62NFvXMHgEOk555RWDobKlRk+pDmow0YvXLtVb/98LpTWWQzJCTKkhXTJ9TLtb8iN1SkwhCbDegjZUWGAksfKHA27nZiaCyWunANbKpaBxnYz/9YQV4Qfchd/qbmC/BgmQgtVX+BswSK7QNBUiItnpcKiKbsvQPY+DhZQpaAyfsoj22KhEQpl/bOCQt+LBRZ5tgGjDBQEFG0T3pnDgSnzaWGNAW/KxfPIc8BOBzaBqJAC6o7LrK4FDqeZBuAJUKtImI3ezi0HQ7WaZsO0M0TZ8BhdkCpcwDKKmhIPTDNjHliOUDChAT/2AdW3XQtj40hjij3rbh+WsQUODNZxvWEhEQpcfZDx9GGd0t0v1jo/rrd6B+hsFT6/BhBOafKoKOwSCvi+LA+L1F8uaj0NGdU6uzLjH7jy84G4aA2UnHf85891mTVVxOiLF42O8crV83h7rAhO2I0gYwsKHAUsOPEximJhmIk2OfZBSb0dvRCnMiNrgMGrqHpJREWyIQD/j2o/mMDas0bpxZaRF0zdhGcZAaC2VCYOzF4zJ7AV9PVUIYmRPGZjkxHbXIMua3a0LpR4La2BXJseWpIfE1pOQhE/XDYvw/Mgk0N+XGClZkqA7sQi2CGI/6DrGwciUjAZZJjz8fzadyIfTUQVO8yRMUI+BX3zQ//Z0aD8dhAlNfXPpFTD97rqfWaMEMG84TBLFixD9aM03iiaFrGj8L0RKqxb09oUqWEuOKlobx0EzZvg0cCEqU2dAgCER+PYuWPlwHBbnHxJxQNziPpO/7YDXOXi2rEAw2PeDRI/kBg/4lBqC+lrJKvkyzT+oEmyzIgw4othX1LBJ6HUCSALc+LudKPKHGlM7q4zUAqvl6qRqIEG0KSwWq2srEjTjHjQBqP1uySK053UszCZB7TiCjuaNVJINPrY3lQRwe0WgNlhRYk20zairwE91ODaGIsCvR4qH61SUmnmRtNQLYXLXkMRbUXbiaSNw+ziBbseuzG2yhsrS7fKpXcZjSgBz2xagabeW0gCnabI9lr2/CYbxuRKOP6grl79AIFBrpf4nuSgNibJXSsWla+huTooOXyGiMN1BE0jqEeJ4MJu9yWnijQC2y2G/sTAj1jJUE0tzbiPpa+NxAF+8pcUodM7VD96VgpSYEEaHEzGTUL7BQ2hqBjdaHwtR2UeF0lKC+7Lz8MREJ4hn5dH4HuSJXDEX9/rQ5I29Dbv4wGLy51PfQNc4aC8Ua9zNVsKLkkB43PSSOQ6qUHniJyqCEkkbAI1JpoMY+eoJVnez27ICTT2IwmpObgIqEnFvfXfa/rVhV0LzO9bt/MNUUiEmrSiFLXy/KpL1FbBhoh2Jh65x41kr7F7txSyzYE2EfLfgiG+dYUiQaTtLkQMuZsYkbDdz1gQeNwq+dT2FO7Va2RRDoUQ/B3T+1O2OymycjEI8ipgMpiE3PAZtHGhpLLP4x2DG38k0hGxoHuFWs+DUSxChnppCvLBhmp/khLOy1ywThRmC5LLqpC/WZQudBN8P+2vwyH/fvV782ARh1tSvz2jpfRG+C+YMegkQEtJCxLprUQHObWyRdEry+kaOMt6YMiy1Betee/dNxQdrsls7YlVusP6p3D4Ikk3zVKq7oMFGahrSebGNMTVtEKewMb4NmN82FTxVrwRz1kwLEPuePfVP4Xntu4AHb714LFpOeqeFovGIZCewnYzXx4IFbaeHjCbnXr0uTn6A3mlYpmyLUVMqHHGolJ3BC3g5HBELGVVgf4DGpiklIYudE26JN5DMjYT+sLBaymTCgP74KnN0+HJWvvhpc3PQF/+vopeGLdLHhy0x2wL7gdu6k87Jn10CeUBn1kkKQg9HL0Q7JqtldyGlbVVyBFKD59RCEIgtmX48zfQ8cNpXdEs1aLcvuejekoiAAV9QdQbHypZTxIPDw/fXMGYtb0zRsfBBDAChlgNrmgPLQTPj/yNqypegv2BLehoelkC6rIZaQpjQ7fndJAT4+VFInXN4d2jOQUSJY2zbsdRBmZ2MNt+pa/NVjkjM13jn5oLx03EKWPY8Amu+DazzKdJuLSZnw/+HagmteGsZuDLAeexdLsPpBrPkq1U/QSGFU+T5+Gr2kuyY4GZoaYDRY8pnWq5JZyiuhhSpIxTg9sSJBlLkaPoh8PxvSTpR6U/FBe/z0qfLsuOWgN2s5P9HSESRbe5aGNiDJt9PR6h5j5Kgjqk/RpALm9h4O7oNpfrYY0RywjuY4CODZ3JLqqAbIxVXRccGQtaEf8fvyeWsoN/3XQZjTqSZ8QluGYrJFsR0sW3nCXeLixay737wCxoYsyDqxRspFZbMSytTIX8l9To2JEITilnk9ZpQy2bVB6fHYR6hUPHPB8r35vDl5x9NcKdji+x2iIolGnNBnN/TGBKIFaSvLBicWno9ZqfUOBH+r2gkc6iJdSmY0d6iKXnUbLRcUCGUL2c/dN+t8KNaopG+6duMidBQWPmLBa9ByzSAZ6PSvZKduOrMe7qfufNQG1NPpwQpQVDIN+thMhqiQ6t+uD7BNafFVqGQqDC1t/XyQNom+v+Qq7RAe2cApJrnn0gYjaOgoZiutg/8zjnlUDGeLUxhVn3fimHTLXUyYJVEW8HRiQSezjbIILdrjXo4pVux+aQlCJoQmG/1XYxr6nlV4AAakChW600IyAAH6pEkb3Oh9y7Mk2EiBG8PLXhWpga806vsTAAJAEtWFG7tXR2lk7uCwF824+9b5KFqEijihDTaeE881F91nBQfWIKdCEnGbQ6QsSiSiYoSqyB3ZWbWNhDXM/TW5HheEFOqXXGOhlHYGusjb0/+MB5bnEMhxO7XUWlibm0cWA3+lXtYdo88CK0HYQRFriHpOBfsD0tCSpnvGfDWwfLxj7/Ms8MIaEhsicsc+scEHe3yXWaukULJQBFi4TFqo6WuK4oeJT/iYKUn9J76dAnr0Izut3JXoD2s4APx74Mc/n9L0KjVh6+i+RlqZyk/oXsYuKwLqDq1W3WDtX3zogonJjXgQJiYI+HxRZShI+25OQKIQisdc8u+LyUFImmfbUaF4onUDdD6rWTbUrYa97NwtKpr0oLxRzSq+xcGLOZAjIHX4XQNpAI6vDs86DU/qMYd+TNzwefsizF752L2fjO3QqL3mya1IFklK2sCUctFewU8p69d6x/7tSjWyCpESZfuYju5yK6zGygqMiLWjSHyQsQSZrnhbxeGHdgZV4H255J6MlCc2Gwrt40PWQLZZgy6MuiMRoEJE7DNoQOAoOIRsuGXQdOE3ZGEajN/H5ZS2cNUgFZfExak03ahfu4RnjXNAyjyimjQYs5IT7uIYkfdF2UqIQ+ivDH7NJzm38GdoWT00JjRtVhikXPq98Dw7UfUeypSKoMTEw0ary7Z3VH6449naIRn1MeSZS5J0NtmGfILF96a48Zib0z9G2eE2cU6Y1MKrcuw/WHH4XbOZslBHJQZOF3iXkHb1ZtqL88xbfOmrOVjUiDi3W/q/PvjuUZSpcRKN0fBmecVVB62F9UAUr9r6HFR9l31vDKb3GwUV9Z0B9lLwg0nrx5OpMUMV7o4dhcu/fwMl9zsKQ1vJH48MSrNn/AbiVgzTXooYbBT7ubAXn9t71gx5SAxOi1VnANX/e8M24qSefEYJAf95PGgcapt7v3QwDsk6AImeJGpoc1B765R+NBkAGbHWvVNeLGEfm9oBISwQ+r+RWuKBsClgFG+dJK279zuot8Maux8FizjTOLlRByZsVC+SZe9016+yHWtiLo439SaGpZK5FtrPpZt5dUAH0LwTNXivYJ7//7WvgjdTywBa4yRb/CA64aPAU+EXvO2nrBgyLrRvhdgt9w2rDCjKG5o1FqPomigz+yEE4v+QOuKRsGthpp4Y2kCQoeeGD795ADwQ9QQPkGwNlBj+KCBlK1tIHxz33Jg9PjjYR5Z5xT6x1mQpeJxNMs9b5Ngz6ip5sIbPJATu9q2HVnn9h6lQYiklsyNEgEcXQfikXD5oKU/o9ABHJh+ZtiBODydo4M5cZ45gDoiCXDbq1Mr1lwwu/6v8ATD5uGntvMkOCTDSX3po9y2FT3TL1Pcz655pS5HLhK+3NijXskHLv5rEto01EIRRZetxvk21VNLZCwuGVoG9hSNz0Y7Pkw7/2vQBbj2yI5TDhpBzNcvLBQJo3mXTMJXDb0N+xXYrqo1UYr0348fP0Nne1rkEjTBC1YJapCG4Z+hicd8yl2N20NpejNQSAXdWb4Z29z4HdkoNp0bILI7wc1cDGH2pkmWL+iwvO+eM3alSLaNVG0bD0lU89Y6acEI4KoXOYVsEb6e9nUIrccaRZkd012+G4opHgQuHxymh6P6on+tAVvAUKUOLqDccXngxS0AR7vevZSnKBLYpueq0e4PdUIKgEICx74Yyiy2HqsBkwMG84xrTeBlmOsOEdCRyCFzY/gt0tvWvQguF8yEB/8EZOH4eSeSQnmP+rlW+ub9MayzYThTD7N/dt/CG855IIBAp5pSVq5amDC5emDFADoMBqI+VQ5amCoUUnsZc4Mq2CgiWwVsF+2BcMxiPKDl7rsubAkOKToF/miVBX74by0GakncyWNXBhqRcx8I6D041/5x8CS5B94mkqQ0jxQgTd88GuMTBl8CyYOOCXkG3NZ7Halc2hZpERnFL0SXXwt03PwnbfGiwjjbFwqMoqYRqpgqWF3aMJ1Uqm0mPug+e8kHBwLRHanY8Hlt/yi0rY94EihFlBuZCNggBeqRImFF4D/zPsZrW/51XABubwp7Ui0C6SOyq/hk8PLoct7o8hGHVjhbjY+g6RdaPa9Wo52OQYhrH5LVT/DZqTSkqviA0z7WGHHBiWfQaMKp3ENiqkdb2tgZOES4x4TWtr/v7NS7Ds0MvgNBey8IZ8GAAqB3XGmUretgvM5xw/bty1bV6E3LKUk+CelVd+WKdUTIoJ2RhohnN95BCcW3I7XELGIXoQXLFo4zot5IG2SccWRIgoQTjk2Y+k2Qyba9bCnvpt4FO9JAE1DU280V4k2rsRqTopDi0PkNFABaSG05wLfR0jYGjeCWyZQGlOf7RD+BJF+mmtu6H0KL90Hu138o8db8J7B56BTCQJ2Q50Bh+ZNQaUQ3pCKl/ue8GDE//4gRrcJqSUqwXLbhtSJfywIST4dH9nT1Ngz8iGmBV0N6vhnJ43wsVlV4PdRLtVtyXzvAJ55cTOpueJagJH2LYTld7DUOk7BDXBSvDLHv5AGhLMZLKyt3Ll2oqgOLM3FDqL2XuVc+2FeP/YPi2cym3TbjS8RQOJIdkH/9z+V3iv/BkkXxESFbUWM8pTrJA2gkiYqeS8tWTiW79Sg9qMlPM1d8XUP1RD+a28XVMyXGT6IpY9GrP0SodgXN5UuHTYtZBlKWC35H19MjQSPTvk7Z7Q+BoKlSACUQVJKXO3n+ZYzPihB+njNEVDsjEaJgaPb3yGJ+KGt7e+Aisr/wQu1CTMxWc7b7LsGQKerAw2xRnOk0tHzD/7eb6mox1olzHbGJf/evJ6b7RuWhRCTraIiP8aBiosPVrxnW8D7K/eB31yjoZsGz1GQTHUxdD/5qq/UY7YYeJ2T6HU8ZixC7Kg7UIf2ruF1sokJEFDEMUmiG8CJB31K/h7yLcXXtn8BKyveYdpEt7LcOq2lkqqkJHs1MjoCQuHnLXk4Umv/lWNahda7lRbwG1nzD+SaSp4mASs2RJGgxR3BrrKO3xfwu/Wz4IvD67EsChKmfieclEMBVFQFqOw8fAnmOfZsM37MdjNfFF1g2tjIPj2r2hhCa7D/bKGPMVD24+UNQph4YyFG74LbD8P3eWS1gw5PcCcVCSlSbSysYt1lR+Av16Bntml2EK74raiAtSEKuD9nX+BN3c/AgEhyLY5p3EM8qqMpwlBZpspZkH+XbPHPvmpGthudDivc5ZOG+8xH1keAVqdZjyom+MKjHc59VIN9LIMgXMHTGGvvM9ovL6UTkmaqRYjEyJ2ReNrE6dDBvNX5Z/D+3vegP2hr8Fl4psaEvigQvvunRqQkkIEspXCDVf2v2XUiH5npbwqXZfczlpx5d99UHkZiSyd4IYsqlYpChHJD2XZY2F8v8nMdaX5EvUs9T8dNbYoEldwi2i4RKto+qsF8rToRdc7jmyB5XvfgW/qVoDZ5GQPlnUWzIoVcqHX+IUT/q/Ng2uJ0E5JJcbiNbMGl0d2fR0Co93l5qDuTqssgDC24rASgqFZZ8KY0nNhUOFwNHhpu1Tew2o+CiFWwe0EXsbSwUu1lAjucBXsqtwCnx78EDbVfYjdo5PNbKd0D51AknHIuX96auLfp6lBKUO3Uty3/OqH3XD4vnQZtjHwItDCKrZNN5IirNQxDdMrYwSckH8GDCs6CUqzjwKnJRPP1seWIoe6PuJjq9E2V6yDr6vWwA/+rWAxWcAs4n3YlEKKZNQBRGa7nOntYx988swzHmnLCw1bhG6lePmLJYXb/Bs3e6CymITE+WKwkGh0Vh1y5xOVXJ+RsUitiR4UC8kesIAdetoHw7E5I+Do3IFQ6uoLWfY8cNhcbNaZPLeWwEZZlCj4w3XgCdTCIe8PsMv9DXyLn4PBLRCGINjEXOZe09n8GsoLP04rUA60wl9EEzZbKnzw0bNfm6/GdAi61uS85TdeXwPlL0bFALZudJtZaCcIqxmodUlImogcYP/RVYQ8c2/o4TgKcjMKIcdWAJnmXLCZ7GAycY0jS/RmsgD4InXgDlWzkdsK/z6ojuyFoOBBajnYTgc00Zje7rYl8JyQO5whuXYPzznt5GtPvkfbV6RD0LWEClJ51rLLV/lM1WNpIU+ntKgWQcUl2tDYQhQkOYz/I2wvOdIa9OGgfJNWNLMRWhp4M2ELJe1D80JkGzFDmuaSuhQoX9j5KhboAb2vfWD8/72qRnQYujeF+StuOK1SKV8dFSMWvnq/K4G3OMoWn4SjASn+n4ViWOMsa+fGQOShToVaLU+gKzUG6n4pd9lK/uolo/56lpDBZk51ge6jZPPHv/iFA3Jep4fGWMZRniRM+t/pYHLjC3coT42JzA7Jxmn0oUA6hz7c5oqBru8KJGkiVsyzVbJFcyFvjp4kIehOFEKOped8k2I7wvcD6QoMUYF54dVLRGABDR+ey9h3/ml8RGSJhXUF0Eta6MPpQmUQ6UGz1+aMf+5zdoKOMIQoc8c+uT9LKHiGPyFP2oRapyG3+pmDbyBA1GeLpSVLVaG5WBcvpzkMq73jMoY9bgHHNjZxSk1QX03YDQTpEROzmagbNUGBqfiZWeOe1F4rpisMI8pVo6cHkN0P0wNGzHDsSl3QTwbovWEDjKBoHUrm9iGmk9r0+vxUYGh/MG/cs2+45KyPsDyc/t3QHeTCWxQrFFpLHr503M18G3ADYLjhkCnkzzKDPcQNwW626AuUKco1E/JW3Dvm6dfVQENgOFHmTXh2c65Y+Cb6Gfitq/gLPxWgAYsOcaG95AE1wDAYThRCb0u/+TbFxTZp43qlmzCpQ9PKtCBbgBwx/8W7Rz/2mRpoGNJClJtOv3+/Q8l+mM3/sHLSbbu9oPaDFiLxIzJi7YqzItOfO4+HGIu0EIUwwXLuM1bFtZEPepHfT7futlnaC7bduiiDGRudVcmcO/v836dlM7u0EeWscZdHXELuPVaFXoatobsLag/4mhtsXLJITyp+dV6fS/6sRhmOtBGFsGjCiyvs4HrH6Hcq/1TB9+ZX2JvDHHL+PWMHXZS2nZnTShRCgal4rkPOxAJqU/rdaCt4Ry2CS3G9s2jis8vZ1zQh7US598zfbbfLGU8JivFv3fypgbSJRXHU58iFc9SgtCHtRCEMcB73uAMtdjJqu9F20KiJXXY8PufsZ3aqQWlDpxDlxtFzq3LEgnvpUQJOlW7vJxFiUuGeolPJ3jvYOeIZNTCt6BSiEO4/64VXs6DgBf5kLNIFDdxuujQFH0agIwk1iTPUQ+xz43WjZyd7uZGh6DSiEM4rufD2LOj5rghoryBXujuipmBNRxHBLGeGbNHMybPOenyZGpV2dCpRzii7LDy536+vyJbyf08LgtP/TFDXBWkTmh+jd+f0sPT55ZJz3/iPGtUp6DLafu5H117mhZpHw6K/P1+1xbukn0t3RE2EysqbikwvfgST5Hi9WOgz875JTzR5d05noEvVw2P/nJnpd7nn1il10wLgKZLZXraUSVrjisRhq6F/YlqnWXEs9MYc2fZ5NhQ+Om/iH99XgzsdXbLBPv/Jorzv/VsvUSzShXJUGRERA6Uhwce3AlXP+SmASkN7wFlku18QxJ2iInziEgvenX/W86sF2t+jC6HLy/21Vb/PPmTeXbarbmNGKOyRTWzl+U8DEnKhd9ZxYomt//7bXQt2C8d3G2nd+FED4P8DACKGNdr1A1wAAAAASUVORK5CYII=;" parent="1" vertex="1">
          <mxGeometry x="593" y="180.99999999999997" width="24.91" height="22.2" as="geometry" />
        </mxCell>
        <mxCell id="bg-zHMoBhlFVX-3hGMGY-9" value="Ingres portas 80 e 443" style="endArrow=classic;html=1;rounded=0;" parent="1" edge="1">
          <mxGeometry width="50" height="50" relative="1" as="geometry">
            <mxPoint x="437" y="30" as="sourcePoint" />
            <mxPoint x="437" y="100" as="targetPoint" />
          </mxGeometry>
        </mxCell>
        <mxCell id="bg-zHMoBhlFVX-3hGMGY-10" value="" style="endArrow=classic;html=1;rounded=0;exitX=0.005;exitY=0.63;exitDx=0;exitDy=0;exitPerimeter=0;" parent="1" source="bg-zHMoBhlFVX-3hGMGY-3" target="bg-zHMoBhlFVX-3hGMGY-2" edge="1">
          <mxGeometry width="50" height="50" relative="1" as="geometry">
            <mxPoint x="418.47" y="130.24" as="sourcePoint" />
            <mxPoint x="441" y="130" as="targetPoint" />
          </mxGeometry>
        </mxCell>
        <mxCell id="bg-zHMoBhlFVX-3hGMGY-11" value="" style="endArrow=classic;html=1;rounded=0;exitX=0.995;exitY=0.63;exitDx=0;exitDy=0;exitPerimeter=0;entryX=0.5;entryY=0;entryDx=0;entryDy=0;entryPerimeter=0;" parent="1" source="bg-zHMoBhlFVX-3hGMGY-3" target="bg-zHMoBhlFVX-3hGMGY-6" edge="1">
          <mxGeometry width="50" height="50" relative="1" as="geometry">
            <mxPoint x="407" y="140" as="sourcePoint" />
            <mxPoint x="264" y="217" as="targetPoint" />
          </mxGeometry>
        </mxCell>
        <mxCell id="bg-zHMoBhlFVX-3hGMGY-12" value="" style="image;aspect=fixed;html=1;points=[];align=center;fontSize=12;image=img/lib/azure2/databases/Azure_Database_PostgreSQL_Server.svg;" parent="1" vertex="1">
          <mxGeometry x="379" y="181" width="32.17" height="42.9" as="geometry" />
        </mxCell>
        <mxCell id="bg-zHMoBhlFVX-3hGMGY-13" value="" style="image;aspect=fixed;html=1;points=[];align=center;fontSize=12;image=img/lib/azure2/databases/Azure_Database_PostgreSQL_Server.svg;" parent="1" vertex="1">
          <mxGeometry x="468.37" y="178.05" width="32.17" height="42.9" as="geometry" />
        </mxCell>
        <mxCell id="wyomtA_MqoIqlpoY5obs-2" value="" style="shape=image;verticalLabelPosition=bottom;labelBackgroundColor=default;verticalAlign=top;aspect=fixed;imageAspect=0;image=https://brojonat.com/img/K8S-logo.png;" parent="1" vertex="1">
          <mxGeometry x="230" y="20" width="46.93" height="46.93" as="geometry" />
        </mxCell>
      </root>
    </mxGraphModel>
  </diagram>
  <diagram name="arq4" id="LN-R9uIREXan6ZrUXtbl">
    <mxGraphModel dx="880" dy="524" grid="1" gridSize="10" guides="1" tooltips="1" connect="1" arrows="1" fold="1" page="1" pageScale="1" pageWidth="827" pageHeight="1169" math="0" shadow="0">
      <root>
        <mxCell id="3PrFZPDsfoUqDwBEQ-ub-0" />
        <mxCell id="3PrFZPDsfoUqDwBEQ-ub-1" parent="3PrFZPDsfoUqDwBEQ-ub-0" />
        <mxCell id="3PrFZPDsfoUqDwBEQ-ub-2" value="&lt;br&gt;&amp;nbsp; &amp;nbsp; &amp;nbsp; &amp;nbsp; &amp;nbsp; &amp;nbsp; &amp;nbsp; &amp;nbsp; &amp;nbsp;Cluster Kubernetes" style="rounded=0;whiteSpace=wrap;html=1;fillColor=#ffff88;strokeColor=#36393d;align=left;verticalAlign=top;" parent="3PrFZPDsfoUqDwBEQ-ub-1" vertex="1">
          <mxGeometry x="218" y="10" width="622" height="470" as="geometry" />
        </mxCell>
        <mxCell id="3PrFZPDsfoUqDwBEQ-ub-3" value="" style="endArrow=classic;html=1;rounded=0;" parent="3PrFZPDsfoUqDwBEQ-ub-1" source="3PrFZPDsfoUqDwBEQ-ub-6" target="3PrFZPDsfoUqDwBEQ-ub-23" edge="1">
          <mxGeometry width="50" height="50" relative="1" as="geometry">
            <mxPoint x="609" y="251" as="sourcePoint" />
            <mxPoint x="381" y="199.5" as="targetPoint" />
          </mxGeometry>
        </mxCell>
        <mxCell id="3PrFZPDsfoUqDwBEQ-ub-5" style="edgeStyle=orthogonalEdgeStyle;rounded=0;orthogonalLoop=1;jettySize=auto;html=1;dashed=1;dashPattern=8 8;" parent="3PrFZPDsfoUqDwBEQ-ub-1" source="3PrFZPDsfoUqDwBEQ-ub-6" target="3PrFZPDsfoUqDwBEQ-ub-36" edge="1">
          <mxGeometry relative="1" as="geometry">
            <Array as="points">
              <mxPoint x="312" y="80" />
              <mxPoint x="600" y="80" />
            </Array>
          </mxGeometry>
        </mxCell>
        <mxCell id="3PrFZPDsfoUqDwBEQ-ub-6" value="Lancamentos" style="rounded=1;whiteSpace=wrap;html=1;verticalAlign=bottom;" parent="3PrFZPDsfoUqDwBEQ-ub-1" vertex="1">
          <mxGeometry x="270" y="183" width="83.91" height="40" as="geometry" />
        </mxCell>
        <mxCell id="3PrFZPDsfoUqDwBEQ-ub-7" value="" style="shape=image;verticalLabelPosition=bottom;labelBackgroundColor=default;verticalAlign=top;aspect=fixed;imageAspect=0;image=data:image/png,iVBORw0KGgoAAAANSUhEUgAAAIoAAAB7CAYAAACrSRjYAAAAAXNSR0IArs4c6QAAAARnQU1BAACxjwv8YQUAAAAJcEhZcwAADsMAAA7DAcdvqGQAACkcSURBVHhe7X0JYBRF1v/rnjMzk/sgJBwCKhA5RPECBRQQddUVj9VPUfBYb10BEWVBEfAAr139Vt3Pc9djD//qrrq7IpfgBbKggJyKXAZIyDGZmczd3f/3qrozSWYmx6R7EjW/ZJKequ7qqle/evVeVXW1AF0cL698MrvaeuC4XbVf2UORWsUEIihq3I8dUfz0yT5OLLH223ebMO974XSrzGO6HrokUZ5dMzd/j//7S2Rb9EI5Kh8viaHSIPgAFAkzLPxkiKIIAljADhY5wy8Kwk5RET/NVvLenTfxjx8LgtClitmliPL427OyfLk1c91K7bSQ4itUBAlJoTBy/JQIEg+tZAKYFSSOYvsiW8h9dP6EF99TIzodXYYov11x7WUe2b04KtT3kwUZTBhGJCGa/FxATUFBzpCmMcs2sCqON/KVohlzJ/2hUj2l09DptbBh+3vWt37462MesfZOSQizMAVpIgB2M6yh/XyIwqlCf6nMEjvCbml3rlx0/YJJL62mMzoLnVoLK3e+a11W/s7fPMrhi6JMd5ChillCjSJQ0/oZQkZtQpUiYvlRCigLCcniCDvD2ZMXn/fGv/lZ6Yeo/u8ULN33jz945KqLIiLa/ygg0iWkSUhIP1dQ2UVFRkngD1OpIkSEgDVk9r2zeM30ifys9KPTiLJw5Y3T/ELFDZIQQQViQQ0SU24/X5pwcLsMNQvKhLgi4nFYDNiqQodfeHHdY/n8rPSiU4jy3CcLimrkI4tDpgjr/ESyR9iows+dIk3Bmw7vjskD9InVfXfWbbyDBacZnUKUQ9EfFgTBW8R6Y5UbkmDqpklzoK2GVgsdMNtFxp+QUH/3gqW3D2LxaUTaifLI8rsGe6Sqa2XUqZpXQy2G/+1GEzS0HDzAX5JPWPQ7/WLNwzw8fUg7UWqVikVBwWPltj2BS4OTphtNEZMRHYmMLyL4BM/k+5fdMIHHpQdpJcpvl02dUC/WXSyLkmrRd6M9kIkt2B2FhSDUi+4ln+x918pjjEfaiLJm1buWoOJdIkEYtYcJmwYfXOpG2yGjShFRbuQFoSxHfPjtP6aqUYYjbURZGv3gzoBYP4I1CmQIdT2aYu1G2yCiSqHGRWZtVIiAH7wLl/zn7kIeayzSQpQnPppR6IOa2ZJA468auvVJauDzX6RXAoK3x0HTnplqhKFIC1EOwL6ZIdFX2K1DdAbaK5IYnLFoxe3D1BDDYDhRnvxi9mjJFL5bs9y7oR9oljkqhCxepfZxNcgwGE6Ucv+BByNQb6IbdbXOhqhL7iYb02G541RubmaT8U2V0uWAhi0tyagH98RHPp0+RQ01BIYS5d7/TL3AL7vHC0Cjrl3PJiFCcFKYIIoGYlCqAZ90GOqkSvDJbgyLYjyewWazu+AqRSI4kjiKnuSRQPl9r77+pEWN0R20PsgQvPLZ7zLKpe/eioh+1So37FYpg3QEESEk1UGOqQhOL74YxhVfASflnwPFtj5QG0DCRCrAJNJwBZ3dtfSiIpCjjPkSJYhAtNDn9Lo/fW3TF2q0rjBMn85ZMe3+Wjj0IE1mkYrk6FpahbIVjHpgTMGlcP7AK6DIUYqhmpKVoSpQDu/vegtWV74BdnM+c+u7YhnYiC1mzipnVh9jGXrCHWMX7lejdYMhzXzJ8pl9qpQDL0lC2EGC5zTpWgImhCUPjM77JVx1/O2QbW08HEE5FsBhyYayouHg9YVht28jWJhm6VrgOSXQLLPkiEqR3E9e2/xPFqQjDLFRKqF8flgMFfAisCU4PKILAR1LcIkFMAk1iV10NcojFzuBlg/ZRAdMOuZSyDEX0zCXGtO1wHOuoGEbhTqhZsr8VTeNYkE6QneiLFh+y6h6wXM1ibkrIyz7YFjuGOjp6q2GxOeXCQdrodjZG4bnnQkh2cvCuy6Yu2z2S+5HFEXRtW51TUyRFLFWqXoYW57ZIGWlGyQ5AkWuEjADOQq0OpXyG9MmDKptRZ1nsbMHu6YrgzQL5dgPvjGPfHynrvNAutbmvFXXXRMUA2NpQbARs8O83miFPvvW8Jdsfol1CxRD7qz6Xz0zEVhMQ6Pj58ehUbDVjNxvFfyedIkkRiEkhCGqhJhrzRaOq2lpd9VdRpg+3SOK9z0c2Xv3i/9alKHGdBi6EeW5VQtzfUrdXAVCzAo3gCeYZixRGigLoDEqyUHIEnuAU8iGoFSJXUo93l+jSPJMUEwT26m1/LZxwTeNuQSkGhAiAvQ09YeelmMw1Aw+qYp1bkRiog390EywniCZU5omzGvUFCr73rpzlhrVYejm9Yy4ps8DPqi9UEGfnrUsFIi+YiBgiqitZAU1iOyH8cVT4LJBt8I5/S6HMb3OhSE546A+GIZD9VtBNNlavH8Ery/LGQWDCrRpEkpbPUyAPe5t8HXNGrCKTjUkHkSlSDQIZ/a4Aq4afBdM7H8xnN57EozsMRacUADfu7/Ck5AmImpFPFlnnqjk58smqTuNKKGhv7hq4t8+fv2/deyEDkAXoixZPXtwtXToTxEhZCJ1Sn06CUFnOSBoHUYQXEIuXFd2P0w6+hIoyOgJGWYnZFgyoYerFIb3PAlCIYAdnrVgRo8lWR6iSJTBjYnSyhB9W4gSlurgsv4zYXLZVMjLKAKbKQOs+Mm25UNZ4XDo6yyD7dWbwStXYN7s6lX6gUrASsEG4hgcWA/5n7+29R/8a+rQpeupjdBiaZ+VD3XzLOrR9dDIIyXDBSCAX66DXtZBcNcJj8HIEjSFmvMcVW6GmAkXDroaBjpHY4sKqBHxiMteSvlVy4oXkxd1Qs4vYPyA8zBXZgxp3LFROzfB8OLT4K6Ri6G/fSQEI3UYRldqUKu2A+Cp0eImdOwxORm1bwjqr1m47Obx/IzU0WGizFs2bbxPcF+qiDGSpCTzhMBuBnNISwDr5Vooc42CO06YD0flDFRNhmZ3YlpBAZc5G04tnYTdi5uHGwm1fskjGll6OlgFB8sbt0I00BGvxt6Z/eGWE+fBMOom0W7RKqAxZVIFt8x4StRQyYAOmgLgNtUs2fD98g6NFnaIKKu+/Iu1XqhfHBSCyGJdlFMTCJgmpRuKVsMQ15lww/H3QpGzVwM/NJO1MRSVrKXO3tiGSb13vAKSAjUopU93MIsZ2PVh3iiY/Y2/LzfGZSiw94Rpx98NI3PORyO3htkU3APSN6+UO6JrQPGe8N73b17NQ1NDh2r3w9r3rw6A70Q0TNQyxldcx6BARHLDsY7T4drhMyHf3gND1IExFGwCmjSERZQwftNX8HGgxqFpUbxfROIP2bPmnOjeRAgUuYKEybUWwpThd8LQzIkQxoZAjUInS6AJyAuKQgR8gnfRi+sfTnnZZMo5e3rF/YVBMbBIFmgQCgXAvJ2OVQy1Kq2iqbsJo+FaaDkKpg6fgUZrD5Y8U+jst/G98Fj7yioJjc/ab9E70sZWjAeNl+yp2aV+I4omvi8LVQ3nXGsBTBt2B/RBmyWEbj0P5fmnIYYO5x01HtmNZNr6oa54V83WGWpMu5EyUSqU8gfDQn0xrzD8qC2rIyAbp0HAsgw2xQrThsyGEtdRXHwsSrsPN3RjDNGOBKj074cvDr4HdlMOC0mEuNymlH3t3gJ6ONmwuvw9qAyU4/f4vDWGdiuKLXSUwjVD7wQHGuESEpvsCnpqknVH/LSUwZ9dpruRHkbDVvTOmL/0pjIe2z6kRJR5H91U5hGOXE9WdYoSTggqE42/ULECUi1cdvR0GJR/ApNoom0waOiqAXgtaZsjgYPw2pbnoDKyG0xC8nU8cal1sFZMghUOhXfD65ufZmThDmrLsuFUkGFAThlcdexMCMpeJIkCJtKE5EEyG0gfkGyCot/qNbkfVIPahZSI4hOq50fA3+hpP33Aew1aaVYLYwouh1F9J/AKVLuTODSyEei6XdVb4Pfr58AW7yqwYAvvYN23Gxlo0G7xfgxPYR52VG9SQ1sG2SxUjSN7jYVzelyLntAR/MYH5PTQ0k2AiQbBf+n85Tefr4a0Ge0mygMrbjw/LPguo2PdiYI/Evb1BZYBcMHAq8AmoNfCboF/1H69MWJEEOCrg5/B01/dAwcju9hYCsW2lLu4uJZObiMoPzbs7iqi32JepsN/yz9WQ1uDAmawwqRjL4O+1uEQQouCbDS9iU7dUEQMQD1UL1659q12ucvtIsp7n71i8Sk1i2lPE4LeXgWlF47WwS/7Xwc9yA1uBWzjRBTouvI18PzWefSkP5Ir+chpOkATgDZwQVSU4fltc+DLH1raUUtravxvnr0QJg+4DqSoH4XBxrdZuH6g+SXsEcBTttLzwa1qYJvQLqKs9a+6NQDeMuJ/ir1WiwgrPjguewKcVHqGGtIaBNhYsQ5e2j6H9UJm0kBtRFwV6FontAudBQSTBV7Y8VvYfGitGt46hpWcAiPzLoCgYsRgIRVSAUmMQL3g/e3C929rs7vc5tp+fM3M3vWCey6togL6oBWtJ0ibKJIEk/pdgd6KCwNaN+T2uHfAn7c+hPnBlikSedte23E9TVxAxyGigSuLIryy/SHYi3ltHTJYkewT+08Gq2xvR2naDlngg5gB8BUEHL42G7ZtJkp1pOrBkOBnyxuZ26WLRuGioL9BmivJnQSDC4ayMF5zzUVF3zmB6iI18Oa2P0CdXImaJIMNLLUHcZUQF9Bx0CAaabk6uRpe3/o0uCNH1JhkjQzLgPk4Om8QnJR3PkQkTyycybvjbCY5saKKEnjkqhse+PevNYG3iDbV9qOrbz/Nq9RMaSxLfewTmhLn6ShSFEb3Pg+sIrUk/GEyaSoYOpONbKKgl+56G3b6VoEdDVd98qI/qEroYzM54Dvfl/DRzneR5kQSEnuiPHN5mNDKOR09Phm7LzbRikf0X59yUnoEdByEkMVndj/GvraCNhGlOlq5MIKJaqaXXqBii4qZzfIem3kaDCwYwiOSCITuTp+dRzbB0vLXwGHuwcK7KqiCmabDj82aCcsOvQTbq8htplIkLyOhf95AKHOdChG2/JKHanF6gbIWEOsnzV9545VqUFK0SpT7l93wP2glj2cbBOvC6Bj4zWXsdjxwctFZWPGaW0s/ie4lQEDywb+++wvIJswP9repIk7oetcCQhtdpaQFdACiaK/8+7s3wM+6FG30tin46DS62aITRvWciN1PPatQVfHqDtQq1DXOfXH14y16Ai1K+vX1z+V6oGaBoq5H1T+vlGYUsk2FUNbj+Iawpv+b4pvKL+Er3zKwoDpX1xqkhLgrDagILUn6TwSwC1mwpW4ZbK34mkckQiNGHF04BHJMxWzCkdtgiWWSKvhIE9s+Y/AeaXuLyyZbJMpOz7rfRAT/0VSdLJ86g/pj1u04ToRCV7EaSkgslKDsh0/2fYR2TAaYmE2beqbirjSgfHxiTwN9kcBsdsKafR9AMKpNAjZHrIPPc/aAwTmjISwHmXbSm81avdLTnN5oxZ1PrJqRdPAqKVHmL721tE6qvjUsUo0YIEUEGWchrPwhBaegW9j6gvG9NTthi3cFEoWWOHZMaHFX61sHCUGVYhFdsM27EvbWfqeGJocFf47LH8ZWz7FHc3UGr1WqBRqxjRRUykcWsqAESEoUtIefDJuChXxPdm2UUGdGY3I0itkP3cHWocDXFWshSl4AbUPRQfLGXW1MW2gKNtqKlYIF33j4UyxD62NFvXMHgEOk555RWDobKlRk+pDmow0YvXLtVb/98LpTWWQzJCTKkhXTJ9TLtb8iN1SkwhCbDegjZUWGAksfKHA27nZiaCyWunANbKpaBxnYz/9YQV4Qfchd/qbmC/BgmQgtVX+BswSK7QNBUiItnpcKiKbsvQPY+DhZQpaAyfsoj22KhEQpl/bOCQt+LBRZ5tgGjDBQEFG0T3pnDgSnzaWGNAW/KxfPIc8BOBzaBqJAC6o7LrK4FDqeZBuAJUKtImI3ezi0HQ7WaZsO0M0TZ8BhdkCpcwDKKmhIPTDNjHliOUDChAT/2AdW3XQtj40hjij3rbh+WsQUODNZxvWEhEQpcfZDx9GGd0t0v1jo/rrd6B+hsFT6/BhBOafKoKOwSCvi+LA+L1F8uaj0NGdU6uzLjH7jy84G4aA2UnHf85891mTVVxOiLF42O8crV83h7rAhO2I0gYwsKHAUsOPEximJhmIk2OfZBSb0dvRCnMiNrgMGrqHpJREWyIQD/j2o/mMDas0bpxZaRF0zdhGcZAaC2VCYOzF4zJ7AV9PVUIYmRPGZjkxHbXIMua3a0LpR4La2BXJseWpIfE1pOQhE/XDYvw/Mgk0N+XGClZkqA7sQi2CGI/6DrGwciUjAZZJjz8fzadyIfTUQVO8yRMUI+BX3zQ//Z0aD8dhAlNfXPpFTD97rqfWaMEMG84TBLFixD9aM03iiaFrGj8L0RKqxb09oUqWEuOKlobx0EzZvg0cCEqU2dAgCER+PYuWPlwHBbnHxJxQNziPpO/7YDXOXi2rEAw2PeDRI/kBg/4lBqC+lrJKvkyzT+oEmyzIgw4othX1LBJ6HUCSALc+LudKPKHGlM7q4zUAqvl6qRqIEG0KSwWq2srEjTjHjQBqP1uySK053UszCZB7TiCjuaNVJINPrY3lQRwe0WgNlhRYk20zairwE91ODaGIsCvR4qH61SUmnmRtNQLYXLXkMRbUXbiaSNw+ziBbseuzG2yhsrS7fKpXcZjSgBz2xagabeW0gCnabI9lr2/CYbxuRKOP6grl79AIFBrpf4nuSgNibJXSsWla+huTooOXyGiMN1BE0jqEeJ4MJu9yWnijQC2y2G/sTAj1jJUE0tzbiPpa+NxAF+8pcUodM7VD96VgpSYEEaHEzGTUL7BQ2hqBjdaHwtR2UeF0lKC+7Lz8MREJ4hn5dH4HuSJXDEX9/rQ5I29Dbv4wGLy51PfQNc4aC8Ua9zNVsKLkkB43PSSOQ6qUHniJyqCEkkbAI1JpoMY+eoJVnez27ICTT2IwmpObgIqEnFvfXfa/rVhV0LzO9bt/MNUUiEmrSiFLXy/KpL1FbBhoh2Jh65x41kr7F7txSyzYE2EfLfgiG+dYUiQaTtLkQMuZsYkbDdz1gQeNwq+dT2FO7Va2RRDoUQ/B3T+1O2OymycjEI8ipgMpiE3PAZtHGhpLLP4x2DG38k0hGxoHuFWs+DUSxChnppCvLBhmp/khLOy1ywThRmC5LLqpC/WZQudBN8P+2vwyH/fvV782ARh1tSvz2jpfRG+C+YMegkQEtJCxLprUQHObWyRdEry+kaOMt6YMiy1Betee/dNxQdrsls7YlVusP6p3D4Ikk3zVKq7oMFGahrSebGNMTVtEKewMb4NmN82FTxVrwRz1kwLEPuePfVP4Xntu4AHb714LFpOeqeFovGIZCewnYzXx4IFbaeHjCbnXr0uTn6A3mlYpmyLUVMqHHGolJ3BC3g5HBELGVVgf4DGpiklIYudE26JN5DMjYT+sLBaymTCgP74KnN0+HJWvvhpc3PQF/+vopeGLdLHhy0x2wL7gdu6k87Jn10CeUBn1kkKQg9HL0Q7JqtldyGlbVVyBFKD59RCEIgtmX48zfQ8cNpXdEs1aLcvuejekoiAAV9QdQbHypZTxIPDw/fXMGYtb0zRsfBBDAChlgNrmgPLQTPj/yNqypegv2BLehoelkC6rIZaQpjQ7fndJAT4+VFInXN4d2jOQUSJY2zbsdRBmZ2MNt+pa/NVjkjM13jn5oLx03EKWPY8Amu+DazzKdJuLSZnw/+HagmteGsZuDLAeexdLsPpBrPkq1U/QSGFU+T5+Gr2kuyY4GZoaYDRY8pnWq5JZyiuhhSpIxTg9sSJBlLkaPoh8PxvSTpR6U/FBe/z0qfLsuOWgN2s5P9HSESRbe5aGNiDJt9PR6h5j5Kgjqk/RpALm9h4O7oNpfrYY0RywjuY4CODZ3JLqqAbIxVXRccGQtaEf8fvyeWsoN/3XQZjTqSZ8QluGYrJFsR0sW3nCXeLixay737wCxoYsyDqxRspFZbMSytTIX8l9To2JEITilnk9ZpQy2bVB6fHYR6hUPHPB8r35vDl5x9NcKdji+x2iIolGnNBnN/TGBKIFaSvLBicWno9ZqfUOBH+r2gkc6iJdSmY0d6iKXnUbLRcUCGUL2c/dN+t8KNaopG+6duMidBQWPmLBa9ByzSAZ6PSvZKduOrMe7qfufNQG1NPpwQpQVDIN+thMhqiQ6t+uD7BNafFVqGQqDC1t/XyQNom+v+Qq7RAe2cApJrnn0gYjaOgoZiutg/8zjnlUDGeLUxhVn3fimHTLXUyYJVEW8HRiQSezjbIILdrjXo4pVux+aQlCJoQmG/1XYxr6nlV4AAakChW600IyAAH6pEkb3Oh9y7Mk2EiBG8PLXhWpga806vsTAAJAEtWFG7tXR2lk7uCwF824+9b5KFqEijihDTaeE881F91nBQfWIKdCEnGbQ6QsSiSiYoSqyB3ZWbWNhDXM/TW5HheEFOqXXGOhlHYGusjb0/+MB5bnEMhxO7XUWlibm0cWA3+lXtYdo88CK0HYQRFriHpOBfsD0tCSpnvGfDWwfLxj7/Ms8MIaEhsicsc+scEHe3yXWaukULJQBFi4TFqo6WuK4oeJT/iYKUn9J76dAnr0Izut3JXoD2s4APx74Mc/n9L0KjVh6+i+RlqZyk/oXsYuKwLqDq1W3WDtX3zogonJjXgQJiYI+HxRZShI+25OQKIQisdc8u+LyUFImmfbUaF4onUDdD6rWTbUrYa97NwtKpr0oLxRzSq+xcGLOZAjIHX4XQNpAI6vDs86DU/qMYd+TNzwefsizF752L2fjO3QqL3mya1IFklK2sCUctFewU8p69d6x/7tSjWyCpESZfuYju5yK6zGygqMiLWjSHyQsQSZrnhbxeGHdgZV4H255J6MlCc2Gwrt40PWQLZZgy6MuiMRoEJE7DNoQOAoOIRsuGXQdOE3ZGEajN/H5ZS2cNUgFZfExak03ahfu4RnjXNAyjyimjQYs5IT7uIYkfdF2UqIQ+ivDH7NJzm38GdoWT00JjRtVhikXPq98Dw7UfUeypSKoMTEw0ary7Z3VH6449naIRn1MeSZS5J0NtmGfILF96a48Zib0z9G2eE2cU6Y1MKrcuw/WHH4XbOZslBHJQZOF3iXkHb1ZtqL88xbfOmrOVjUiDi3W/q/PvjuUZSpcRKN0fBmecVVB62F9UAUr9r6HFR9l31vDKb3GwUV9Z0B9lLwg0nrx5OpMUMV7o4dhcu/fwMl9zsKQ1vJH48MSrNn/AbiVgzTXooYbBT7ubAXn9t71gx5SAxOi1VnANX/e8M24qSefEYJAf95PGgcapt7v3QwDsk6AImeJGpoc1B765R+NBkAGbHWvVNeLGEfm9oBISwQ+r+RWuKBsClgFG+dJK279zuot8Maux8FizjTOLlRByZsVC+SZe9016+yHWtiLo439SaGpZK5FtrPpZt5dUAH0LwTNXivYJ7//7WvgjdTywBa4yRb/CA64aPAU+EXvO2nrBgyLrRvhdgt9w2rDCjKG5o1FqPomigz+yEE4v+QOuKRsGthpp4Y2kCQoeeGD795ADwQ9QQPkGwNlBj+KCBlK1tIHxz33Jg9PjjYR5Z5xT6x1mQpeJxNMs9b5Ngz6ip5sIbPJATu9q2HVnn9h6lQYiklsyNEgEcXQfikXD5oKU/o9ABHJh+ZtiBODydo4M5cZ45gDoiCXDbq1Mr1lwwu/6v8ATD5uGntvMkOCTDSX3po9y2FT3TL1Pcz655pS5HLhK+3NijXskHLv5rEto01EIRRZetxvk21VNLZCwuGVoG9hSNz0Y7Pkw7/2vQBbj2yI5TDhpBzNcvLBQJo3mXTMJXDb0N+xXYrqo1UYr0348fP0Nne1rkEjTBC1YJapCG4Z+hicd8yl2N20NpejNQSAXdWb4Z29z4HdkoNp0bILI7wc1cDGH2pkmWL+iwvO+eM3alSLaNVG0bD0lU89Y6acEI4KoXOYVsEb6e9nUIrccaRZkd012+G4opHgQuHxymh6P6on+tAVvAUKUOLqDccXngxS0AR7vevZSnKBLYpueq0e4PdUIKgEICx74Yyiy2HqsBkwMG84xrTeBlmOsOEdCRyCFzY/gt0tvWvQguF8yEB/8EZOH4eSeSQnmP+rlW+ub9MayzYThTD7N/dt/CG855IIBAp5pSVq5amDC5emDFADoMBqI+VQ5amCoUUnsZc4Mq2CgiWwVsF+2BcMxiPKDl7rsubAkOKToF/miVBX74by0GakncyWNXBhqRcx8I6D041/5x8CS5B94mkqQ0jxQgTd88GuMTBl8CyYOOCXkG3NZ7Halc2hZpERnFL0SXXwt03PwnbfGiwjjbFwqMoqYRqpgqWF3aMJ1Uqm0mPug+e8kHBwLRHanY8Hlt/yi0rY94EihFlBuZCNggBeqRImFF4D/zPsZrW/51XABubwp7Ui0C6SOyq/hk8PLoct7o8hGHVjhbjY+g6RdaPa9Wo52OQYhrH5LVT/DZqTSkqviA0z7WGHHBiWfQaMKp3ENiqkdb2tgZOES4x4TWtr/v7NS7Ds0MvgNBey8IZ8GAAqB3XGmUretgvM5xw/bty1bV6E3LKUk+CelVd+WKdUTIoJ2RhohnN95BCcW3I7XELGIXoQXLFo4zot5IG2SccWRIgoQTjk2Y+k2Qyba9bCnvpt4FO9JAE1DU280V4k2rsRqTopDi0PkNFABaSG05wLfR0jYGjeCWyZQGlOf7RD+BJF+mmtu6H0KL90Hu138o8db8J7B56BTCQJ2Q50Bh+ZNQaUQ3pCKl/ue8GDE//4gRrcJqSUqwXLbhtSJfywIST4dH9nT1Ngz8iGmBV0N6vhnJ43wsVlV4PdRLtVtyXzvAJ55cTOpueJagJH2LYTld7DUOk7BDXBSvDLHv5AGhLMZLKyt3Ll2oqgOLM3FDqL2XuVc+2FeP/YPi2cym3TbjS8RQOJIdkH/9z+V3iv/BkkXxESFbUWM8pTrJA2gkiYqeS8tWTiW79Sg9qMlPM1d8XUP1RD+a28XVMyXGT6IpY9GrP0SodgXN5UuHTYtZBlKWC35H19MjQSPTvk7Z7Q+BoKlSACUQVJKXO3n+ZYzPihB+njNEVDsjEaJgaPb3yGJ+KGt7e+Aisr/wQu1CTMxWc7b7LsGQKerAw2xRnOk0tHzD/7eb6mox1olzHbGJf/evJ6b7RuWhRCTraIiP8aBiosPVrxnW8D7K/eB31yjoZsGz1GQTHUxdD/5qq/UY7YYeJ2T6HU8ZixC7Kg7UIf2ruF1sokJEFDEMUmiG8CJB31K/h7yLcXXtn8BKyveYdpEt7LcOq2lkqqkJHs1MjoCQuHnLXk4Umv/lWNahda7lRbwG1nzD+SaSp4mASs2RJGgxR3BrrKO3xfwu/Wz4IvD67EsChKmfieclEMBVFQFqOw8fAnmOfZsM37MdjNfFF1g2tjIPj2r2hhCa7D/bKGPMVD24+UNQph4YyFG74LbD8P3eWS1gw5PcCcVCSlSbSysYt1lR+Av16Bntml2EK74raiAtSEKuD9nX+BN3c/AgEhyLY5p3EM8qqMpwlBZpspZkH+XbPHPvmpGthudDivc5ZOG+8xH1keAVqdZjyom+MKjHc59VIN9LIMgXMHTGGvvM9ovL6UTkmaqRYjEyJ2ReNrE6dDBvNX5Z/D+3vegP2hr8Fl4psaEvigQvvunRqQkkIEspXCDVf2v2XUiH5npbwqXZfczlpx5d99UHkZiSyd4IYsqlYpChHJD2XZY2F8v8nMdaX5EvUs9T8dNbYoEldwi2i4RKto+qsF8rToRdc7jmyB5XvfgW/qVoDZ5GQPlnUWzIoVcqHX+IUT/q/Ng2uJ0E5JJcbiNbMGl0d2fR0Co93l5qDuTqssgDC24rASgqFZZ8KY0nNhUOFwNHhpu1Tew2o+CiFWwe0EXsbSwUu1lAjucBXsqtwCnx78EDbVfYjdo5PNbKd0D51AknHIuX96auLfp6lBKUO3Uty3/OqH3XD4vnQZtjHwItDCKrZNN5IirNQxDdMrYwSckH8GDCs6CUqzjwKnJRPP1seWIoe6PuJjq9E2V6yDr6vWwA/+rWAxWcAs4n3YlEKKZNQBRGa7nOntYx988swzHmnLCw1bhG6lePmLJYXb/Bs3e6CymITE+WKwkGh0Vh1y5xOVXJ+RsUitiR4UC8kesIAdetoHw7E5I+Do3IFQ6uoLWfY8cNhcbNaZPLeWwEZZlCj4w3XgCdTCIe8PsMv9DXyLn4PBLRCGINjEXOZe09n8GsoLP04rUA60wl9EEzZbKnzw0bNfm6/GdAi61uS85TdeXwPlL0bFALZudJtZaCcIqxmodUlImogcYP/RVYQ8c2/o4TgKcjMKIcdWAJnmXLCZ7GAycY0jS/RmsgD4InXgDlWzkdsK/z6ojuyFoOBBajnYTgc00Zje7rYl8JyQO5whuXYPzznt5GtPvkfbV6RD0LWEClJ51rLLV/lM1WNpIU+ntKgWQcUl2tDYQhQkOYz/I2wvOdIa9OGgfJNWNLMRWhp4M2ELJe1D80JkGzFDmuaSuhQoX9j5KhboAb2vfWD8/72qRnQYujeF+StuOK1SKV8dFSMWvnq/K4G3OMoWn4SjASn+n4ViWOMsa+fGQOShToVaLU+gKzUG6n4pd9lK/uolo/56lpDBZk51ge6jZPPHv/iFA3Jep4fGWMZRniRM+t/pYHLjC3coT42JzA7Jxmn0oUA6hz7c5oqBru8KJGkiVsyzVbJFcyFvjp4kIehOFEKOped8k2I7wvcD6QoMUYF54dVLRGABDR+ey9h3/ml8RGSJhXUF0Eta6MPpQmUQ6UGz1+aMf+5zdoKOMIQoc8c+uT9LKHiGPyFP2oRapyG3+pmDbyBA1GeLpSVLVaG5WBcvpzkMq73jMoY9bgHHNjZxSk1QX03YDQTpEROzmagbNUGBqfiZWeOe1F4rpisMI8pVo6cHkN0P0wNGzHDsSl3QTwbovWEDjKBoHUrm9iGmk9r0+vxUYGh/MG/cs2+45KyPsDyc/t3QHeTCWxQrFFpLHr503M18G3ADYLjhkCnkzzKDPcQNwW626AuUKco1E/JW3Dvm6dfVQENgOFHmTXh2c65Y+Cb6Gfitq/gLPxWgAYsOcaG95AE1wDAYThRCb0u/+TbFxTZp43qlmzCpQ9PKtCBbgBwx/8W7Rz/2mRpoGNJClJtOv3+/Q8l+mM3/sHLSbbu9oPaDFiLxIzJi7YqzItOfO4+HGIu0EIUwwXLuM1bFtZEPepHfT7futlnaC7bduiiDGRudVcmcO/v836dlM7u0EeWscZdHXELuPVaFXoatobsLag/4mhtsXLJITyp+dV6fS/6sRhmOtBGFsGjCiyvs4HrH6Hcq/1TB9+ZX2JvDHHL+PWMHXZS2nZnTShRCgal4rkPOxAJqU/rdaCt4Ry2CS3G9s2jis8vZ1zQh7US598zfbbfLGU8JivFv3fypgbSJRXHU58iFc9SgtCHtRCEMcB73uAMtdjJqu9F20KiJXXY8PufsZ3aqQWlDpxDlxtFzq3LEgnvpUQJOlW7vJxFiUuGeolPJ3jvYOeIZNTCt6BSiEO4/64VXs6DgBf5kLNIFDdxuujQFH0agIwk1iTPUQ+xz43WjZyd7uZGh6DSiEM4rufD2LOj5rghoryBXujuipmBNRxHBLGeGbNHMybPOenyZGpV2dCpRzii7LDy536+vyJbyf08LgtP/TFDXBWkTmh+jd+f0sPT55ZJz3/iPGtUp6DLafu5H117mhZpHw6K/P1+1xbukn0t3RE2EysqbikwvfgST5Hi9WOgz875JTzR5d05noEvVw2P/nJnpd7nn1il10wLgKZLZXraUSVrjisRhq6F/YlqnWXEs9MYc2fZ5NhQ+Om/iH99XgzsdXbLBPv/Jorzv/VsvUSzShXJUGRERA6Uhwce3AlXP+SmASkN7wFlku18QxJ2iInziEgvenX/W86sF2t+jC6HLy/21Vb/PPmTeXbarbmNGKOyRTWzl+U8DEnKhd9ZxYomt//7bXQt2C8d3G2nd+FED4P8DACKGNdr1A1wAAAAASUVORK5CYII=;" parent="3PrFZPDsfoUqDwBEQ-ub-1" vertex="1">
          <mxGeometry x="329" y="182.5" width="24.91" height="22.2" as="geometry" />
        </mxCell>
        <mxCell id="3PrFZPDsfoUqDwBEQ-ub-14" value="kafka&lt;br&gt;Connector" style="endArrow=classic;html=1;rounded=0;labelBackgroundColor=none;" parent="3PrFZPDsfoUqDwBEQ-ub-1" source="3PrFZPDsfoUqDwBEQ-ub-32" target="QXKRnF0jpZJd9bjVKJsu-0" edge="1">
          <mxGeometry width="50" height="50" relative="1" as="geometry">
            <mxPoint x="615.9100000000001" y="401.0541786019397" as="sourcePoint" />
            <mxPoint x="687" y="272.5" as="targetPoint" />
          </mxGeometry>
        </mxCell>
        <mxCell id="3PrFZPDsfoUqDwBEQ-ub-15" value="" style="sketch=0;html=1;dashed=0;whitespace=wrap;fillColor=#2875E2;strokeColor=#ffffff;points=[[0.005,0.63,0],[0.1,0.2,0],[0.9,0.2,0],[0.5,0,0],[0.995,0.63,0],[0.72,0.99,0],[0.5,1,0],[0.28,0.99,0]];verticalLabelPosition=bottom;align=center;verticalAlign=top;shape=mxgraph.kubernetes.icon;prIcon=api" parent="3PrFZPDsfoUqDwBEQ-ub-1" vertex="1">
          <mxGeometry x="294.92999999999995" y="165.7" width="33.05" height="30" as="geometry" />
        </mxCell>
        <mxCell id="3PrFZPDsfoUqDwBEQ-ub-16" value="NGINX" style="sketch=0;html=1;dashed=0;whitespace=wrap;fillColor=#2875E2;strokeColor=#ffffff;verticalLabelPosition=bottom;align=center;verticalAlign=top;shape=ellipse;prIcon=ing;perimeter=ellipsePerimeter;whiteSpace=wrap;" parent="3PrFZPDsfoUqDwBEQ-ub-1" vertex="1">
          <mxGeometry x="414.22" y="99.99999999999997" width="50" height="48" as="geometry" />
        </mxCell>
        <mxCell id="3PrFZPDsfoUqDwBEQ-ub-20" value="Ingres portas 80 e 443" style="endArrow=classic;html=1;rounded=0;labelBackgroundColor=none;" parent="3PrFZPDsfoUqDwBEQ-ub-1" edge="1">
          <mxGeometry width="50" height="50" relative="1" as="geometry">
            <mxPoint x="437" y="30" as="sourcePoint" />
            <mxPoint x="437" y="100" as="targetPoint" />
          </mxGeometry>
        </mxCell>
        <mxCell id="3PrFZPDsfoUqDwBEQ-ub-21" value="" style="endArrow=classic;html=1;rounded=0;exitX=0.005;exitY=0.63;exitDx=0;exitDy=0;exitPerimeter=0;" parent="3PrFZPDsfoUqDwBEQ-ub-1" source="3PrFZPDsfoUqDwBEQ-ub-16" target="3PrFZPDsfoUqDwBEQ-ub-15" edge="1">
          <mxGeometry width="50" height="50" relative="1" as="geometry">
            <mxPoint x="418.47" y="130.24" as="sourcePoint" />
            <mxPoint x="441" y="130" as="targetPoint" />
          </mxGeometry>
        </mxCell>
        <mxCell id="3PrFZPDsfoUqDwBEQ-ub-23" value="" style="image;aspect=fixed;html=1;points=[];align=center;fontSize=12;image=img/lib/azure2/databases/Azure_Database_PostgreSQL_Server.svg;" parent="3PrFZPDsfoUqDwBEQ-ub-1" vertex="1">
          <mxGeometry x="379" y="181" width="32.17" height="42.9" as="geometry" />
        </mxCell>
        <mxCell id="3PrFZPDsfoUqDwBEQ-ub-25" value="" style="shape=image;verticalLabelPosition=bottom;labelBackgroundColor=default;verticalAlign=top;aspect=fixed;imageAspect=0;image=https://brojonat.com/img/K8S-logo.png;" parent="3PrFZPDsfoUqDwBEQ-ub-1" vertex="1">
          <mxGeometry x="230" y="20" width="46.93" height="46.93" as="geometry" />
        </mxCell>
        <mxCell id="3PrFZPDsfoUqDwBEQ-ub-29" value="" style="endArrow=classic;html=1;rounded=0;labelBackgroundColor=none;" parent="3PrFZPDsfoUqDwBEQ-ub-1" source="76A-MhQWAJ-8z7elBmuN-1" target="3PrFZPDsfoUqDwBEQ-ub-23" edge="1">
          <mxGeometry width="50" height="50" relative="1" as="geometry">
            <mxPoint x="560" y="460" as="sourcePoint" />
            <mxPoint x="349" y="339" as="targetPoint" />
          </mxGeometry>
        </mxCell>
        <mxCell id="3PrFZPDsfoUqDwBEQ-ub-31" value="" style="sketch=0;html=1;dashed=0;whitespace=wrap;fillColor=#2875E2;strokeColor=#ffffff;points=[[0.005,0.63,0],[0.1,0.2,0],[0.9,0.2,0],[0.5,0,0],[0.995,0.63,0],[0.72,0.99,0],[0.5,1,0],[0.28,0.99,0]];verticalLabelPosition=bottom;align=center;verticalAlign=top;shape=mxgraph.kubernetes.icon;prIcon=pod" parent="3PrFZPDsfoUqDwBEQ-ub-1" vertex="1">
          <mxGeometry x="276.93" y="377.66" width="30" height="40" as="geometry" />
        </mxCell>
        <mxCell id="3PrFZPDsfoUqDwBEQ-ub-32" value="" style="shape=image;verticalLabelPosition=bottom;labelBackgroundColor=default;verticalAlign=top;aspect=fixed;imageAspect=0;image=https://upload.wikimedia.org/wikipedia/commons/thumb/0/0a/Apache_kafka-icon.svg/1200px-Apache_kafka-icon.svg.png;" parent="3PrFZPDsfoUqDwBEQ-ub-1" vertex="1">
          <mxGeometry x="284.95" y="370.65999999999997" width="54" height="54" as="geometry" />
        </mxCell>
        <mxCell id="3PrFZPDsfoUqDwBEQ-ub-33" value="" style="endArrow=classic;html=1;rounded=0;" parent="3PrFZPDsfoUqDwBEQ-ub-1" source="3PrFZPDsfoUqDwBEQ-ub-16" target="3PrFZPDsfoUqDwBEQ-ub-36" edge="1">
          <mxGeometry width="50" height="50" relative="1" as="geometry">
            <mxPoint x="474" y="140" as="sourcePoint" />
            <mxPoint x="577" y="177" as="targetPoint" />
          </mxGeometry>
        </mxCell>
        <mxCell id="3PrFZPDsfoUqDwBEQ-ub-34" value="" style="points=[[0,0.5,0],[0.24,0,0],[0.5,0.28,0],[0.995,0.475,0],[0.5,0.72,0],[0.24,1,0]];verticalLabelPosition=bottom;sketch=0;html=1;verticalAlign=top;aspect=fixed;align=center;pointerEvents=1;shape=mxgraph.cisco19.key;fillColor=#005073;strokeColor=none;" parent="3PrFZPDsfoUqDwBEQ-ub-1" vertex="1">
          <mxGeometry x="562" y="113.5" width="20" height="9" as="geometry" />
        </mxCell>
        <mxCell id="3PrFZPDsfoUqDwBEQ-ub-35" value="" style="sketch=0;html=1;dashed=0;whitespace=wrap;fillColor=#2875E2;strokeColor=#ffffff;points=[[0.005,0.63,0],[0.1,0.2,0],[0.9,0.2,0],[0.5,0,0],[0.995,0.63,0],[0.72,0.99,0],[0.5,1,0],[0.28,0.99,0]];verticalLabelPosition=bottom;align=center;verticalAlign=top;shape=mxgraph.kubernetes.icon;prIcon=pod" parent="3PrFZPDsfoUqDwBEQ-ub-1" vertex="1">
          <mxGeometry x="612" y="82.5" width="30" height="40" as="geometry" />
        </mxCell>
        <mxCell id="3PrFZPDsfoUqDwBEQ-ub-36" value="" style="shape=image;verticalLabelPosition=bottom;labelBackgroundColor=default;verticalAlign=top;aspect=fixed;imageAspect=0;image=data:image/png,iVBORw0KGgoAAAANSUhEUgAAAHEAAABxCAYAAADifkzQAAAAAXNSR0IArs4c6QAAAARnQU1BAACxjwv8YQUAAAAJcEhZcwAADsMAAA7DAcdvqGQAAB0wSURBVHhe7V0JlFTVmf5rX3vfaWiWZl/E0GBsFQ1xZU4gDpIIaGQyI8lkG04yJmqSk4QMM9EQNcmZnJOROeOJBo4IE1FwQ4FRZJUD2LRAg90CTS90000v1bUv8/2v3iPVVe/V8qqqjVDf8cl7t967y//df7vvVhflkEMOOeSQQw455JBDDjnkkEMOOeTwNwaN+O+IorGxceKGDRuWnjhxwmc0GsXSzy58Ph+NHz/e8OCDD75eV1fXIBaPGD4VEteuXfvskSNHVnm9XtJoPpUuZAX33Xdf48qVK2djTEGxaESgFf8dMRw4cGB5d3f3KofDcVUR6Pf7affu3TM3bdr0FbFoxDDiJGKgj548eZJMJpNYcnVAr9fThQsXqKWl5algMFgrFo8IRpTEnTt3PnH48OHZBoNBLLm6YDabqaGhoXr79u2PiEUjghEjEeZz0qFDh1b39/eTVjviBmBEwOPq7e2l999//6Hjx49PEouzDp34b9YxefLktTCl9ewHryZfGA2dTkc9PT0GBG3mt99+e5tYnFWMiEqAvFn79+9f6XQ6r2oCGTw+t9tNnZ2dq44dO7ZCLM4qsk5iKBTStrW1bTx79qz1avWF0eCgDeaUdu3a9SOMP+vWLusNzJ8/f9nrr7/+rYGBAcHUXCsQ/WPl5cuXT27btq1RLM4Ksq6Je/bsefTcuXN0rWihBCYR+TDBAv16aGgoqylHVkl84403/gMh92zOoa5F8JJic3PzGGhiVlOOrJF4/vz5SR988MH3MQuv2pQiEXjcMKe0b9++h2CRspZyZM1J1dbW/jvypRt5IFd7RBoPHAf09fUZEJmb3n333e1icUaRFRXZunXrzCNHjjyU7gK3JhQkTTCgeBA+zwi4Pj/6qnCQ38dhtnhz6mA5gMhvHDhwICspR8ZVhEPq55577timTZtmpvuayWspIGXRaUjvc5Le66SQNg2fG/BRML+UQvYi+UnBkzAQIF3XOZxjzquclB6PhxYsWPDhY489VoeJjRmYOWScxJdffnnFK6+8sqGrq0t1SqHxe6h74k10ZPQ00gfltS0IekvLq2jmni1kuHiGQvrUF9Q1INBXUEUXlq4mU0mxoPlyCGl1ZD9+gPL+8jsiG8hWgSDGkZeXR/X19ctXr179olicEWTcnMKJP9rR0aGeQJg2LwR7YtRk8kB4Q4hsYw74WVd+EbXWTKX2GxcRQSNVwTNIF29ZSscLKsmj0VHIYqOg2Rp7mCzkmHUj+SffSBqfW3w4NUhBDgK+Jzs7OzOacmSUxI0bN649derUdenkhJqgj9prZlO/AZrFmsG+KOowwX6YKmtwHqSGsdNpaPoXSeNxiDUkBw3MsHvSTXRi3HSYSz9ddPthNdnPxrbHEysAMgdvXUQh9o8qwXIBiTVIvX4oFmUEGSPx+PHjk3E8kk4ww+bNWTaRmkpHC8GGLGCWdCUVFLQXCOchvYFa5y1EGAi/yEJPFqi/9cbF5Daahee6gloaAJFKPdfiftfYKeSddw9pXANiaWpguQwODtLBgwe/tmPHjhlicdrIGInbt2///kcffWRKRwvZ95wbO1swo7KAsLUwp96yarqiD9Ci0xVj6XLdItK4+8XC+NC4+mhg7mI6OWqC8Hy4kOiSNwBuFSYP2g5hogzW3wOzm49rdZExy6elpcXa3d39YqbWVTNC4vr166dDC1fyFgW1WqiFr+mrnkmnC8oUtVBIOUqrKAAfFa11LdcvIH9+JUyfSIoS2DTmlVPLnNtxMbyv/RBHvxdtiNfRYLPqLh9NrvlLSDPUJ5amDo4XeCvHO++8s0wsSgtpzwSeTbt27dq5Z8+eao7A+DVMKofH4yWve4g0ecV0atqtNKhjTZYxiyDNYrGSZkwt+aM1FZ8NWuyUZ7SR9tA2cgV15EVIz2F95OHGEbjcTpfueJhO1V4XO1nAXn8gRIU6DRl0CvMbk9RfXE7G08dp6OIF8vj8Qh6YysGTvb29nXfJTdy7d+/6NWvWpOAHYqFObSLAG5+am5s3MiFqtJDXVY16Hb3V7qbngjBTCpmhEeX6cVPJWVgq+MIYoO3PBTz07Z6DZKGAbC3cO3hs+p+iG+h9gw1NyZvEKsyRahu3KA8X8sX6Cyfoi0PNFECOypNXDaAAwblz5zYVFxeH1NbBSItEh8Mxobe3dyeIGCcWpQ4I8tKQh763o5HedSB818p0CRpTWFRGQyDRF2VGGawzLIPfwhJ/pQrnceY1V7+tI0j/3K1F2I97xfJozLDqyaLXyhLpxVENTf1lkZPK9Yhq47QXCSYKxIlXYfCeVbnyVJAWiXDOf4QGflNtB4TZBxKfP/wJ/aypi7RGXaxQUTf7EP3EWeRBHsfXMUDRbfoQ/X6cnwoQpMYlEYcTUv/xOT1t9eFKQQLlMKljbMpBWmtIQ981eWl5niMpEhMRlY4mKhj+xEDiOhmz6CHxMmXwgLjx5u5B+lnzJYRtMgQy2OSVIBm32mUJFAaA4m+XBqkYRMYjkMFt5Bk09I/l4WsldIEZlw9BjgLJ1ZoQ/dljoGa/mXQ4j4d0NS0RVJMIB/0DdA5hojrACZAXEt98ol1QHVlhYeB2s4WMZaNkCeRHmLSVVqK6ghD5oR3JwA8mp9uD9F0bHsZ/Sk91eBDJKswKFhyHRf/rMMG86hTrSJZAtVE9QxWJiKymIcJSrYU8MC2c07HWS/THNoTqCr5Hg8HrQKDLyKs3sXdIJcuLvGSENiQWVRh8H99/XzFnm8rPXYY29oFIJfEW4oNX/Fpq8JhIL3NTtjVQQsokolM6rVb7kqSFqmYQBjbg8tKzx9vQA628kJhoez4NFlcK59EQOo7iXxQEaVo+wv4UZcX3T4CL/VUhTlCPrCDQsQ6YVH8cG12KezYNGak/iEBJLGOkSuCIaiJ84fJAIDBTbaO8Psla+F5zF+3od5EGAYTcUI24R1dZQ0GF1RumdRKCmIXFsQQnDw3dUxKkujjBkBvV93uhjQrD5Zn8f8hL97qRw4r3qNVAtTJNmUQkzbwNT7xKDYIZRT/b+p30s5MdimaUNc9QUkGhvEJobSxJkhY+UhigKnMo6RA/GvxcqSFE3yvyCzZWSRs/8QbDQY5YFI0amOYNLj2CIYOwqjQSJjQSKZHY2dn5C/jCWeLlFSQ7g8IzlOjNk+10Cb5GK/ccbtDp9eSJXB+NAmvN38FN3gItRJVpwRsI0g35flpqiR/ZdqG/Sh9zInIhpKXXHEbyKa29JoGsayIS+8mYYY+nY0b1UMPTXX205pMeQQvl5M8zOa+8mvwy66OR+CcEJflsBsVrNeDlLx8OI/npweL4wu+G2g6yWRWvo1EObdzkM9Jpn5n0inRnB0mT6HQ6fwAiZPdbJCJWMC84PIjtX2hAMINz2UdQbjNbyV1aJRYMh/AIqvouApLZBQhmVDLIFkFaKWFwajLd4qV/teEa9SuN5hy0USnI4Wd0GNRW+EZnUKNYRyKoUZKkSGxra5sKX7gyHV+ogxYePNdNL3QNYrQKvhD1+6rGkocXwWXaCpdwapBaShEJ1j4+oseixfWiIhjwOPV6wLEQ5IjX0cjDk2+EDHTIY4Fg07ERqSEhiRisHinFZhBhVkMiE8iDvuzy0foTCGZAoKwQYEbt+YXkyy9Cm7ECEDqK4l8hqefUINWUIlr7osH1jTEF6OkinOAWWcGg41LKoUQkwjHa7LNST9CIOlKXV1Y0sbu7+37M3CsphZIQ5Bpn0vl+Til2nemkd/vdwrnc0Ex4PpxSwNHJgK3YVIOG7i7lp1MbqJL2RYNXZ75Q4KNbELEqBTlulHe4UZd4HQ3ertWAnPE9aKNapEpkXBIHBwfHw4yuiR68EpHR4PvYjLb2OujnpzqV10dxn764nIaseYJGRkPoJLrwKIKPUmMwpbcG8bQvGnxXodZP32KzijaUhHPRJ66ritfRGMVBjtdE5/0G0qnQxlQgKIl4LguXy/U4CJTdmZVIMPw5k8+ze0vjBRrwcUohfhgJ3KMxGMhdPob8CjOQtWIZJvbNyAuRESSFZLUvEnyvFzNkpsVDX4Fp5XZle4RC3sqhVDPbkj58+Jd+M3mV6oiDZDVRkrEiiX19fVO8Xu/XxEtZRBIZ3TB/pof/O3lxgJ5p7VPUQk4pCipGy265iMQDpUEyo7fKd4TB7SarfSwAYaIh/ZEOPw4TBWhFvkuQvlJ7/JbD4VXYWIVCiz9A/+XQUqPTmPAthxpIfWcokghTym8pzOKlIuSExcJgTl0Y5IbjrcKgZAeLTlgsNnIX8Xuh2IEKz6D6R+xBmmFL/PI1nvZJg+YjkjQ+pHIJnHJMtvjpR5awWZXtO3DeHZty8L1+dPQsPuOLDQMmGgwMX1dNBom0MVLusnX39vayBn4jfJUYUoXcMJ+zQHRaLe3/pIs2djkSpBQ15DYg/YwQogShBD1cgmBGj7pl6wC4PSYvcmASMVyWiDQ5sOlfmO+hmjja7wLZcuuqfShzoStc/ppPR3sHOGUKt5sJ8BgiEUMiGtLDF/4w1Qal+1loHMz0ONz0n5xS6BXmIO6zFJYgpSgRzqMhPIXiZ4pDNNqCsF6hO9wem0+JnEiy+JAmVaoIgKAq+MXVNrfAouwoQBKnHD5x1YG5ZM1sRxlfCK3ClP7eYaZODyZhILxBOZn+KGli5ESVENO3ixcvLsONMeuj8cAV824ykE9+CJS14rWTbXTY4RVSCjmYUG6EL+RXUXJgK3UzQv0FBTxwXiP96yGRxW3yEUkaf6aGNDmwvObneeiOODsGOOVoZ9MpogfpBwczEnh0zUENvT5oE0jl/rN8oi2HHOTiDLmxDXvP09/fX+t0Ov8bp8XhEmVwZVyptAVPaoBJO9s7RP9w7IJAECZ0LIIB0pVWkpPfFcoJnItwPFHio1qzT1ik5vojD4m8bIK7YdWFqBRnL3uQAfJYWLBRhxM3FsNl+NHPjz3sC/nGMITR4XKfX0d3GpAi6TnHDH8uTTg+mLB4flCSrxyGqQFu+joqmsin4ZLh4EpYcExceM+oJ7ZydOQDfluPwejk+oR77YhEJ4wZS1MtepqKkDP6mGDW0RetRDPt0C6Zycp9kNqVzrMFXmSbZvbS3AG4hp4OsvV2xhxmlA90X6QuL/ohQ4QgZMzmfS4T/hn+OY+B+8+KIFkSCRKpXDZMxlEYViNrIo43ccpEXoFSI3Jgf3j2spPufO9jPIh7o8bEu6hto2upfPQYKjFBU2Wq46IhHGtsTqozu4VoMRI8iaKJ4wFn41vJvIn40IXL9LVD54QATQ46jMleM5H6y6qFSSoPDW0qctB0jCdRlC2NhQ8ep3RIsud/I7kY1quCgoJmk8m0hs8l4qSd2nyeiEAGJ/dji220ZhwsMnKlYQ2gTl1eIQ2VVNIFaKpPHA3/P/Jg8HNbXGZyBHXD6ojUvEjCpIFJn2UC/L6zDz7uz6e7wRQ8D/vv6APQ5RfCNVRwJ4TrSAg9xCT8IbR5qikxgQxpLFKcIVk96eBJLI2Vj3AvIlBeXv4iPjjOD8rN+GSgAZF3TSqn2TYjnv9rrw0YtKaiRvjijBcd7YnzopVXHnciv9oLIqXgiAfHk0mC3KTi/kbO0nTA7e5BmvRWX3jNVxYgOoAx+YSvH8SCe1GiCdI9dicmRXJ94r5zxC1xkEiBYkjE7PZbLJZ1rMpqEUCDZTYTfWcqAhdp6rEZLYR25hWgl+GJ0YpQ3I3wXMkA1uCDjQgoOpBrsX9Nlhy+J12tZLfQMeCm3zb3Kr7ARgNUWISwR2EbiQBo4WNWF1UYeLFCaaR/BRPG2sb/sqVJZlLKMlVRUfECKnhWvFSFABqvrymme4uhU4hO9HoDecpHx2y5iLftgUPn85DN29BGjvwC0tfQkkQ6WskR5Fsfd9MFXuiWkz3q1BoM5OQ3LzI3CCVo9gv6IN2CNEUpRZHAfWXyWAPl+htPGxXVzWq1Pq3T6dR9txng9iwGHT04fZRAorm8mlwWfksxvCO87cHpi131kFCG8pe8Bjrj1sq+EYj0i3JQo5V6WKHT3YP0BK/5Kmzm4pfIZqRJXhPCaBnhhks09HW7i/K0aF+4jgX3T/J10X2MJk2JSEUSq6urm2BWWSPFktTB2jOzIo9+MKWaHIXlGJKcOEhYZ+T1RrmWuIw/2eqxI7FWeKGcBJLVSq7fA7XZfLpLYEK2PZhOqwUWJs7OdDajD5l8dJ3FJWtGuR+sdXLkxYMckXEdX3Fx8a/gG5vFS1XgndGLp43mv5GlKEBeZ+Sd1kqwQ5rbg0b6yGdFfTJCS3KicfuJtJK/vHO0vY82dDkU98QytHANTh1vOYq9QyhBP5cgReL+Rt/B7Ut+L96kUupn9HNxSYRJ/QSD+rl4qQq85jnK4KW1+SAJ57INgoN2BDjxtj2UQRivBPJoIKQfVgcPJp4g5CBpZTTCKYWP1jdBC5UW7fGs3l5AjqIyNB4rZKFv0LyfWjw0wey7ooU80bifkulMtc/RiLQqcUlkjB8/fpPRaDyeVqMYyB2FfppnQLSlUA2vN8ZLOfid2H6kHPu9tqRD9Xjg8USbVxb07pZu2jvgUUwpTCDXWjkGwYy86JjWCdoQ3QFfKOkxt8GpQqqmMx4i+5+QRAzMn5+fvy6dv5TI3S7T+2lVnlcgVAmt3mDcIKcS5G30W6kjYMrItgdJEHzwdsO2ARc93qy8J5bTJHNhKQ3ZOaVQaB/jW213C2ukrIV+mL5kTKcaSP1PSCKjtLT0BZCYVsrBb2vqC/y0xBg2q7I8obAbRCqNlTvbg/+/6csT1jSlOliDkvWLskCDHgj5ZTajCMZkq8I9WoORhpDYy3lv4RH0e7EhQPUg0Yd6mDyllCEZJPMc35MUiYzCwsKnQaRbdYdwmDUBeoC/TgYpKdVyKUHKUYwnt/iNdMYHbRTv4T6p7RdDBxN5uttBf2gfUPSFOvg/fZnyznSpZBnMqNHnIpdH3WpXJJIdU9IkFhUVNSHQeT69lRwNzcoLhnda4z+lmuKlHAwLPngtUEDwXMO0UQ34MScS+g1nLonqJAMQaLDlk640/vrod8x+mqQbIBdPQuGTkUFKjEAbn0C0+ol4qQoazM57Cz1UAOevNE8TpRw2HG8E9XTUZ7viG9VqIvvCo2199EqvSzGY4TgqgGDGFSel4FRqodVBIZjlTCCV8aREIqccFovlp+n4H15KrYRffDwPgw1q5DuA6nmLQ6Kd1i+BxD5St9OawSlFr9NLfzjTHSeYCVJ+UQkFFdZHhf5BCx81u6g85BB8dSaQNRIZo0aN2gQiG9PxQfzknUV+utUQlHvlKID/zMgl3mmt0Ay/M2gMaWmPP18gQw000LzdZy9TA8y30ksKE9xHoGIMBTTyX3bl7tXpgjTf2KfaGqSLlEmEFrKd+yp8oytckjqYuEJ9kFaJX+5UGvoFH4Icv3KQw9q4xWuk9pAl5ZSDv2bX3u+mn58Pr4/KaiHCdyofRS4L/+UOBeMPLXzANETFWh/qyIwWMrKqiYyampqTBoPhefFSFTjlmGP30QpzmEXZ4aMwUcrRi5ve8liF5DtZEfJ9bKpfZTOq9CoMjfIPeAVKKuOkFBr6MvLBOcYBTMxkW888VJHIQLTKKYdLrQnhp0yIGB4oCQcCSrVc8oeEpTAlEQkpB5L/00E7gpTk+sIpRVP3IP2hY1DQQrmntNA8S8Vo8hvjpRQh+ntTP1lhnJJrOXlkXRMZIPF0uikHr6tOMnvpUTvmOs5lawJ7rd4Q+eIEOVYcf3GbyQ2jquTbJLBp5p3pfz7dgwYVbgaBJlseufnvyMkIU3gKmvew0UsTdY5PVQsZabU+NDQ0oaOjYydOx6mNWDlhb4V3/Wa7mU4ElPwOGjBqqdSqVzStbRDkv1mdNN/kEEy1EtgX7mjqpH852U1aJV8IEvUTppOfNzYr+MIpqGedvZvKyYl65LdmMFgu8WQjt6LD1/4UUpW0p9C+ffuWNzU1beTOyHWW11wTEuz30puWKfRi2SRhfVIOLKYpFh2ZjQhhZIj0oo0an4sWtbxHevwrp7dc4oPv/FO/nQ4EFPqElEJTWEKh8dNYmmJhFLQ6+vLFM3T35aNC1BpvfPxqS8lagajg5z//+aaysrJhf2WRSeQlu0Tg+wT5iteqgYp0Tz311LHNmzfP5EAgGgkJBLQBLxlrptGRrz5KXfxH+BSWqwqgN+PtRuLveUQjBGEVHn2f6Lk1FLIip1OA1u+m3s8tpKM102Xb4RHoJs6kIRv/dWEZEtF2sWuI5r70awq1NV35FYBobWLw2Llc7jMmqb6+vmHdunVzcJ/8zE0SaZPI4L88vHv37sN9fX0WnnlqoHX2Uvftq2jfvLsR2iuYEgijFipZZDUNCyRCEKyhr4fKn/sl0WAvWFA2b2weQ3ojfThnMbUK20UiiIQVMFWOIX/VOOLNXrLQ6an+8A4qe+dZTJaEG+VlwaYS+Tbdf//9D951110bxGLVUB+VRGDVqlUnZs2a9SdWbblZlwyClkIqPvAyjevpQK8UJgJmdidSjoCfTbdYBvAg8o+8S8Q/QCIsjcUBzKnOM0Tj2puGT2H0W2s0KaYUAtCvmstdVIJ+htBftWDTuWDBgsY777wzI7+PkRESGV/60peemTFjhod9oyqwcN39NOGDNwSNUDISQ/BB/fzyWJwrvIfV3NlKln2vEtlYsIknURCaWHShgSYPcIQaFgG/pdDFeUshAOXjj+4infOy0F81YPkgz3bCDy5L14xKyBiJ0MTTOH7DPy2kWhtNeWRveJtmtZ6GVJW0kajFrxHSBPY5/DMM9r2vEbmHUhAsKsFEGdNyhIy8KoP+6u35pC2pYDUR74kCzOiMjmYqOLKNgmb+M9epg+WCtIxuuOGG5+++++6PxOK0kTESGStWrPjp1KlTG1RrIwP+bNSBV8niRd7BWsJ2M/pAea83IKzS2JpPkPHIDpg3+LcUEILZtfe00LSeNmHC+CtryAMNVWpP7/OiX5gsKjWQwTu658yZ41m8ePEzYlFGkFESGTfddNOTVVVVwrYBNQgZzGQ6d4RmnThIetRhRpAjd/QiGQxc6iL7e1uFZ9QgpMWEObOfxul1ZLDayYxUR64tDfox69Qhsny8F23B3KoA+8GCggLWwqcqKipgajIHTLPMAiYj/V9tE82xp6JW+EERFAjXw6EhvaMXUWkH7okTjSYA/46Gt3AUBfhX29iUxkgEaQJHrRebhQ3DgmaqAKcUt912W8NPfvKT2WJRxpBxEhn8+4mvvvrqwY6ODitHrOqAdF34XaY4/pV/pEsgOT0IP4iisMgQBojkiaKSQN7pNnnyZFq+fPkDsFQbxeKMIePmlHHvvfc2wvY/n06QIwgOPoqTacUjAwQy+PcXZeu/coi+UiX4p4VsNtuz2SCQkRUSGXDeT9fV1bl5Fl7L4PGPHz/eefvtt/9GLMo4skYicqEz8+bNewYzUHDq1yJ43EVFRXTzzTc/j8T+jFiccWSNRMbChQt/fN11132Yyor81QTWwtra2tZFixZlTQsZWSWRMX/+/CfHjh0rrFRcS2AtLCsro3Hjxv0I1iitLyUlQtZJhC/YdOutt6a1seqzCNZC5IQfPvzww5vFoqwh6yRqNJpgdXX1CsxI57WijZwTzpo1ixe5f52p9dF4yDqJDAzmeH19/Z943fBq10geH79XraysXD979uyspBTRGBESGUuXLn0G0aqb1w+vZrC1mT59uhtB3TqxKOsYMRLtdvsZ+Ijf8frh1ZpysBbyAsf111//O5jTrKUU0RgxEhkIch6bO3fuh1erb+RUasqUKR8uW7bsMbFoRDCiJDLgH5+cNm1aUhuBPktgAuEHhbc4YtGIISsL4Imwdu3aZ48dO7aKNZJf7H7WwWaUjyVLljSuXLlyNkfk4kcjgk9Fgo2NjRO3bNmytKWlxZfO7/L/rYDfnVZVVRkQvL1eV1fXIBbnkEMOOeSQQw455JBDDjnkkEMOOeRwjYLo/wGentj87iwh9QAAAABJRU5ErkJggg==;" parent="3PrFZPDsfoUqDwBEQ-ub-1" vertex="1">
          <mxGeometry x="582" y="100" width="53" height="53" as="geometry" />
        </mxCell>
        <mxCell id="QXKRnF0jpZJd9bjVKJsu-0" value="Datalake" style="image;aspect=fixed;perimeter=ellipsePerimeter;html=1;align=center;shadow=0;dashed=0;spacingTop=3;image=img/lib/active_directory/database_partition_5.svg;" parent="3PrFZPDsfoUqDwBEQ-ub-1" vertex="1">
          <mxGeometry x="575" y="382.95" width="50" height="37" as="geometry" />
        </mxCell>
        <mxCell id="NWVrWq27UpwJJwlBrZhr-1" value="" style="edgeStyle=orthogonalEdgeStyle;rounded=0;orthogonalLoop=1;jettySize=auto;html=1;" parent="3PrFZPDsfoUqDwBEQ-ub-1" source="NWVrWq27UpwJJwlBrZhr-0" target="QXKRnF0jpZJd9bjVKJsu-0" edge="1">
          <mxGeometry relative="1" as="geometry" />
        </mxCell>
        <mxCell id="NWVrWq27UpwJJwlBrZhr-0" value="" style="shape=image;verticalLabelPosition=bottom;labelBackgroundColor=default;verticalAlign=top;aspect=fixed;imageAspect=0;image=https://cdn.icon-icons.com/icons2/2699/PNG/512/apache_nifi_logo_icon_167863.png;" parent="3PrFZPDsfoUqDwBEQ-ub-1" vertex="1">
          <mxGeometry x="560" y="319.3" width="80" height="40" as="geometry" />
        </mxCell>
        <mxCell id="63XRUc0Jr8oEZ2908sRM-0" value="" style="endArrow=classic;html=1;rounded=0;" parent="3PrFZPDsfoUqDwBEQ-ub-1" source="3PrFZPDsfoUqDwBEQ-ub-6" target="3PrFZPDsfoUqDwBEQ-ub-32" edge="1">
          <mxGeometry width="50" height="50" relative="1" as="geometry">
            <mxPoint x="424" y="140" as="sourcePoint" />
            <mxPoint x="338" y="183" as="targetPoint" />
          </mxGeometry>
        </mxCell>
        <mxCell id="tIqQvR4jQwkFoqSZPl2D-0" value="" style="endArrow=classic;html=1;rounded=0;" parent="3PrFZPDsfoUqDwBEQ-ub-1" source="tIqQvR4jQwkFoqSZPl2D-1" target="tIqQvR4jQwkFoqSZPl2D-5" edge="1">
          <mxGeometry width="50" height="50" relative="1" as="geometry">
            <mxPoint x="836" y="255.5" as="sourcePoint" />
            <mxPoint x="608" y="204" as="targetPoint" />
          </mxGeometry>
        </mxCell>
        <mxCell id="tIqQvR4jQwkFoqSZPl2D-1" value="Consolidado" style="rounded=1;whiteSpace=wrap;html=1;verticalAlign=bottom;" parent="3PrFZPDsfoUqDwBEQ-ub-1" vertex="1">
          <mxGeometry x="526" y="187.5" width="77.91" height="38.5" as="geometry" />
        </mxCell>
        <mxCell id="tIqQvR4jQwkFoqSZPl2D-2" value="" style="endArrow=classic;html=1;rounded=0;labelBackgroundColor=none;" parent="3PrFZPDsfoUqDwBEQ-ub-1" source="tIqQvR4jQwkFoqSZPl2D-18" target="tIqQvR4jQwkFoqSZPl2D-5" edge="1">
          <mxGeometry x="0.6213" y="-11" width="50" height="50" relative="1" as="geometry">
            <mxPoint x="446" y="266" as="sourcePoint" />
            <mxPoint x="583" y="226.5" as="targetPoint" />
            <mxPoint as="offset" />
          </mxGeometry>
        </mxCell>
        <mxCell id="tIqQvR4jQwkFoqSZPl2D-3" value="" style="sketch=0;html=1;dashed=0;whitespace=wrap;fillColor=#2875E2;strokeColor=#ffffff;points=[[0.005,0.63,0],[0.1,0.2,0],[0.9,0.2,0],[0.5,0,0],[0.995,0.63,0],[0.72,0.99,0],[0.5,1,0],[0.28,0.99,0]];verticalLabelPosition=bottom;align=center;verticalAlign=top;shape=mxgraph.kubernetes.icon;prIcon=api" parent="3PrFZPDsfoUqDwBEQ-ub-1" vertex="1">
          <mxGeometry x="543.9" y="172.89999999999998" width="33.05" height="30" as="geometry" />
        </mxCell>
        <mxCell id="tIqQvR4jQwkFoqSZPl2D-4" value="" style="shape=image;verticalLabelPosition=bottom;labelBackgroundColor=default;verticalAlign=top;aspect=fixed;imageAspect=0;image=data:image/png,iVBORw0KGgoAAAANSUhEUgAAAIoAAAB7CAYAAACrSRjYAAAAAXNSR0IArs4c6QAAAARnQU1BAACxjwv8YQUAAAAJcEhZcwAADsMAAA7DAcdvqGQAACkcSURBVHhe7X0JYBRF1v/rnjMzk/sgJBwCKhA5RPECBRQQddUVj9VPUfBYb10BEWVBEfAAr139Vt3Pc9djD//qrrq7IpfgBbKggJyKXAZIyDGZmczd3f/3qrozSWYmx6R7EjW/ZJKequ7qqle/evVeVXW1AF0cL698MrvaeuC4XbVf2UORWsUEIihq3I8dUfz0yT5OLLH223ebMO974XSrzGO6HrokUZ5dMzd/j//7S2Rb9EI5Kh8viaHSIPgAFAkzLPxkiKIIAljADhY5wy8Kwk5RET/NVvLenTfxjx8LgtClitmliPL427OyfLk1c91K7bSQ4itUBAlJoTBy/JQIEg+tZAKYFSSOYvsiW8h9dP6EF99TIzodXYYov11x7WUe2b04KtT3kwUZTBhGJCGa/FxATUFBzpCmMcs2sCqON/KVohlzJ/2hUj2l09DptbBh+3vWt37462MesfZOSQizMAVpIgB2M6yh/XyIwqlCf6nMEjvCbml3rlx0/YJJL62mMzoLnVoLK3e+a11W/s7fPMrhi6JMd5ChillCjSJQ0/oZQkZtQpUiYvlRCigLCcniCDvD2ZMXn/fGv/lZ6Yeo/u8ULN33jz945KqLIiLa/ygg0iWkSUhIP1dQ2UVFRkngD1OpIkSEgDVk9r2zeM30ifys9KPTiLJw5Y3T/ELFDZIQQQViQQ0SU24/X5pwcLsMNQvKhLgi4nFYDNiqQodfeHHdY/n8rPSiU4jy3CcLimrkI4tDpgjr/ESyR9iows+dIk3Bmw7vjskD9InVfXfWbbyDBacZnUKUQ9EfFgTBW8R6Y5UbkmDqpklzoK2GVgsdMNtFxp+QUH/3gqW3D2LxaUTaifLI8rsGe6Sqa2XUqZpXQy2G/+1GEzS0HDzAX5JPWPQ7/WLNwzw8fUg7UWqVikVBwWPltj2BS4OTphtNEZMRHYmMLyL4BM/k+5fdMIHHpQdpJcpvl02dUC/WXSyLkmrRd6M9kIkt2B2FhSDUi+4ln+x918pjjEfaiLJm1buWoOJdIkEYtYcJmwYfXOpG2yGjShFRbuQFoSxHfPjtP6aqUYYjbURZGv3gzoBYP4I1CmQIdT2aYu1G2yCiSqHGRWZtVIiAH7wLl/zn7kIeayzSQpQnPppR6IOa2ZJA468auvVJauDzX6RXAoK3x0HTnplqhKFIC1EOwL6ZIdFX2K1DdAbaK5IYnLFoxe3D1BDDYDhRnvxi9mjJFL5bs9y7oR9oljkqhCxepfZxNcgwGE6Ucv+BByNQb6IbdbXOhqhL7iYb02G541RubmaT8U2V0uWAhi0tyagH98RHPp0+RQ01BIYS5d7/TL3AL7vHC0Cjrl3PJiFCcFKYIIoGYlCqAZ90GOqkSvDJbgyLYjyewWazu+AqRSI4kjiKnuSRQPl9r77+pEWN0R20PsgQvPLZ7zLKpe/eioh+1So37FYpg3QEESEk1UGOqQhOL74YxhVfASflnwPFtj5QG0DCRCrAJNJwBZ3dtfSiIpCjjPkSJYhAtNDn9Lo/fW3TF2q0rjBMn85ZMe3+Wjj0IE1mkYrk6FpahbIVjHpgTMGlcP7AK6DIUYqhmpKVoSpQDu/vegtWV74BdnM+c+u7YhnYiC1mzipnVh9jGXrCHWMX7lejdYMhzXzJ8pl9qpQDL0lC2EGC5zTpWgImhCUPjM77JVx1/O2QbW08HEE5FsBhyYayouHg9YVht28jWJhm6VrgOSXQLLPkiEqR3E9e2/xPFqQjDLFRKqF8flgMFfAisCU4PKILAR1LcIkFMAk1iV10NcojFzuBlg/ZRAdMOuZSyDEX0zCXGtO1wHOuoGEbhTqhZsr8VTeNYkE6QneiLFh+y6h6wXM1ibkrIyz7YFjuGOjp6q2GxOeXCQdrodjZG4bnnQkh2cvCuy6Yu2z2S+5HFEXRtW51TUyRFLFWqXoYW57ZIGWlGyQ5AkWuEjADOQq0OpXyG9MmDKptRZ1nsbMHu6YrgzQL5dgPvjGPfHynrvNAutbmvFXXXRMUA2NpQbARs8O83miFPvvW8Jdsfol1CxRD7qz6Xz0zEVhMQ6Pj58ehUbDVjNxvFfyedIkkRiEkhCGqhJhrzRaOq2lpd9VdRpg+3SOK9z0c2Xv3i/9alKHGdBi6EeW5VQtzfUrdXAVCzAo3gCeYZixRGigLoDEqyUHIEnuAU8iGoFSJXUo93l+jSPJMUEwT26m1/LZxwTeNuQSkGhAiAvQ09YeelmMw1Aw+qYp1bkRiog390EywniCZU5omzGvUFCr73rpzlhrVYejm9Yy4ps8DPqi9UEGfnrUsFIi+YiBgiqitZAU1iOyH8cVT4LJBt8I5/S6HMb3OhSE546A+GIZD9VtBNNlavH8Ery/LGQWDCrRpEkpbPUyAPe5t8HXNGrCKTjUkHkSlSDQIZ/a4Aq4afBdM7H8xnN57EozsMRacUADfu7/Ck5AmImpFPFlnnqjk58smqTuNKKGhv7hq4t8+fv2/deyEDkAXoixZPXtwtXToTxEhZCJ1Sn06CUFnOSBoHUYQXEIuXFd2P0w6+hIoyOgJGWYnZFgyoYerFIb3PAlCIYAdnrVgRo8lWR6iSJTBjYnSyhB9W4gSlurgsv4zYXLZVMjLKAKbKQOs+Mm25UNZ4XDo6yyD7dWbwStXYN7s6lX6gUrASsEG4hgcWA/5n7+29R/8a+rQpeupjdBiaZ+VD3XzLOrR9dDIIyXDBSCAX66DXtZBcNcJj8HIEjSFmvMcVW6GmAkXDroaBjpHY4sKqBHxiMteSvlVy4oXkxd1Qs4vYPyA8zBXZgxp3LFROzfB8OLT4K6Ri6G/fSQEI3UYRldqUKu2A+Cp0eImdOwxORm1bwjqr1m47Obx/IzU0WGizFs2bbxPcF+qiDGSpCTzhMBuBnNISwDr5Vooc42CO06YD0flDFRNhmZ3YlpBAZc5G04tnYTdi5uHGwm1fskjGll6OlgFB8sbt0I00BGvxt6Z/eGWE+fBMOom0W7RKqAxZVIFt8x4StRQyYAOmgLgNtUs2fD98g6NFnaIKKu+/Iu1XqhfHBSCyGJdlFMTCJgmpRuKVsMQ15lww/H3QpGzVwM/NJO1MRSVrKXO3tiGSb13vAKSAjUopU93MIsZ2PVh3iiY/Y2/LzfGZSiw94Rpx98NI3PORyO3htkU3APSN6+UO6JrQPGe8N73b17NQ1NDh2r3w9r3rw6A70Q0TNQyxldcx6BARHLDsY7T4drhMyHf3gND1IExFGwCmjSERZQwftNX8HGgxqFpUbxfROIP2bPmnOjeRAgUuYKEybUWwpThd8LQzIkQxoZAjUInS6AJyAuKQgR8gnfRi+sfTnnZZMo5e3rF/YVBMbBIFmgQCgXAvJ2OVQy1Kq2iqbsJo+FaaDkKpg6fgUZrD5Y8U+jst/G98Fj7yioJjc/ab9E70sZWjAeNl+yp2aV+I4omvi8LVQ3nXGsBTBt2B/RBmyWEbj0P5fmnIYYO5x01HtmNZNr6oa54V83WGWpMu5EyUSqU8gfDQn0xrzD8qC2rIyAbp0HAsgw2xQrThsyGEtdRXHwsSrsPN3RjDNGOBKj074cvDr4HdlMOC0mEuNymlH3t3gJ6ONmwuvw9qAyU4/f4vDWGdiuKLXSUwjVD7wQHGuESEpvsCnpqknVH/LSUwZ9dpruRHkbDVvTOmL/0pjIe2z6kRJR5H91U5hGOXE9WdYoSTggqE42/ULECUi1cdvR0GJR/ApNoom0waOiqAXgtaZsjgYPw2pbnoDKyG0xC8nU8cal1sFZMghUOhXfD65ufZmThDmrLsuFUkGFAThlcdexMCMpeJIkCJtKE5EEyG0gfkGyCot/qNbkfVIPahZSI4hOq50fA3+hpP33Aew1aaVYLYwouh1F9J/AKVLuTODSyEei6XdVb4Pfr58AW7yqwYAvvYN23Gxlo0G7xfgxPYR52VG9SQ1sG2SxUjSN7jYVzelyLntAR/MYH5PTQ0k2AiQbBf+n85Tefr4a0Ge0mygMrbjw/LPguo2PdiYI/Evb1BZYBcMHAq8AmoNfCboF/1H69MWJEEOCrg5/B01/dAwcju9hYCsW2lLu4uJZObiMoPzbs7iqi32JepsN/yz9WQ1uDAmawwqRjL4O+1uEQQouCbDS9iU7dUEQMQD1UL1659q12ucvtIsp7n71i8Sk1i2lPE4LeXgWlF47WwS/7Xwc9yA1uBWzjRBTouvI18PzWefSkP5Ir+chpOkATgDZwQVSU4fltc+DLH1raUUtravxvnr0QJg+4DqSoH4XBxrdZuH6g+SXsEcBTttLzwa1qYJvQLqKs9a+6NQDeMuJ/ir1WiwgrPjguewKcVHqGGtIaBNhYsQ5e2j6H9UJm0kBtRFwV6FontAudBQSTBV7Y8VvYfGitGt46hpWcAiPzLoCgYsRgIRVSAUmMQL3g/e3C929rs7vc5tp+fM3M3vWCey6togL6oBWtJ0ibKJIEk/pdgd6KCwNaN+T2uHfAn7c+hPnBlikSedte23E9TVxAxyGigSuLIryy/SHYi3ltHTJYkewT+08Gq2xvR2naDlngg5gB8BUEHL42G7ZtJkp1pOrBkOBnyxuZ26WLRuGioL9BmivJnQSDC4ayMF5zzUVF3zmB6iI18Oa2P0CdXImaJIMNLLUHcZUQF9Bx0CAaabk6uRpe3/o0uCNH1JhkjQzLgPk4Om8QnJR3PkQkTyycybvjbCY5saKKEnjkqhse+PevNYG3iDbV9qOrbz/Nq9RMaSxLfewTmhLn6ShSFEb3Pg+sIrUk/GEyaSoYOpONbKKgl+56G3b6VoEdDVd98qI/qEroYzM54Dvfl/DRzneR5kQSEnuiPHN5mNDKOR09Phm7LzbRikf0X59yUnoEdByEkMVndj/GvraCNhGlOlq5MIKJaqaXXqBii4qZzfIem3kaDCwYwiOSCITuTp+dRzbB0vLXwGHuwcK7KqiCmabDj82aCcsOvQTbq8htplIkLyOhf95AKHOdChG2/JKHanF6gbIWEOsnzV9545VqUFK0SpT7l93wP2glj2cbBOvC6Bj4zWXsdjxwctFZWPGaW0s/ie4lQEDywb+++wvIJswP9repIk7oetcCQhtdpaQFdACiaK/8+7s3wM+6FG30tin46DS62aITRvWciN1PPatQVfHqDtQq1DXOfXH14y16Ai1K+vX1z+V6oGaBoq5H1T+vlGYUsk2FUNbj+Iawpv+b4pvKL+Er3zKwoDpX1xqkhLgrDagILUn6TwSwC1mwpW4ZbK34mkckQiNGHF04BHJMxWzCkdtgiWWSKvhIE9s+Y/AeaXuLyyZbJMpOz7rfRAT/0VSdLJ86g/pj1u04ToRCV7EaSkgslKDsh0/2fYR2TAaYmE2beqbirjSgfHxiTwN9kcBsdsKafR9AMKpNAjZHrIPPc/aAwTmjISwHmXbSm81avdLTnN5oxZ1PrJqRdPAqKVHmL721tE6qvjUsUo0YIEUEGWchrPwhBaegW9j6gvG9NTthi3cFEoWWOHZMaHFX61sHCUGVYhFdsM27EvbWfqeGJocFf47LH8ZWz7FHc3UGr1WqBRqxjRRUykcWsqAESEoUtIefDJuChXxPdm2UUGdGY3I0itkP3cHWocDXFWshSl4AbUPRQfLGXW1MW2gKNtqKlYIF33j4UyxD62NFvXMHgEOk555RWDobKlRk+pDmow0YvXLtVb/98LpTWWQzJCTKkhXTJ9TLtb8iN1SkwhCbDegjZUWGAksfKHA27nZiaCyWunANbKpaBxnYz/9YQV4Qfchd/qbmC/BgmQgtVX+BswSK7QNBUiItnpcKiKbsvQPY+DhZQpaAyfsoj22KhEQpl/bOCQt+LBRZ5tgGjDBQEFG0T3pnDgSnzaWGNAW/KxfPIc8BOBzaBqJAC6o7LrK4FDqeZBuAJUKtImI3ezi0HQ7WaZsO0M0TZ8BhdkCpcwDKKmhIPTDNjHliOUDChAT/2AdW3XQtj40hjij3rbh+WsQUODNZxvWEhEQpcfZDx9GGd0t0v1jo/rrd6B+hsFT6/BhBOafKoKOwSCvi+LA+L1F8uaj0NGdU6uzLjH7jy84G4aA2UnHf85891mTVVxOiLF42O8crV83h7rAhO2I0gYwsKHAUsOPEximJhmIk2OfZBSb0dvRCnMiNrgMGrqHpJREWyIQD/j2o/mMDas0bpxZaRF0zdhGcZAaC2VCYOzF4zJ7AV9PVUIYmRPGZjkxHbXIMua3a0LpR4La2BXJseWpIfE1pOQhE/XDYvw/Mgk0N+XGClZkqA7sQi2CGI/6DrGwciUjAZZJjz8fzadyIfTUQVO8yRMUI+BX3zQ//Z0aD8dhAlNfXPpFTD97rqfWaMEMG84TBLFixD9aM03iiaFrGj8L0RKqxb09oUqWEuOKlobx0EzZvg0cCEqU2dAgCER+PYuWPlwHBbnHxJxQNziPpO/7YDXOXi2rEAw2PeDRI/kBg/4lBqC+lrJKvkyzT+oEmyzIgw4othX1LBJ6HUCSALc+LudKPKHGlM7q4zUAqvl6qRqIEG0KSwWq2srEjTjHjQBqP1uySK053UszCZB7TiCjuaNVJINPrY3lQRwe0WgNlhRYk20zairwE91ODaGIsCvR4qH61SUmnmRtNQLYXLXkMRbUXbiaSNw+ziBbseuzG2yhsrS7fKpXcZjSgBz2xagabeW0gCnabI9lr2/CYbxuRKOP6grl79AIFBrpf4nuSgNibJXSsWla+huTooOXyGiMN1BE0jqEeJ4MJu9yWnijQC2y2G/sTAj1jJUE0tzbiPpa+NxAF+8pcUodM7VD96VgpSYEEaHEzGTUL7BQ2hqBjdaHwtR2UeF0lKC+7Lz8MREJ4hn5dH4HuSJXDEX9/rQ5I29Dbv4wGLy51PfQNc4aC8Ua9zNVsKLkkB43PSSOQ6qUHniJyqCEkkbAI1JpoMY+eoJVnez27ICTT2IwmpObgIqEnFvfXfa/rVhV0LzO9bt/MNUUiEmrSiFLXy/KpL1FbBhoh2Jh65x41kr7F7txSyzYE2EfLfgiG+dYUiQaTtLkQMuZsYkbDdz1gQeNwq+dT2FO7Va2RRDoUQ/B3T+1O2OymycjEI8ipgMpiE3PAZtHGhpLLP4x2DG38k0hGxoHuFWs+DUSxChnppCvLBhmp/khLOy1ywThRmC5LLqpC/WZQudBN8P+2vwyH/fvV782ARh1tSvz2jpfRG+C+YMegkQEtJCxLprUQHObWyRdEry+kaOMt6YMiy1Betee/dNxQdrsls7YlVusP6p3D4Ikk3zVKq7oMFGahrSebGNMTVtEKewMb4NmN82FTxVrwRz1kwLEPuePfVP4Xntu4AHb714LFpOeqeFovGIZCewnYzXx4IFbaeHjCbnXr0uTn6A3mlYpmyLUVMqHHGolJ3BC3g5HBELGVVgf4DGpiklIYudE26JN5DMjYT+sLBaymTCgP74KnN0+HJWvvhpc3PQF/+vopeGLdLHhy0x2wL7gdu6k87Jn10CeUBn1kkKQg9HL0Q7JqtldyGlbVVyBFKD59RCEIgtmX48zfQ8cNpXdEs1aLcvuejekoiAAV9QdQbHypZTxIPDw/fXMGYtb0zRsfBBDAChlgNrmgPLQTPj/yNqypegv2BLehoelkC6rIZaQpjQ7fndJAT4+VFInXN4d2jOQUSJY2zbsdRBmZ2MNt+pa/NVjkjM13jn5oLx03EKWPY8Amu+DazzKdJuLSZnw/+HagmteGsZuDLAeexdLsPpBrPkq1U/QSGFU+T5+Gr2kuyY4GZoaYDRY8pnWq5JZyiuhhSpIxTg9sSJBlLkaPoh8PxvSTpR6U/FBe/z0qfLsuOWgN2s5P9HSESRbe5aGNiDJt9PR6h5j5Kgjqk/RpALm9h4O7oNpfrYY0RywjuY4CODZ3JLqqAbIxVXRccGQtaEf8fvyeWsoN/3XQZjTqSZ8QluGYrJFsR0sW3nCXeLixay737wCxoYsyDqxRspFZbMSytTIX8l9To2JEITilnk9ZpQy2bVB6fHYR6hUPHPB8r35vDl5x9NcKdji+x2iIolGnNBnN/TGBKIFaSvLBicWno9ZqfUOBH+r2gkc6iJdSmY0d6iKXnUbLRcUCGUL2c/dN+t8KNaopG+6duMidBQWPmLBa9ByzSAZ6PSvZKduOrMe7qfufNQG1NPpwQpQVDIN+thMhqiQ6t+uD7BNafFVqGQqDC1t/XyQNom+v+Qq7RAe2cApJrnn0gYjaOgoZiutg/8zjnlUDGeLUxhVn3fimHTLXUyYJVEW8HRiQSezjbIILdrjXo4pVux+aQlCJoQmG/1XYxr6nlV4AAakChW600IyAAH6pEkb3Oh9y7Mk2EiBG8PLXhWpga806vsTAAJAEtWFG7tXR2lk7uCwF824+9b5KFqEijihDTaeE881F91nBQfWIKdCEnGbQ6QsSiSiYoSqyB3ZWbWNhDXM/TW5HheEFOqXXGOhlHYGusjb0/+MB5bnEMhxO7XUWlibm0cWA3+lXtYdo88CK0HYQRFriHpOBfsD0tCSpnvGfDWwfLxj7/Ms8MIaEhsicsc+scEHe3yXWaukULJQBFi4TFqo6WuK4oeJT/iYKUn9J76dAnr0Izut3JXoD2s4APx74Mc/n9L0KjVh6+i+RlqZyk/oXsYuKwLqDq1W3WDtX3zogonJjXgQJiYI+HxRZShI+25OQKIQisdc8u+LyUFImmfbUaF4onUDdD6rWTbUrYa97NwtKpr0oLxRzSq+xcGLOZAjIHX4XQNpAI6vDs86DU/qMYd+TNzwefsizF752L2fjO3QqL3mya1IFklK2sCUctFewU8p69d6x/7tSjWyCpESZfuYju5yK6zGygqMiLWjSHyQsQSZrnhbxeGHdgZV4H255J6MlCc2Gwrt40PWQLZZgy6MuiMRoEJE7DNoQOAoOIRsuGXQdOE3ZGEajN/H5ZS2cNUgFZfExak03ahfu4RnjXNAyjyimjQYs5IT7uIYkfdF2UqIQ+ivDH7NJzm38GdoWT00JjRtVhikXPq98Dw7UfUeypSKoMTEw0ary7Z3VH6449naIRn1MeSZS5J0NtmGfILF96a48Zib0z9G2eE2cU6Y1MKrcuw/WHH4XbOZslBHJQZOF3iXkHb1ZtqL88xbfOmrOVjUiDi3W/q/PvjuUZSpcRKN0fBmecVVB62F9UAUr9r6HFR9l31vDKb3GwUV9Z0B9lLwg0nrx5OpMUMV7o4dhcu/fwMl9zsKQ1vJH48MSrNn/AbiVgzTXooYbBT7ubAXn9t71gx5SAxOi1VnANX/e8M24qSefEYJAf95PGgcapt7v3QwDsk6AImeJGpoc1B765R+NBkAGbHWvVNeLGEfm9oBISwQ+r+RWuKBsClgFG+dJK279zuot8Maux8FizjTOLlRByZsVC+SZe9016+yHWtiLo439SaGpZK5FtrPpZt5dUAH0LwTNXivYJ7//7WvgjdTywBa4yRb/CA64aPAU+EXvO2nrBgyLrRvhdgt9w2rDCjKG5o1FqPomigz+yEE4v+QOuKRsGthpp4Y2kCQoeeGD795ADwQ9QQPkGwNlBj+KCBlK1tIHxz33Jg9PjjYR5Z5xT6x1mQpeJxNMs9b5Ngz6ip5sIbPJATu9q2HVnn9h6lQYiklsyNEgEcXQfikXD5oKU/o9ABHJh+ZtiBODydo4M5cZ45gDoiCXDbq1Mr1lwwu/6v8ATD5uGntvMkOCTDSX3po9y2FT3TL1Pcz655pS5HLhK+3NijXskHLv5rEto01EIRRZetxvk21VNLZCwuGVoG9hSNz0Y7Pkw7/2vQBbj2yI5TDhpBzNcvLBQJo3mXTMJXDb0N+xXYrqo1UYr0348fP0Nne1rkEjTBC1YJapCG4Z+hicd8yl2N20NpejNQSAXdWb4Z29z4HdkoNp0bILI7wc1cDGH2pkmWL+iwvO+eM3alSLaNVG0bD0lU89Y6acEI4KoXOYVsEb6e9nUIrccaRZkd012+G4opHgQuHxymh6P6on+tAVvAUKUOLqDccXngxS0AR7vevZSnKBLYpueq0e4PdUIKgEICx74Yyiy2HqsBkwMG84xrTeBlmOsOEdCRyCFzY/gt0tvWvQguF8yEB/8EZOH4eSeSQnmP+rlW+ub9MayzYThTD7N/dt/CG855IIBAp5pSVq5amDC5emDFADoMBqI+VQ5amCoUUnsZc4Mq2CgiWwVsF+2BcMxiPKDl7rsubAkOKToF/miVBX74by0GakncyWNXBhqRcx8I6D041/5x8CS5B94mkqQ0jxQgTd88GuMTBl8CyYOOCXkG3NZ7Halc2hZpERnFL0SXXwt03PwnbfGiwjjbFwqMoqYRqpgqWF3aMJ1Uqm0mPug+e8kHBwLRHanY8Hlt/yi0rY94EihFlBuZCNggBeqRImFF4D/zPsZrW/51XABubwp7Ui0C6SOyq/hk8PLoct7o8hGHVjhbjY+g6RdaPa9Wo52OQYhrH5LVT/DZqTSkqviA0z7WGHHBiWfQaMKp3ENiqkdb2tgZOES4x4TWtr/v7NS7Ds0MvgNBey8IZ8GAAqB3XGmUretgvM5xw/bty1bV6E3LKUk+CelVd+WKdUTIoJ2RhohnN95BCcW3I7XELGIXoQXLFo4zot5IG2SccWRIgoQTjk2Y+k2Qyba9bCnvpt4FO9JAE1DU280V4k2rsRqTopDi0PkNFABaSG05wLfR0jYGjeCWyZQGlOf7RD+BJF+mmtu6H0KL90Hu138o8db8J7B56BTCQJ2Q50Bh+ZNQaUQ3pCKl/ue8GDE//4gRrcJqSUqwXLbhtSJfywIST4dH9nT1Ngz8iGmBV0N6vhnJ43wsVlV4PdRLtVtyXzvAJ55cTOpueJagJH2LYTld7DUOk7BDXBSvDLHv5AGhLMZLKyt3Ll2oqgOLM3FDqL2XuVc+2FeP/YPi2cym3TbjS8RQOJIdkH/9z+V3iv/BkkXxESFbUWM8pTrJA2gkiYqeS8tWTiW79Sg9qMlPM1d8XUP1RD+a28XVMyXGT6IpY9GrP0SodgXN5UuHTYtZBlKWC35H19MjQSPTvk7Z7Q+BoKlSACUQVJKXO3n+ZYzPihB+njNEVDsjEaJgaPb3yGJ+KGt7e+Aisr/wQu1CTMxWc7b7LsGQKerAw2xRnOk0tHzD/7eb6mox1olzHbGJf/evJ6b7RuWhRCTraIiP8aBiosPVrxnW8D7K/eB31yjoZsGz1GQTHUxdD/5qq/UY7YYeJ2T6HU8ZixC7Kg7UIf2ruF1sokJEFDEMUmiG8CJB31K/h7yLcXXtn8BKyveYdpEt7LcOq2lkqqkJHs1MjoCQuHnLXk4Umv/lWNahda7lRbwG1nzD+SaSp4mASs2RJGgxR3BrrKO3xfwu/Wz4IvD67EsChKmfieclEMBVFQFqOw8fAnmOfZsM37MdjNfFF1g2tjIPj2r2hhCa7D/bKGPMVD24+UNQph4YyFG74LbD8P3eWS1gw5PcCcVCSlSbSysYt1lR+Av16Bntml2EK74raiAtSEKuD9nX+BN3c/AgEhyLY5p3EM8qqMpwlBZpspZkH+XbPHPvmpGthudDivc5ZOG+8xH1keAVqdZjyom+MKjHc59VIN9LIMgXMHTGGvvM9ovL6UTkmaqRYjEyJ2ReNrE6dDBvNX5Z/D+3vegP2hr8Fl4psaEvigQvvunRqQkkIEspXCDVf2v2XUiH5npbwqXZfczlpx5d99UHkZiSyd4IYsqlYpChHJD2XZY2F8v8nMdaX5EvUs9T8dNbYoEldwi2i4RKto+qsF8rToRdc7jmyB5XvfgW/qVoDZ5GQPlnUWzIoVcqHX+IUT/q/Ng2uJ0E5JJcbiNbMGl0d2fR0Co93l5qDuTqssgDC24rASgqFZZ8KY0nNhUOFwNHhpu1Tew2o+CiFWwe0EXsbSwUu1lAjucBXsqtwCnx78EDbVfYjdo5PNbKd0D51AknHIuX96auLfp6lBKUO3Uty3/OqH3XD4vnQZtjHwItDCKrZNN5IirNQxDdMrYwSckH8GDCs6CUqzjwKnJRPP1seWIoe6PuJjq9E2V6yDr6vWwA/+rWAxWcAs4n3YlEKKZNQBRGa7nOntYx988swzHmnLCw1bhG6lePmLJYXb/Bs3e6CymITE+WKwkGh0Vh1y5xOVXJ+RsUitiR4UC8kesIAdetoHw7E5I+Do3IFQ6uoLWfY8cNhcbNaZPLeWwEZZlCj4w3XgCdTCIe8PsMv9DXyLn4PBLRCGINjEXOZe09n8GsoLP04rUA60wl9EEzZbKnzw0bNfm6/GdAi61uS85TdeXwPlL0bFALZudJtZaCcIqxmodUlImogcYP/RVYQ8c2/o4TgKcjMKIcdWAJnmXLCZ7GAycY0jS/RmsgD4InXgDlWzkdsK/z6ojuyFoOBBajnYTgc00Zje7rYl8JyQO5whuXYPzznt5GtPvkfbV6RD0LWEClJ51rLLV/lM1WNpIU+ntKgWQcUl2tDYQhQkOYz/I2wvOdIa9OGgfJNWNLMRWhp4M2ELJe1D80JkGzFDmuaSuhQoX9j5KhboAb2vfWD8/72qRnQYujeF+StuOK1SKV8dFSMWvnq/K4G3OMoWn4SjASn+n4ViWOMsa+fGQOShToVaLU+gKzUG6n4pd9lK/uolo/56lpDBZk51ge6jZPPHv/iFA3Jep4fGWMZRniRM+t/pYHLjC3coT42JzA7Jxmn0oUA6hz7c5oqBru8KJGkiVsyzVbJFcyFvjp4kIehOFEKOped8k2I7wvcD6QoMUYF54dVLRGABDR+ey9h3/ml8RGSJhXUF0Eta6MPpQmUQ6UGz1+aMf+5zdoKOMIQoc8c+uT9LKHiGPyFP2oRapyG3+pmDbyBA1GeLpSVLVaG5WBcvpzkMq73jMoY9bgHHNjZxSk1QX03YDQTpEROzmagbNUGBqfiZWeOe1F4rpisMI8pVo6cHkN0P0wNGzHDsSl3QTwbovWEDjKBoHUrm9iGmk9r0+vxUYGh/MG/cs2+45KyPsDyc/t3QHeTCWxQrFFpLHr503M18G3ADYLjhkCnkzzKDPcQNwW626AuUKco1E/JW3Dvm6dfVQENgOFHmTXh2c65Y+Cb6Gfitq/gLPxWgAYsOcaG95AE1wDAYThRCb0u/+TbFxTZp43qlmzCpQ9PKtCBbgBwx/8W7Rz/2mRpoGNJClJtOv3+/Q8l+mM3/sHLSbbu9oPaDFiLxIzJi7YqzItOfO4+HGIu0EIUwwXLuM1bFtZEPepHfT7futlnaC7bduiiDGRudVcmcO/v836dlM7u0EeWscZdHXELuPVaFXoatobsLag/4mhtsXLJITyp+dV6fS/6sRhmOtBGFsGjCiyvs4HrH6Hcq/1TB9+ZX2JvDHHL+PWMHXZS2nZnTShRCgal4rkPOxAJqU/rdaCt4Ry2CS3G9s2jis8vZ1zQh7US598zfbbfLGU8JivFv3fypgbSJRXHU58iFc9SgtCHtRCEMcB73uAMtdjJqu9F20KiJXXY8PufsZ3aqQWlDpxDlxtFzq3LEgnvpUQJOlW7vJxFiUuGeolPJ3jvYOeIZNTCt6BSiEO4/64VXs6DgBf5kLNIFDdxuujQFH0agIwk1iTPUQ+xz43WjZyd7uZGh6DSiEM4rufD2LOj5rghoryBXujuipmBNRxHBLGeGbNHMybPOenyZGpV2dCpRzii7LDy536+vyJbyf08LgtP/TFDXBWkTmh+jd+f0sPT55ZJz3/iPGtUp6DLafu5H117mhZpHw6K/P1+1xbukn0t3RE2EysqbikwvfgST5Hi9WOgz875JTzR5d05noEvVw2P/nJnpd7nn1il10wLgKZLZXraUSVrjisRhq6F/YlqnWXEs9MYc2fZ5NhQ+Om/iH99XgzsdXbLBPv/Jorzv/VsvUSzShXJUGRERA6Uhwce3AlXP+SmASkN7wFlku18QxJ2iInziEgvenX/W86sF2t+jC6HLy/21Vb/PPmTeXbarbmNGKOyRTWzl+U8DEnKhd9ZxYomt//7bXQt2C8d3G2nd+FED4P8DACKGNdr1A1wAAAAASUVORK5CYII=;" parent="3PrFZPDsfoUqDwBEQ-ub-1" vertex="1">
          <mxGeometry x="579" y="186.99999999999997" width="24.91" height="22.2" as="geometry" />
        </mxCell>
        <mxCell id="tIqQvR4jQwkFoqSZPl2D-5" value="" style="image;aspect=fixed;html=1;points=[];align=center;fontSize=12;image=img/lib/azure2/databases/Azure_Database_PostgreSQL_Server.svg;" parent="3PrFZPDsfoUqDwBEQ-ub-1" vertex="1">
          <mxGeometry x="454.37" y="184.05" width="32.17" height="42.9" as="geometry" />
        </mxCell>
        <mxCell id="tIqQvR4jQwkFoqSZPl2D-6" value="" style="endArrow=classic;html=1;rounded=0;" parent="3PrFZPDsfoUqDwBEQ-ub-1" source="3PrFZPDsfoUqDwBEQ-ub-16" target="tIqQvR4jQwkFoqSZPl2D-1" edge="1">
          <mxGeometry width="50" height="50" relative="1" as="geometry">
            <mxPoint x="424" y="140" as="sourcePoint" />
            <mxPoint x="338" y="183" as="targetPoint" />
          </mxGeometry>
        </mxCell>
        <mxCell id="tIqQvR4jQwkFoqSZPl2D-13" value="" style="endArrow=classic;html=1;rounded=0;labelBackgroundColor=none;" parent="3PrFZPDsfoUqDwBEQ-ub-1" source="tIqQvR4jQwkFoqSZPl2D-17" target="QXKRnF0jpZJd9bjVKJsu-0" edge="1">
          <mxGeometry x="0.6213" y="-11" width="50" height="50" relative="1" as="geometry">
            <mxPoint x="670" y="370.7599518168837" as="sourcePoint" />
            <mxPoint x="470" y="289" as="targetPoint" />
            <mxPoint as="offset" />
          </mxGeometry>
        </mxCell>
        <mxCell id="tIqQvR4jQwkFoqSZPl2D-15" value="" style="shape=image;verticalLabelPosition=bottom;labelBackgroundColor=default;verticalAlign=top;aspect=fixed;imageAspect=0;image=data:image/png,iVBORw0KGgoAAAANSUhEUgAAAGsAAAAwCAYAAAAW9oQ4AAAAAXNSR0IArs4c6QAAAARnQU1BAACxjwv8YQUAAAAJcEhZcwAADsMAAA7DAcdvqGQAABbBSURBVHhe7VwHYBRV3v/NbO+pu6mQQkIHCWAIvWNBmsDBKXo2EJQP+FA/4Gxw4qEo7Yp4KtIU9VARlCIKeCCIBkgooZmQQEgDUjfbZmfn/m+y4Ugl3IGfwP1wnN333ryZ/H/v3957s9yh0+ckg0YNwSNAyXEItBjosweiVwRH/3hJgkh1apUKoiBCqVJCY9KhvLQCJRcroNRrwKnV4E0GlDo9KDiXB4/oQ8GlMmQcOoKfU0+iR8/WuGvYQEQ2i4BE/bFDQfcSfT7Y3R7oNRpIADxeL+yCAKdI9+Z4GNRKmOjZvFTLA2d0Sv4hjUpTIKi0mQqPQ0OXcOFGg5PO/zYKy+yPcRKOWwOMe/1Fv1pw6ZnnJR0JRclz0CiV8BIhWo2SyPICPsDldEIi4TPhanRaqNUqCIIXnEIBp9OF8goXnEQulUAXYUUpkXho935s+3wXjm87C32YGlkFTrRqYcGkZ4ej76BeCAi0QJQJoQeghyhz0OCgM08FSiWPcuqPfTbrNBDpTMI8p5B8gxNDg07IT03It1eyS0FkMZ7/LRBRv6GTxWYx/q2q5NcN7uDPuZJawSM82Eyjl0NpmR06IkRFBDrsDiJGgOSTmMBgMOrBE6miSN95HnqDFgUFF3E27wJ4IrrwYgl27z2Az17bCWOomjRQ6b8L4HX5cOJ8OYbdm4iHnhyFTl06QqvVwCf5ZE0rJ61khHF+wjh2H/pMg8RLGt8zIci8v6qz6wMiaijdLRGQ3iayKv3Fv2pwpwqKJbNaQYZGgopXkIbxcJFpcrkFqIhEL41yslakbWr5AomEy4jUarWodLhI2MDpn7OxaeNOfLVmL4rzXQiNM8hta4Nkj4oLHmSXOzD1f3pj9APDEJ8YCwUR4yVNY2aUhoE8EEi1oFBwkobnH4wPMn/o76LJKKyotNGpxGYyeKpKqkAksYcbTEcmPU6G1WIkE3JzgDtTUiGpSIqi2yX7DrVSIRNVXuGAjgjiiByFgmmIBDeVOxxOGAw6qKmustKBPXsO4NN1W7Frcw6impHmKWXrdFXkZTmgp36nLrwPQ4YOQFi4jXyWUFrqFIw8T70QWSqen5AYYl7rv6QOzpeXaiTJS2RoiV3ooyzGiqoamSwtnTxEFg21f4HImkCnWNKmeVUlNw+4H8kMBgdboCYyZI9Nsvb5zZ5IvoqZPebsWQDiIB/FSGJm8XD6cWz8bDveXZGKuCAdDIEq0rqqTpsKn1dCxtly9O4egYnTxyClV3Km0qD7weH2DKX7T29lDVjpb1ovCiqcMTSICsNMeue50gouOsDU6BMUllWQ2ePuIaKW+ItuKnB7T2ZLCgoWggMDiTARPJkjvd/k+Uj68kGkuckcqigizM8rxJZNO7Do+S1QkckKjWMD+N8HGxzOci9+vlCOSZN7ov9dvfbcmdJ5Yqw14Li/iYz8Cg9Tb7KNEnu4FvRQlTS+KMrg4smEZ1A3diKthsmrRkF5BcdJ3CL6mE3t3iPTZ6+qubnAfXfktMS0RUUBQmCAGSoyewYyhQryG14iiWmLV/TCUenE7l37sHzp5/jh4EW0jTHKQUBjENxkQsks8orG21XjUpYL5nA1uvaPP92td+dXn5o4ZjUFHL68So+RSGHRSCnZRsohvG1JveMoMCkm+6clxr+lB2W+hw+r5aMYCsvtLDd4gj6+f7MEE/WBW7HlO6lFdCQ0fsKsQYHkv9wwUPiuoajwUkkFjh05gQ9WbMCHH6cjIdwMjV7BXFiDYASXnnGiRUoI+T43PJUCybNphPko0nTbvYhpH4I2d8Tt7NMvZe7o4X2/Y3XnHB4VBR1R8HqNEQbdkTy7Q8f5pPs4SIfpBpeoSQmRddMEDNcK7vl310kJ0VGIj4qQNcViMCAkKIC0wo3z2Wex4ZOtWPDaN4hSaRDQjLxaIyQxPuxFHpRUCBj/TF8MH3MXjv6YhpemrkNsnNHfqmnwklYy39kuOQodu7Z+f+T4EUvbx9pKi9weIyXTORF6nWzK8ssqW5CDbUch/k9Wk+G8fPEtCu6tL76RCoqLkUiEhYYEIiI4GF4KJLZv3YVlczag2O5GTKxBJqIxMI3IyCnHyOEtcf+jI2C2WVFcUYn8U5l486m1CLtGsqrhqvDCEKRGx5S4krtH9P/wnmEDFoteUen0CLmUOHeA6AsmWksFn1gaE2A56r/slgS3I+2EdCrnLApKStGhRTx85Xa8vXAttu/MQetmZvI5LCpuHEVZTigopZ6+dBS69u4GSfBg1fKPERhD5pXysXXPfQpLBHN+ZKFY5qujoETNApNG1PQKMLPqKBZgJcJT+rXbP+HRseOi4iMTJcEb5vWJP9m9YrFOxesUEncxKsB0UwYPTQEfbQ1GlM0Gi9GI45lnsPSPq3F8ZyHaxwc0ShTTNLdDxNGsYgyfeAfW7nsZQ4cPxslDRzBp5DysXrGXrqckm/pglEgd74HU+wFIgx8AWnWi6KPewK1esHsZglUoK3Ji55eHkr/+6tspVq3qO+p3A/WcrebQQcErFLcyUQyUf/KICbeibVxzeCmXKjpTBksMBU9XGfTHMisQEKrFR+tn4vlXZsjJ9Btz/4TJj74DFSVJavoXawtEsxAL8kFRZcdR8HWbAF/PCZDa9KEIpNzfU9Oh1PDwuLzIz78QTQGLO9ysL48KMDutev0OhYfP8je7ZcELXh8CDHoYdHpEWK1Q65QNE0UjnPmQo1llmPX7QVj12R/Ro2cyvvpsG37T9QVsef8o2sVboFCzWcaq5Fqp4MnysZl2n2zP2En+XxOjw9qQ0wVJYsb0Mow6tRgerLvK8Lr5wZc4HCh1UH5jNMAaGACO5UT1sMWKCjIrEdkyEOs3/R+enPY7SpALMOPJuZjy5ApYmqkRwhJk/6XMgJI+wS14oZGpu36g/OqWJ6Y+8ILPhzKHU17mCDQZyMdQ1lJLFOy7QLnPg3MG4dnXpyEsOgJr3/sYA/q8iP3bcsi/BcrJ75VgQ1/B8XJyXUMNrgq6WSNcsKhTb9Tp/F9vK8hksUDCTf6q0uWGSkU6UUtW5ZTgDnqkO+4eey+bDMdzTyzAnNkfol2sGZZwdb2yZeGDmvrVa1Ty4mGTILgBp6PqoDyvPrgrRASFBEb4v95W4L3ks5xkqrRqFRwuF5yV3jrTSCIZNL3FRLmnCL1ei2cXTMZTTw3C0TOl8DhJb+q1cj6YdBrql03p+a5uCN1OSH0nwzdhKXyPL4E0fApb+fRX/gtaixKFuUXZZAn9i2W3D/hy8ld2hxtFlMCyKSeNHGDU1gSO8igfCs4XYsm85aD4AU8+8wRWrJuGAKsOeeTL6lce6XIccVXdEgVIQc0hWeMh2VpACmlOmib4K/8F1p8oij6KBm/ZaaWGwLPl9aKScpQQWYVldnmGvfY8HufXC7vTidRPf8Zj/V7Bpx9tRMv2rTH/3dl46Lm+yDpTAUcpCffypZLsr9jRNNCFPtJSFi3KB/N0NZ/jMmox7xSkELdXCncJUjgNNLbSUy+oTkuH2f+1BqhcRYdVlKQwf9GvDkoWrbHh6hFEVJCGMQdeH9gKLjNpluYaOSRfMHsDdm7+CQ9PG4Nxj49D1+5JWLnsE2zfkY02MUwedih5BfmtqoXLK8EoECnNqqSDqQfTnyAjPQxVXFUDa4EErHjnr5u+PJ99qb3g8Xq9gi9/5d+2bn34iSGzadBdtqOs3XvLv9qQdbwgacPf9z44Ykz3r/1VMha89OGrLqfwpFcQvY+NXJyV0M62q//ALi/c2SeRHGgVtmxKbfn5qt0rc4+VSvoglehx+HiNhdf2vqfFjKnPjfuHv9kNA+X9CpYZy9rENqnUJyzms9gyiov8myhI8pJHi3gTzh8vxtOjF2PNWx/ASon1oneex+Kl45GRbcfTU4age/cucFWyv7WmhlA3sPWWMPQFAeNedmPiK04kdBfhFhvQpNqo2Yw7kZ5n2bbwtN4WFWguveRquWXdoWkbP9t3n7++GopLheUJh7afDxUEbx3tycspbb5l4SmjTq8OsEWbkr5dffJ/9+5Ne9lfLcOg1+hiWoa0jukY3LUo1d0zKEzfrXWn8LaBweZ6tfV6g2fkMFPFVoQbAmvD9kWwxcfLoEKtWYm4ODM+Wbwbz06Yjx/3puLekUPwU/piPPP8FGRknMLyZevlZZUr4SELZ0sQ0XWgCz2G2NHv7lLEtvSAAr0mouaQonTDZ4lTo+eAjmjbOZINPrZ1qtBffRkUOHlVOmaWaybVDJRliGwx9cFJg/G7p4fgUo6b4hsh2V8to0uPVkdnv/JgWNd+cS/o43mERBrembvo0cBRYwfV0NIbBfJZPkpgSVuIrFqu6grIdFEAwtb5qkqqwb5bgjVIO1WMo4dPwUX5GtMyttvpYFoGUncXUtBS12+xGIZtxBFJm8htyhtvGh4ujYNZBec5ES8+9CE+eu4gEjrazoeFBWX7q+tBTbIZ2N+hCuKx+q2teOu1TYjspIdWq9rgr5ah16q8dC9XRYXDrlBxKCupdDJTqzepmj7R+R+A95HEyKnKgqrSrvpExhLlqjZMMNVgezHOZNoR1ykUn26eg0nTHkHm6WxMe/wlbP1qB8ZNGIWXl43F0awbO7/KZq90UQos+PgRzPt6NLYuOtFsx5bUmf7qK8BIYqOiHrLoUBp5nEotzP3hvVy06x5+ftrsMSuqamuCZMD2vjJtrE9YNwwyPSIJne21YMPrCi4ug20QM1ByK+8ZZCpAKD3jRkm2G9Pm3o2Z86cg2BaKleS7Rt69AAe2nMXERxbiYGo6optHUuvrHWXXfEgKinjHGS8y0jJx9GAmdGSezYFsObsmaHApBIe8T7HOX+n1iBynlDB4TId5dz4SmZG+Iy9y+aKN9/ira4ACLM5T6QMFM78sWWZKchmYSWLaUx8qKMBgMxFWi1GeQTiWXYb+D7fBos3PoP/QAThO5m76A/Px1/nb0TbWBEs0i54t8m4ogdm46zwAa/UmRcQElXeYEOb8en1a+an0Avu9M9tu7TUw6Q1/fTVEU6C+oF2/cBjr2VjTLCHYcceQCPAq7lznlBZvJHQLkYi8WSSTOqumISEmd6fB4YhvY/uPtm5fK5Rs34VRq4aDQng2A18fYWoSj0C+jeVkhgAV/rJkIpL7dEPuuTy8u2QNvliThugIPZrF0991xeWsK1ljrzNY9FoNMkliZuaF+zwegUU/kk6rQUxscN5zL1XVV4O1O3Uqbyh3D2fUG3Rsv0YN/OahgTNFUXpRpeIvRjULdfcemLSt0mHnc/Mu1Jn3GjAoeU3PPklfUmBW8ftX/YW/AHgPkcSiQR1pTlSgCSaDSs6jrgTbrcuWOIwWMxZ+NAcduyXh603f4Jn7F2DP2mMUEZqg0tbdRMN8Wu2+rgfYlusrER8fWtS6dcR5OvIYUf7iOkhMjChNSAjPjYwIqKMRzWNtJXEtwnKjm1tdRKwUExea17ZdbG50pLXONEpYVFBl8zhbblRMaJm/6BcBDVEJbq+IuJBApLRsLhPDTOKVUFOzSrsDJguRQqTOnfoa5sxYDbVJAUtsQ/sGq2bvWQBzbfCTW5/zrMb15/+mAN8sNAB3NAvDHbGRktPp2lRWIUh8LdccEaXH5nXf4cd/7IdOr8f4ySPRv1+8vEGmMc0RfCzduUZ/xdrTEOLclycO6qB6+ut2A2/WaZEYGcpe+Znxl799/nqIzVBHvAoNj7JCJ6aN/zPWvfMxmYxm+PP7c/HmknHIyXagOMtVRxGMJHE2fVXmcEHPpH9VEOm8khh2gj+8DdzW5WzKwF9XE7cnVSSeOFvwtzzHjyMNWBoVHqRhU051QHJk+x+Yb1q3eDfmPDYfaRSW3z9+OLb8MB8DHmiFI5klFP6SyfNfbqeLjFoVzDoKXq5it1i8wCuM4LJTodjyGrj1C4GyYlbob1ETt6kVBJ9ZcFGfW1w6gaJAfaXdSflx46KIjDegpMiF345ehAUvLYNGo8G8N57De6sny5M4Z9lyiR9Kedt0VX/1aYNs8YiovFwtcrK0MO5cB5xJAwKDSZ3rX65ij0dmsH4Wb3HwDo+YUlLpvreg3L66b98uksGkhbOs4Uk6Jiy1ToF2cYH4+/IDGJM8G1u/+hb9BvbCuu1/xKPTe+BoVgm19BBZCsq6q0xgzSHA9r8Djgoee7YasHBGAI7/oICWwn+oG1zhkFcEGMEmi6HBiO9WBqUsnDzddLGs8v4OXdpH9BnY5d3YjkHymx0NLZdUIzxeB4NNicmPv4tZU19FWWk5Zv5+Cj7fNAvNDRbyVJz8LjKJueoCBuKOAkqcP8Ljk8V6rJ+noftw0JiqBkJDcFV6oVTzuGtkUnbvfil/8RffVuDScvIzSUhxCkgfKBSKO62B5lXr125MP3rk1Jup359MvJBdCX0gSbc+O+YHG+0lZ93IFTxY8Poo3D/uXvnFO4/bg59PZmLs/YvQevZqINgGrvgE+H0fwHfsKHwKNZRX2foiuEjLaUC1vzPKmdKjw9vDRwyd2yLeWuqvvq3AHcnJX02ydnkldKeB3Za9XxwREjAtUKdZNmvOkqk5ZwsWHf4+Sym4RahZ4tsIWBJ8LLscA3pHY9rsCUjpeSe+2bID48e+hbZT/gAUHQO39+MqdjWMpYZVSaQHYvs7Eu8IRZfkNpuTunR4ZuSIfjXe2brdwKVl53tIduXkDcirM1MkQafiEWI2zgwxGRZt/v7wqMP7D0zZtfmHPplHLipZVFh729mVYDxUlnqRdcmB6TN641JRKfZ9kwWtkQIGOymEnuwda9QAmClkG0ltMUZ07paY0btv8itjRg+iyOO/4A5l50s1Ele2fED/6dUqhAUYu1EeJr8l//6qL3ocST/+5v7dGcmFOXZoDMrGZC6jMMsJY4ASxmAVaR0L6xvPt9ykSXqTEu06N7vUq0+XZZMmjV1Iz/aLTpb+mkE+q+AKW0QfGQMyWUpGVhKRdchfKWPxktWPHEk7Me/A3qwoZ7kAdd2ViGsGe0OSvV/cspPNl9Krwwf9B/Z6MSW5bSOLh7cHfD6JzBBaVX0jZi6TxbEVYw4+iSIzZgZN+tdCTcZZcl0tHDqcbd64YfPzaanHnz5+MF8OEVikdq1gPs5lFxHfIRgdkxL2JXdLmjV69MAbvvHk1wYihW1atVBkXsMnUzkLpS1V3yBw6cwMkpyZ2WNgYXygQbvIajbVs9JaE2s++DIx/VDGwrTU08NyThRDRf6sqe8Ps9eFzCEatOkYnTlkaO/lA+7ucy48wEjRx+0HIoXNq6mJrEajXO5obr6kVargFtjPKBCNOu03EUHmQf76JmHlqo1j9u458GJ6ama74jynbBob8mcswmNBSkI7W0VKz45vjxo77JXEOFtZTtGlGRTc7Imxhfzkb/pf1AJ39mKx5HB5IUg+Mn0GiD5RcHuEqfFhoW/72zQJJGj1kj+tfnbfP9Kmn0jPC2GawzStGtWheMtOVmbyvkhOSZo1Yng/+beYsgouJFEg0d+kkhaFBIVe65rK/yv8pkoirbjhO4S5k3kXJPYjWnqtWtYG+XcvKHITBHFiXFjIO/52Tcb2HalRu3ftm7//+yO/zTp2Sd7hKTh9XHQrM9p2jElP6dX5Dw9PGPZpVWsgM78okW6bEhduXeUvumlARLHFvLZ0nCKyLv+6zY0Cl1l4SWKbYegj+Stf1cYfNgUlSm7BLXSIiwg5Jbe8Rqxas7FH+sFjb548djY52GopTurS+vVp0x76E2nQ5YWqrMILMTQ6+os+YWVCZORNpVEMRFYUnXRE1OmqkhsJ4J9SsEPnw3OhMgAAAABJRU5ErkJggg==;" parent="3PrFZPDsfoUqDwBEQ-ub-1" vertex="1">
          <mxGeometry x="679.5" y="382.72" width="83" height="37.23" as="geometry" />
        </mxCell>
        <mxCell id="tIqQvR4jQwkFoqSZPl2D-16" value="" style="endArrow=classic;html=1;rounded=0;labelBackgroundColor=none;" parent="3PrFZPDsfoUqDwBEQ-ub-1" source="tIqQvR4jQwkFoqSZPl2D-15" target="QXKRnF0jpZJd9bjVKJsu-0" edge="1">
          <mxGeometry x="0.6213" y="-11" width="50" height="50" relative="1" as="geometry">
            <mxPoint x="680" y="381" as="sourcePoint" />
            <mxPoint x="632" y="402" as="targetPoint" />
            <mxPoint as="offset" />
          </mxGeometry>
        </mxCell>
        <mxCell id="tIqQvR4jQwkFoqSZPl2D-17" value="" style="shape=image;verticalLabelPosition=bottom;labelBackgroundColor=default;verticalAlign=top;aspect=fixed;imageAspect=0;image=data:image/png,iVBORw0KGgoAAAANSUhEUgAAAG4AAAAoCAYAAAAfWs+KAAAAAXNSR0IArs4c6QAAAARnQU1BAACxjwv8YQUAAAAJcEhZcwAADsMAAA7DAcdvqGQAABLGSURBVHhe7ZsJVFTV/8DvfbMyDPumArIom4qKZgrilhtqmJqWCi6AkFqKS5miuGYKkZm54lKWlrmllplppaaJC0oqiCI7AsMOszDDzLz3/943DwQBpbLO/3fOfM655733vffdd9/93u9yHwN60Sg2LenE6Cop7tLIv8QLnWD5kskL9amX0+WLph+rPZJoyYmN/Atg7viPkb8/ZR79+N4WpNdArxTCNp0viiaEjxQNmQACIy8aHnf8RygS3vOjc+8cQXUKHsJcl7VVrvriErzhj9RfDQIjL5IX4irpwqz3UG2FgFiaATBkRodQdfFcxcdLetddOiHkKlgYhqGU29c4KxMWuXIiI3+Rf+QqFRsX9KBlOZOZioL5qE4ueaK4RghM67BAnItMLP7AFrbfIj3tylQWzWLqVF6Y4jHY2WeA2arEFK61kTbSquJqj+6U6LMyvJjyx050USpFte+qwZb2WdJlWx4q4hd1Aytbx1QVBoPCeGBC0FMrXZE6xNXzRHBKIzYOkkeDDNu4rzb/7Mc1bFsjbabZbIMbw4pl01bRpVnTkV7rCpOM4QiTLoAiVmOBSRqjU3dC6ioL9oanrYwoxnBiOGfrDUoy0OiRUI/bdT1m/snxiZzESBtp5tt0dy6JmZrSWUgpc0OaGlBanaGCHDXVYkZR3ItVGlFIvdKIVdUrSWSuRxIbGTZ3zMAOXTOwWftMZGJdhfgm0BCUxugN99TD0HLuzMhfoLnF6Wv48rfH32Kq830bMsRWIQqDIjDVYjOH81hidgzi2A2qvctjvqe3gt+lN9YmX8a6h2lWdFmxN1NTPhopyicxytKOiIbkhVihyDyf59F3pDTms/tcp0baQDPFEWrmDDvDVOUHNXODjSEWxhMibN7hJ2zvHGO2es9truaZ1B5NNNfdvDiLLstdjpSl1kT52NLlPr//qwGS0OgqrpmR59CyZsRmt56rNAEkke28VplvPzuqrUojmEyMqjHbeHATv9fwPtjW4xKi+IipyvPR3bqUwDUx0gZa1A62sPkRCUhMItkgETQqRMYXIcrBY4V5wtG1RPJ3MJ27Kksau20EdvA5iihITCtyI+Srwv25aiPPoUVXSah5Z9gVpjo3oHmcA9dm63XCfNOp8ZzgH8HoFQL54jdPM+Xpw7G153HzT8+8zlU9l5WxK11KSkqnlJWVviyRSOy0Wl2h1Ez68+DBg46FhIT8a253zZq14iuXryCpVIpHjQ5SR0ZGwmr+b2lVcYr4eSPorD/OoLoa6kn2CC5SaFHN6zq0t+m8uEyDsDmKtdMGMfLy15FO05NRFAmxqQONRGZZWCz9lXLy+F4SuaaUa8qi+vzDDvpbP91itCprXpfB3qbzE7K4qlZ5++133s3Oyl6lVqulfD4f6fV6yHUw2c4gS0uLHFdX10Ufb/r4O675CyF2Razfg4cP11VVVXWv09SJHB0dfzz49YEwrvo/pdVAhs3FKUiAKxGfuEZSSFyDDbN1+wOtKU25K8ZVvmTED3RxygWmJmMeo8wZgChtX0aV589UpobQspS9untn78rXTonR5d+FjSFC8nm9sCQsphA7uC5BlEZAl+cOYTt7BuFhERvS76d/BKcCT0/PTb6+3fq7urp4ePt4D3dydjool8tdHxcWxh87dpz4+xdCXFx8h7S0+z9WlFeMEQlFGrFYXGxlZXmKq/7Pad3iPnhjIiO7dwTR3D6OjW1ShnIP7Gcave06J2xAtX1hF33WtTOoVtaxYU9X72bZvRvIyDoh2weKZKPOv/H7jJ8qHj+3mG3CMJRi2bBUjKkb0g3nphNZS8yd+/aYzEeZP1AUJfPw9BizZcunyVxVAwsXLHxVIBBUxH8U/wcn+sfMmhUZmZWZleju7r57z97dUZwYjXttPD5x8rtnusoZM2bi/fu/eGabv0rrilsT/ClTkTof/I9BAJOPJc73TSLjevDcA7QGoQH12T0S3e+HksDKDHs/oVU1FlkdR3whTCoIGKYXbOaDGLXMgf34zD0Wm3dO5vUeM9RkXHQ1uVasnzQfqatDpOt+7ss2aIGJr0+8XF1d079rt64TNm/+pM2ucOn7SyeAlSCRWJReIit5WaPRmFpZW+euX//BD2z90mX9C/ILAmEBSWxtbW4HjRp1Ghhtairhx8XFHZs/b/7q1NS0VR4enb+AePobjF4MLvnkylUrZeRr0+JFi4eXlpb1JS7b3ML8yoLo6KR9n+97A6w/e8eOHRdjYpa/VFdX5+fj7X3x2rVrA2vkchcrS8v7/gEBJ6ZPn6ZiB8lB+oueHz2soqKiH1nnVtZWV8LDw64ePHjwTRh39tatWy+2rrjVw84x8oxhT5ITGiba6yvpyrPNrEHx4djFoGRI50G5pm5JVMc+0yQR8Y+4ahb16Z12upQzMUxN1gKkq4H3Jl4aEh0bvwPSZd9NI22U22Z3YkrTdwt6+AwTjd9BTLQJMPkeKSl/PjA3N7/37eFDPSGmNWvTGiFTQ1NUKmUPvZ7WKJVKEY/HQ507d4rdvmP7B9NCp39VWloaqtVqEVgyomkaWVhY/A7tfKysrIoPffuN77x35q26dy91NV/ARwK+AJH7HRzs+44eMzrz8LdHvi4vLx9B4ms9Lq4uv1dVVg0A+ZcXLv42Y/q0GevhPEZiKqkCd2tJURjiMo1gkST7+vqOi10ZW0Du27Ur0fHSxUtfymSyV9iOABK7nZwcL0JsHaRQKL88d/7nGXyurgnKLdPeZkr+9MdsFOIGAxONxeJmXzeYyjS+akvUdMSrRUjilsPvMXqseNx7TZIPgnjMbCJbqPp0hoyWJW1ANPnQDH0rH4WqdkTtl8xJPM/36pOj19bE6u/ubdGtwKS6w6TCYmNuNlZa0MhRU0EeDqdqg8QAUUL79u0KYOXPA8WpwCIQKF3j7Oy0SaFQPOrTp8+R0JrQffn5+aE2NtY5jo5OOyQSk8r8goJgWbEsmCiSYeiGBUj68/by2g59nILnCTt16pQNcfRocXHxYFB0sotLxy94fL4uNzd3MrjzQeQeGCc3JqYOFgKqq9NYQuL0mUM7h5Sc7OzQoqLiIQ8ePNgGDV67c+cOf+PGuEOFjwsDbWxskmGcxL/qcrJzJmdn5wwiCoREjO2vieJqT68T0WmXv2LKbkyCGYXQT6yNzCEUokWxoIxt2Ijak4kuDJJ7IKEIYUvH+JaU1hhJ9P6NyoTgQKYqZQxrzUwlYhQF70DVedGwCBIMr7ANW4DmVjQF+77G2NnbucJqJ0lNg8uh9TSvqKjIBFzSQ3LJwDsIRULk7u42e+u2rd+QNh06dOgJ24kwSyvLgleDgweHhc3MJXJg96yIWYkZGZmR3DU7C0RxAqHw5voP158lstlvzR5XXFQ8GJSQHDJ16sCxr42tf/7OKZOnnAaljOauWcjEQya6fe++PfPJ9eXLVw4nJCT8CZY4CtyxfeKu3f1hwQRa21hfnTt3ztChw4aCNcCzGWbX1KkhZ4oKi0aSa0JDVgmVFHP/t2+QMnUS5ilBT2BhkEkaCrg0UniGiWsMpmh7zKNNsMikjjKzOM+Jnwm2sI3HIgn0Ca6VLB1t8QD14WUOhtrWgfiRTV6epvV+nIgFXnIzlHZQ3KC4796d2K57j+6RZJtAYZwO95AFwRMKhIyZmVmS4S7Qsko1UKfTIYhZexspjcXbx+dTqZkpWSxNMm+Gplk/RFDV1g4l7tHK0mprI6Wx2NrZfQIJEplX9hoOmM/nQbyyvsUKgMDA/gq9Tn8PximwsbZxAPcYSOT2dnbb65VGgPEzNtbWm8n7GJZQI8XVJk5ZztTljkdkWKSepP8NWwEoPMhHaGXzyWXUcsTXMYiPVUhkCsHr+fCcPW4jsbQAgeLY51Eqa0Ze6GWobZ34+LgM2PTeqKys6rl48btBnBj5+/urAgICSqGUkaOJiYnyzp933iCJgq2t7WmuGUwAazUN5grtJORIYQrcS1OkpqYaHmlqmKcW0Wl1Qm4hKThRAyCvJXXklBWw4CbP54A9Fsh5PEzcL7kHzpssAgIsICXXHwurOPWxpR5I+XAJAktjJ1IAo3268EFxFP0Sad8YysE5CwsFOaAES4Q0Hpz4mQhHLlNjE9satk/yPF4drGT1cy0OBs44d3TeRM5zc3L2JHyU0J2teIrw8IgVEHfGgst5+MrQV77mxGTVEwtoeHuYqOvE/UHseQPiWZOwkZ6eTjJC8CitJ0CQPd4kFgX3h3CiBqoqK0NIjCRj5kSGI2eBT0MWGbj82zAmVFNT06w/yEhnEu9Qvw7YwTIVtycjVCLFDTGtJUCuL+mnOR1rIxqzrpwTIlFQrKp2T/ABVHMrFtXcXwiiy4aa1tGlHILnVosxH9YNeS+YG8g1mmwxWgO2AIeiIqOGPMrMjLpw4cLlmTPCNtvY2vxsb2+nkhWXuD1+/Dg8Nyd3NFhmraeHR8SkSZOaWUM9EOt+mzTxjQtlZWWDQ0OmnVwQvWAjiCvAhb6ekfFoDZkoMAdD4xbo0b37kfKy8qWFhUXjwmaGf9XBsf1WHo+vzc/Ln5mXlzeHKIEsjLagrq0V9erld6hEJlsBycmEmTPDvnBwcNgG7lFf+PhxBOwhw0l/9bC9YlvfY8jULRPxYbP9tItsKPACuMKBLrsLiUtTeN2C47DU4xqjy5hQuy9ot+bKTnuuCmnOLLdVn4w24y5Z9DnXHBGlaG9wy9A3DzJMnqq/ofb57ErcNdvDw2MdpNNimKDYu3fv/g4pdDJkZUch0I+2srK826Vrl6Efbviw8SISQyFaaNAEsQYnZ6fpoPjboLzRsE+7BOXeo0eZa8gGHrJHHc3QrDsFyGgJDZY5Z+6cKr9eflMhIy2ATDL0xvWbSUlXk5LhfJ6dnZ0MthLEkkRccyFJkIAmlg2IiBhcoSAqKkoFsRn6synKy82bcfvW7es3rt+A/vLmwhiLLCzMiVtm+2MVJx6fkEY5vjwIS7v8Am4PomidIXEAF/mkwIsS16stfL/u0kdW5L56hP2ilFTnoFex1Ps40ubOotP3Zdfu8z9b+/mA03TJ9d+RVuHDNTVQWzgS42oTTD6hkb7JYtE8fFd9aHKrX0waQyZ8166dK/38enbr2NE5xtLS8his9NOQse0DhU0Jjwh/eePGDVe55iympqaHQBG7YBPe5OMzWHA+WOVAHx/vaGtrq+9hsn+BtD4+cEBgX9garDARmxwh7URCYRJsxr8WCoV32Rs5YmKWXQscMKC3i4tLDGSnP8EEn4M0fnnw2OBAWzvbzRBH2Z8nwr1XLcwtvobnN7kfkqVTUL4QCgRF5Hr16tVJI0YM7+3m7rYCthg/QYw+5+rmunzUqKABkNhAfxK2vyZ+gGSWmm8nvsWocxYiXaUH5OlECqU+nrIrBmGJ735xyPmZ7MVTqI+H+SNVwQhESd0gcclBQsvD4knfpHHVSJt+RKRL2nATafO6NVl8DFi7yDOb5zW5u7Dfglbd2/8igwYOxhcvXTBM3guiRQeuvb1Dos++MBhp5UMYTV4E0heChdVPMlgHhlTePOAj8YRDSzhhm1EfHZfAKK4vNnz6aoyhX8pq4FjRawe+54RGWqFFxTVGc2rKW4z86k5EftPT8OcdSOOxKcIm3vspp2ELBH3fb9PfvjQnxy1lFHc2IBqaN3yABktjzyEECZzTsOVLU0Qjt90xVBppjecqjqA5MfIwo05+KikhGQ4oku+cjU3c47CN7xFhv9UVhrqmaH6J9GTkD9ciTeabiCFbpifZKxb1vAOB7gaM5FfKZfgJQc/FzfYwRprTJsVp720zox/tvYh0mX5NkyIy+eTXWpB48RyKEc/iMqL4N7CgnQzpVRpI810ZbVUg0hYPQXQpl53Vp8eQSfI9H1CdZwUIus1tUeFGWqdNiiNofux3AdWlDmLTy6dhN5VkG0aUIoReyb8KEIsEpTL1v1quVzi0ZdSgtG5V2MJ/qHDAloZPQEbaTv3yfybamwutEK7yMnxBAYU8XYhcAIoRQHcCUBYfvB35iM2Hc7KpJ/KG9tBW7JOLrfsGGZX292mTxdX90t4O6Wvvg2XZcKJGkL+Qk26IRT2vO1Aaliqx2ci+Av/PUzmhkb9BmyyOsp+pR8IOevbLCmtdxHLIObhHkWc1ErlVkt9Zkt+kIAH5cEzaEGurt0au8MFtiuzLKKcBz/0xkJFn0yaLI2j/6HMD6W69RL7QIGQC2rRSIl6n40jaew1EQBVSPeoNe7PuEL+ckC6NQdiiN6IL+5K/ij9ZH+Sjcv8DAv9f2L94G/n7tFlxuuTgCEZXOAkyyFxMWSYjYbtz/O67s7nqZuiz4y3o0lPHkf7+K4gh2zywPsqDxqYjA/i+n10ztDLy/xJa9atAe3vEIm2yX4b2ZmdG9+e49VyVkf8F6OIdEn36nF5M9a9N/qXYyN8Fof8DnHLR5oV/gqIAAAAASUVORK5CYII=;" parent="3PrFZPDsfoUqDwBEQ-ub-1" vertex="1">
          <mxGeometry x="670" y="342.72" width="110" height="40" as="geometry" />
        </mxCell>
        <mxCell id="tIqQvR4jQwkFoqSZPl2D-18" value="consolidador" style="rounded=1;whiteSpace=wrap;html=1;verticalAlign=bottom;" parent="3PrFZPDsfoUqDwBEQ-ub-1" vertex="1">
          <mxGeometry x="430" y="322.65999999999997" width="83.91" height="40" as="geometry" />
        </mxCell>
        <mxCell id="tIqQvR4jQwkFoqSZPl2D-19" value="" style="shape=image;verticalLabelPosition=bottom;labelBackgroundColor=default;verticalAlign=top;aspect=fixed;imageAspect=0;image=data:image/png,iVBORw0KGgoAAAANSUhEUgAAAIoAAAB7CAYAAACrSRjYAAAAAXNSR0IArs4c6QAAAARnQU1BAACxjwv8YQUAAAAJcEhZcwAADsMAAA7DAcdvqGQAACkcSURBVHhe7X0JYBRF1v/rnjMzk/sgJBwCKhA5RPECBRQQddUVj9VPUfBYb10BEWVBEfAAr139Vt3Pc9djD//qrrq7IpfgBbKggJyKXAZIyDGZmczd3f/3qrozSWYmx6R7EjW/ZJKequ7qqle/evVeVXW1AF0cL698MrvaeuC4XbVf2UORWsUEIihq3I8dUfz0yT5OLLH223ebMO974XSrzGO6HrokUZ5dMzd/j//7S2Rb9EI5Kh8viaHSIPgAFAkzLPxkiKIIAljADhY5wy8Kwk5RET/NVvLenTfxjx8LgtClitmliPL427OyfLk1c91K7bSQ4itUBAlJoTBy/JQIEg+tZAKYFSSOYvsiW8h9dP6EF99TIzodXYYov11x7WUe2b04KtT3kwUZTBhGJCGa/FxATUFBzpCmMcs2sCqON/KVohlzJ/2hUj2l09DptbBh+3vWt37462MesfZOSQizMAVpIgB2M6yh/XyIwqlCf6nMEjvCbml3rlx0/YJJL62mMzoLnVoLK3e+a11W/s7fPMrhi6JMd5ChillCjSJQ0/oZQkZtQpUiYvlRCigLCcniCDvD2ZMXn/fGv/lZ6Yeo/u8ULN33jz945KqLIiLa/ygg0iWkSUhIP1dQ2UVFRkngD1OpIkSEgDVk9r2zeM30ifys9KPTiLJw5Y3T/ELFDZIQQQViQQ0SU24/X5pwcLsMNQvKhLgi4nFYDNiqQodfeHHdY/n8rPSiU4jy3CcLimrkI4tDpgjr/ESyR9iows+dIk3Bmw7vjskD9InVfXfWbbyDBacZnUKUQ9EfFgTBW8R6Y5UbkmDqpklzoK2GVgsdMNtFxp+QUH/3gqW3D2LxaUTaifLI8rsGe6Sqa2XUqZpXQy2G/+1GEzS0HDzAX5JPWPQ7/WLNwzw8fUg7UWqVikVBwWPltj2BS4OTphtNEZMRHYmMLyL4BM/k+5fdMIHHpQdpJcpvl02dUC/WXSyLkmrRd6M9kIkt2B2FhSDUi+4ln+x918pjjEfaiLJm1buWoOJdIkEYtYcJmwYfXOpG2yGjShFRbuQFoSxHfPjtP6aqUYYjbURZGv3gzoBYP4I1CmQIdT2aYu1G2yCiSqHGRWZtVIiAH7wLl/zn7kIeayzSQpQnPppR6IOa2ZJA468auvVJauDzX6RXAoK3x0HTnplqhKFIC1EOwL6ZIdFX2K1DdAbaK5IYnLFoxe3D1BDDYDhRnvxi9mjJFL5bs9y7oR9oljkqhCxepfZxNcgwGE6Ucv+BByNQb6IbdbXOhqhL7iYb02G541RubmaT8U2V0uWAhi0tyagH98RHPp0+RQ01BIYS5d7/TL3AL7vHC0Cjrl3PJiFCcFKYIIoGYlCqAZ90GOqkSvDJbgyLYjyewWazu+AqRSI4kjiKnuSRQPl9r77+pEWN0R20PsgQvPLZ7zLKpe/eioh+1So37FYpg3QEESEk1UGOqQhOL74YxhVfASflnwPFtj5QG0DCRCrAJNJwBZ3dtfSiIpCjjPkSJYhAtNDn9Lo/fW3TF2q0rjBMn85ZMe3+Wjj0IE1mkYrk6FpahbIVjHpgTMGlcP7AK6DIUYqhmpKVoSpQDu/vegtWV74BdnM+c+u7YhnYiC1mzipnVh9jGXrCHWMX7lejdYMhzXzJ8pl9qpQDL0lC2EGC5zTpWgImhCUPjM77JVx1/O2QbW08HEE5FsBhyYayouHg9YVht28jWJhm6VrgOSXQLLPkiEqR3E9e2/xPFqQjDLFRKqF8flgMFfAisCU4PKILAR1LcIkFMAk1iV10NcojFzuBlg/ZRAdMOuZSyDEX0zCXGtO1wHOuoGEbhTqhZsr8VTeNYkE6QneiLFh+y6h6wXM1ibkrIyz7YFjuGOjp6q2GxOeXCQdrodjZG4bnnQkh2cvCuy6Yu2z2S+5HFEXRtW51TUyRFLFWqXoYW57ZIGWlGyQ5AkWuEjADOQq0OpXyG9MmDKptRZ1nsbMHu6YrgzQL5dgPvjGPfHynrvNAutbmvFXXXRMUA2NpQbARs8O83miFPvvW8Jdsfol1CxRD7qz6Xz0zEVhMQ6Pj58ehUbDVjNxvFfyedIkkRiEkhCGqhJhrzRaOq2lpd9VdRpg+3SOK9z0c2Xv3i/9alKHGdBi6EeW5VQtzfUrdXAVCzAo3gCeYZixRGigLoDEqyUHIEnuAU8iGoFSJXUo93l+jSPJMUEwT26m1/LZxwTeNuQSkGhAiAvQ09YeelmMw1Aw+qYp1bkRiog390EywniCZU5omzGvUFCr73rpzlhrVYejm9Yy4ps8DPqi9UEGfnrUsFIi+YiBgiqitZAU1iOyH8cVT4LJBt8I5/S6HMb3OhSE546A+GIZD9VtBNNlavH8Ery/LGQWDCrRpEkpbPUyAPe5t8HXNGrCKTjUkHkSlSDQIZ/a4Aq4afBdM7H8xnN57EozsMRacUADfu7/Ck5AmImpFPFlnnqjk58smqTuNKKGhv7hq4t8+fv2/deyEDkAXoixZPXtwtXToTxEhZCJ1Sn06CUFnOSBoHUYQXEIuXFd2P0w6+hIoyOgJGWYnZFgyoYerFIb3PAlCIYAdnrVgRo8lWR6iSJTBjYnSyhB9W4gSlurgsv4zYXLZVMjLKAKbKQOs+Mm25UNZ4XDo6yyD7dWbwStXYN7s6lX6gUrASsEG4hgcWA/5n7+29R/8a+rQpeupjdBiaZ+VD3XzLOrR9dDIIyXDBSCAX66DXtZBcNcJj8HIEjSFmvMcVW6GmAkXDroaBjpHY4sKqBHxiMteSvlVy4oXkxd1Qs4vYPyA8zBXZgxp3LFROzfB8OLT4K6Ri6G/fSQEI3UYRldqUKu2A+Cp0eImdOwxORm1bwjqr1m47Obx/IzU0WGizFs2bbxPcF+qiDGSpCTzhMBuBnNISwDr5Vooc42CO06YD0flDFRNhmZ3YlpBAZc5G04tnYTdi5uHGwm1fskjGll6OlgFB8sbt0I00BGvxt6Z/eGWE+fBMOom0W7RKqAxZVIFt8x4StRQyYAOmgLgNtUs2fD98g6NFnaIKKu+/Iu1XqhfHBSCyGJdlFMTCJgmpRuKVsMQ15lww/H3QpGzVwM/NJO1MRSVrKXO3tiGSb13vAKSAjUopU93MIsZ2PVh3iiY/Y2/LzfGZSiw94Rpx98NI3PORyO3htkU3APSN6+UO6JrQPGe8N73b17NQ1NDh2r3w9r3rw6A70Q0TNQyxldcx6BARHLDsY7T4drhMyHf3gND1IExFGwCmjSERZQwftNX8HGgxqFpUbxfROIP2bPmnOjeRAgUuYKEybUWwpThd8LQzIkQxoZAjUInS6AJyAuKQgR8gnfRi+sfTnnZZMo5e3rF/YVBMbBIFmgQCgXAvJ2OVQy1Kq2iqbsJo+FaaDkKpg6fgUZrD5Y8U+jst/G98Fj7yioJjc/ab9E70sZWjAeNl+yp2aV+I4omvi8LVQ3nXGsBTBt2B/RBmyWEbj0P5fmnIYYO5x01HtmNZNr6oa54V83WGWpMu5EyUSqU8gfDQn0xrzD8qC2rIyAbp0HAsgw2xQrThsyGEtdRXHwsSrsPN3RjDNGOBKj074cvDr4HdlMOC0mEuNymlH3t3gJ6ONmwuvw9qAyU4/f4vDWGdiuKLXSUwjVD7wQHGuESEpvsCnpqknVH/LSUwZ9dpruRHkbDVvTOmL/0pjIe2z6kRJR5H91U5hGOXE9WdYoSTggqE42/ULECUi1cdvR0GJR/ApNoom0waOiqAXgtaZsjgYPw2pbnoDKyG0xC8nU8cal1sFZMghUOhXfD65ufZmThDmrLsuFUkGFAThlcdexMCMpeJIkCJtKE5EEyG0gfkGyCot/qNbkfVIPahZSI4hOq50fA3+hpP33Aew1aaVYLYwouh1F9J/AKVLuTODSyEei6XdVb4Pfr58AW7yqwYAvvYN23Gxlo0G7xfgxPYR52VG9SQ1sG2SxUjSN7jYVzelyLntAR/MYH5PTQ0k2AiQbBf+n85Tefr4a0Ge0mygMrbjw/LPguo2PdiYI/Evb1BZYBcMHAq8AmoNfCboF/1H69MWJEEOCrg5/B01/dAwcju9hYCsW2lLu4uJZObiMoPzbs7iqi32JepsN/yz9WQ1uDAmawwqRjL4O+1uEQQouCbDS9iU7dUEQMQD1UL1659q12ucvtIsp7n71i8Sk1i2lPE4LeXgWlF47WwS/7Xwc9yA1uBWzjRBTouvI18PzWefSkP5Ir+chpOkATgDZwQVSU4fltc+DLH1raUUtravxvnr0QJg+4DqSoH4XBxrdZuH6g+SXsEcBTttLzwa1qYJvQLqKs9a+6NQDeMuJ/ir1WiwgrPjguewKcVHqGGtIaBNhYsQ5e2j6H9UJm0kBtRFwV6FontAudBQSTBV7Y8VvYfGitGt46hpWcAiPzLoCgYsRgIRVSAUmMQL3g/e3C929rs7vc5tp+fM3M3vWCey6togL6oBWtJ0ibKJIEk/pdgd6KCwNaN+T2uHfAn7c+hPnBlikSedte23E9TVxAxyGigSuLIryy/SHYi3ltHTJYkewT+08Gq2xvR2naDlngg5gB8BUEHL42G7ZtJkp1pOrBkOBnyxuZ26WLRuGioL9BmivJnQSDC4ayMF5zzUVF3zmB6iI18Oa2P0CdXImaJIMNLLUHcZUQF9Bx0CAaabk6uRpe3/o0uCNH1JhkjQzLgPk4Om8QnJR3PkQkTyycybvjbCY5saKKEnjkqhse+PevNYG3iDbV9qOrbz/Nq9RMaSxLfewTmhLn6ShSFEb3Pg+sIrUk/GEyaSoYOpONbKKgl+56G3b6VoEdDVd98qI/qEroYzM54Dvfl/DRzneR5kQSEnuiPHN5mNDKOR09Phm7LzbRikf0X59yUnoEdByEkMVndj/GvraCNhGlOlq5MIKJaqaXXqBii4qZzfIem3kaDCwYwiOSCITuTp+dRzbB0vLXwGHuwcK7KqiCmabDj82aCcsOvQTbq8htplIkLyOhf95AKHOdChG2/JKHanF6gbIWEOsnzV9545VqUFK0SpT7l93wP2glj2cbBOvC6Bj4zWXsdjxwctFZWPGaW0s/ie4lQEDywb+++wvIJswP9repIk7oetcCQhtdpaQFdACiaK/8+7s3wM+6FG30tin46DS62aITRvWciN1PPatQVfHqDtQq1DXOfXH14y16Ai1K+vX1z+V6oGaBoq5H1T+vlGYUsk2FUNbj+Iawpv+b4pvKL+Er3zKwoDpX1xqkhLgrDagILUn6TwSwC1mwpW4ZbK34mkckQiNGHF04BHJMxWzCkdtgiWWSKvhIE9s+Y/AeaXuLyyZbJMpOz7rfRAT/0VSdLJ86g/pj1u04ToRCV7EaSkgslKDsh0/2fYR2TAaYmE2beqbirjSgfHxiTwN9kcBsdsKafR9AMKpNAjZHrIPPc/aAwTmjISwHmXbSm81avdLTnN5oxZ1PrJqRdPAqKVHmL721tE6qvjUsUo0YIEUEGWchrPwhBaegW9j6gvG9NTthi3cFEoWWOHZMaHFX61sHCUGVYhFdsM27EvbWfqeGJocFf47LH8ZWz7FHc3UGr1WqBRqxjRRUykcWsqAESEoUtIefDJuChXxPdm2UUGdGY3I0itkP3cHWocDXFWshSl4AbUPRQfLGXW1MW2gKNtqKlYIF33j4UyxD62NFvXMHgEOk555RWDobKlRk+pDmow0YvXLtVb/98LpTWWQzJCTKkhXTJ9TLtb8iN1SkwhCbDegjZUWGAksfKHA27nZiaCyWunANbKpaBxnYz/9YQV4Qfchd/qbmC/BgmQgtVX+BswSK7QNBUiItnpcKiKbsvQPY+DhZQpaAyfsoj22KhEQpl/bOCQt+LBRZ5tgGjDBQEFG0T3pnDgSnzaWGNAW/KxfPIc8BOBzaBqJAC6o7LrK4FDqeZBuAJUKtImI3ezi0HQ7WaZsO0M0TZ8BhdkCpcwDKKmhIPTDNjHliOUDChAT/2AdW3XQtj40hjij3rbh+WsQUODNZxvWEhEQpcfZDx9GGd0t0v1jo/rrd6B+hsFT6/BhBOafKoKOwSCvi+LA+L1F8uaj0NGdU6uzLjH7jy84G4aA2UnHf85891mTVVxOiLF42O8crV83h7rAhO2I0gYwsKHAUsOPEximJhmIk2OfZBSb0dvRCnMiNrgMGrqHpJREWyIQD/j2o/mMDas0bpxZaRF0zdhGcZAaC2VCYOzF4zJ7AV9PVUIYmRPGZjkxHbXIMua3a0LpR4La2BXJseWpIfE1pOQhE/XDYvw/Mgk0N+XGClZkqA7sQi2CGI/6DrGwciUjAZZJjz8fzadyIfTUQVO8yRMUI+BX3zQ//Z0aD8dhAlNfXPpFTD97rqfWaMEMG84TBLFixD9aM03iiaFrGj8L0RKqxb09oUqWEuOKlobx0EzZvg0cCEqU2dAgCER+PYuWPlwHBbnHxJxQNziPpO/7YDXOXi2rEAw2PeDRI/kBg/4lBqC+lrJKvkyzT+oEmyzIgw4othX1LBJ6HUCSALc+LudKPKHGlM7q4zUAqvl6qRqIEG0KSwWq2srEjTjHjQBqP1uySK053UszCZB7TiCjuaNVJINPrY3lQRwe0WgNlhRYk20zairwE91ODaGIsCvR4qH61SUmnmRtNQLYXLXkMRbUXbiaSNw+ziBbseuzG2yhsrS7fKpXcZjSgBz2xagabeW0gCnabI9lr2/CYbxuRKOP6grl79AIFBrpf4nuSgNibJXSsWla+huTooOXyGiMN1BE0jqEeJ4MJu9yWnijQC2y2G/sTAj1jJUE0tzbiPpa+NxAF+8pcUodM7VD96VgpSYEEaHEzGTUL7BQ2hqBjdaHwtR2UeF0lKC+7Lz8MREJ4hn5dH4HuSJXDEX9/rQ5I29Dbv4wGLy51PfQNc4aC8Ua9zNVsKLkkB43PSSOQ6qUHniJyqCEkkbAI1JpoMY+eoJVnez27ICTT2IwmpObgIqEnFvfXfa/rVhV0LzO9bt/MNUUiEmrSiFLXy/KpL1FbBhoh2Jh65x41kr7F7txSyzYE2EfLfgiG+dYUiQaTtLkQMuZsYkbDdz1gQeNwq+dT2FO7Va2RRDoUQ/B3T+1O2OymycjEI8ipgMpiE3PAZtHGhpLLP4x2DG38k0hGxoHuFWs+DUSxChnppCvLBhmp/khLOy1ywThRmC5LLqpC/WZQudBN8P+2vwyH/fvV782ARh1tSvz2jpfRG+C+YMegkQEtJCxLprUQHObWyRdEry+kaOMt6YMiy1Betee/dNxQdrsls7YlVusP6p3D4Ikk3zVKq7oMFGahrSebGNMTVtEKewMb4NmN82FTxVrwRz1kwLEPuePfVP4Xntu4AHb714LFpOeqeFovGIZCewnYzXx4IFbaeHjCbnXr0uTn6A3mlYpmyLUVMqHHGolJ3BC3g5HBELGVVgf4DGpiklIYudE26JN5DMjYT+sLBaymTCgP74KnN0+HJWvvhpc3PQF/+vopeGLdLHhy0x2wL7gdu6k87Jn10CeUBn1kkKQg9HL0Q7JqtldyGlbVVyBFKD59RCEIgtmX48zfQ8cNpXdEs1aLcvuejekoiAAV9QdQbHypZTxIPDw/fXMGYtb0zRsfBBDAChlgNrmgPLQTPj/yNqypegv2BLehoelkC6rIZaQpjQ7fndJAT4+VFInXN4d2jOQUSJY2zbsdRBmZ2MNt+pa/NVjkjM13jn5oLx03EKWPY8Amu+DazzKdJuLSZnw/+HagmteGsZuDLAeexdLsPpBrPkq1U/QSGFU+T5+Gr2kuyY4GZoaYDRY8pnWq5JZyiuhhSpIxTg9sSJBlLkaPoh8PxvSTpR6U/FBe/z0qfLsuOWgN2s5P9HSESRbe5aGNiDJt9PR6h5j5Kgjqk/RpALm9h4O7oNpfrYY0RywjuY4CODZ3JLqqAbIxVXRccGQtaEf8fvyeWsoN/3XQZjTqSZ8QluGYrJFsR0sW3nCXeLixay737wCxoYsyDqxRspFZbMSytTIX8l9To2JEITilnk9ZpQy2bVB6fHYR6hUPHPB8r35vDl5x9NcKdji+x2iIolGnNBnN/TGBKIFaSvLBicWno9ZqfUOBH+r2gkc6iJdSmY0d6iKXnUbLRcUCGUL2c/dN+t8KNaopG+6duMidBQWPmLBa9ByzSAZ6PSvZKduOrMe7qfufNQG1NPpwQpQVDIN+thMhqiQ6t+uD7BNafFVqGQqDC1t/XyQNom+v+Qq7RAe2cApJrnn0gYjaOgoZiutg/8zjnlUDGeLUxhVn3fimHTLXUyYJVEW8HRiQSezjbIILdrjXo4pVux+aQlCJoQmG/1XYxr6nlV4AAakChW600IyAAH6pEkb3Oh9y7Mk2EiBG8PLXhWpga806vsTAAJAEtWFG7tXR2lk7uCwF824+9b5KFqEijihDTaeE881F91nBQfWIKdCEnGbQ6QsSiSiYoSqyB3ZWbWNhDXM/TW5HheEFOqXXGOhlHYGusjb0/+MB5bnEMhxO7XUWlibm0cWA3+lXtYdo88CK0HYQRFriHpOBfsD0tCSpnvGfDWwfLxj7/Ms8MIaEhsicsc+scEHe3yXWaukULJQBFi4TFqo6WuK4oeJT/iYKUn9J76dAnr0Izut3JXoD2s4APx74Mc/n9L0KjVh6+i+RlqZyk/oXsYuKwLqDq1W3WDtX3zogonJjXgQJiYI+HxRZShI+25OQKIQisdc8u+LyUFImmfbUaF4onUDdD6rWTbUrYa97NwtKpr0oLxRzSq+xcGLOZAjIHX4XQNpAI6vDs86DU/qMYd+TNzwefsizF752L2fjO3QqL3mya1IFklK2sCUctFewU8p69d6x/7tSjWyCpESZfuYju5yK6zGygqMiLWjSHyQsQSZrnhbxeGHdgZV4H255J6MlCc2Gwrt40PWQLZZgy6MuiMRoEJE7DNoQOAoOIRsuGXQdOE3ZGEajN/H5ZS2cNUgFZfExak03ahfu4RnjXNAyjyimjQYs5IT7uIYkfdF2UqIQ+ivDH7NJzm38GdoWT00JjRtVhikXPq98Dw7UfUeypSKoMTEw0ary7Z3VH6449naIRn1MeSZS5J0NtmGfILF96a48Zib0z9G2eE2cU6Y1MKrcuw/WHH4XbOZslBHJQZOF3iXkHb1ZtqL88xbfOmrOVjUiDi3W/q/PvjuUZSpcRKN0fBmecVVB62F9UAUr9r6HFR9l31vDKb3GwUV9Z0B9lLwg0nrx5OpMUMV7o4dhcu/fwMl9zsKQ1vJH48MSrNn/AbiVgzTXooYbBT7ubAXn9t71gx5SAxOi1VnANX/e8M24qSefEYJAf95PGgcapt7v3QwDsk6AImeJGpoc1B765R+NBkAGbHWvVNeLGEfm9oBISwQ+r+RWuKBsClgFG+dJK279zuot8Maux8FizjTOLlRByZsVC+SZe9016+yHWtiLo439SaGpZK5FtrPpZt5dUAH0LwTNXivYJ7//7WvgjdTywBa4yRb/CA64aPAU+EXvO2nrBgyLrRvhdgt9w2rDCjKG5o1FqPomigz+yEE4v+QOuKRsGthpp4Y2kCQoeeGD795ADwQ9QQPkGwNlBj+KCBlK1tIHxz33Jg9PjjYR5Z5xT6x1mQpeJxNMs9b5Ngz6ip5sIbPJATu9q2HVnn9h6lQYiklsyNEgEcXQfikXD5oKU/o9ABHJh+ZtiBODydo4M5cZ45gDoiCXDbq1Mr1lwwu/6v8ATD5uGntvMkOCTDSX3po9y2FT3TL1Pcz655pS5HLhK+3NijXskHLv5rEto01EIRRZetxvk21VNLZCwuGVoG9hSNz0Y7Pkw7/2vQBbj2yI5TDhpBzNcvLBQJo3mXTMJXDb0N+xXYrqo1UYr0348fP0Nne1rkEjTBC1YJapCG4Z+hicd8yl2N20NpejNQSAXdWb4Z29z4HdkoNp0bILI7wc1cDGH2pkmWL+iwvO+eM3alSLaNVG0bD0lU89Y6acEI4KoXOYVsEb6e9nUIrccaRZkd012+G4opHgQuHxymh6P6on+tAVvAUKUOLqDccXngxS0AR7vevZSnKBLYpueq0e4PdUIKgEICx74Yyiy2HqsBkwMG84xrTeBlmOsOEdCRyCFzY/gt0tvWvQguF8yEB/8EZOH4eSeSQnmP+rlW+ub9MayzYThTD7N/dt/CG855IIBAp5pSVq5amDC5emDFADoMBqI+VQ5amCoUUnsZc4Mq2CgiWwVsF+2BcMxiPKDl7rsubAkOKToF/miVBX74by0GakncyWNXBhqRcx8I6D041/5x8CS5B94mkqQ0jxQgTd88GuMTBl8CyYOOCXkG3NZ7Halc2hZpERnFL0SXXwt03PwnbfGiwjjbFwqMoqYRqpgqWF3aMJ1Uqm0mPug+e8kHBwLRHanY8Hlt/yi0rY94EihFlBuZCNggBeqRImFF4D/zPsZrW/51XABubwp7Ui0C6SOyq/hk8PLoct7o8hGHVjhbjY+g6RdaPa9Wo52OQYhrH5LVT/DZqTSkqviA0z7WGHHBiWfQaMKp3ENiqkdb2tgZOES4x4TWtr/v7NS7Ds0MvgNBey8IZ8GAAqB3XGmUretgvM5xw/bty1bV6E3LKUk+CelVd+WKdUTIoJ2RhohnN95BCcW3I7XELGIXoQXLFo4zot5IG2SccWRIgoQTjk2Y+k2Qyba9bCnvpt4FO9JAE1DU280V4k2rsRqTopDi0PkNFABaSG05wLfR0jYGjeCWyZQGlOf7RD+BJF+mmtu6H0KL90Hu138o8db8J7B56BTCQJ2Q50Bh+ZNQaUQ3pCKl/ue8GDE//4gRrcJqSUqwXLbhtSJfywIST4dH9nT1Ngz8iGmBV0N6vhnJ43wsVlV4PdRLtVtyXzvAJ55cTOpueJagJH2LYTld7DUOk7BDXBSvDLHv5AGhLMZLKyt3Ll2oqgOLM3FDqL2XuVc+2FeP/YPi2cym3TbjS8RQOJIdkH/9z+V3iv/BkkXxESFbUWM8pTrJA2gkiYqeS8tWTiW79Sg9qMlPM1d8XUP1RD+a28XVMyXGT6IpY9GrP0SodgXN5UuHTYtZBlKWC35H19MjQSPTvk7Z7Q+BoKlSACUQVJKXO3n+ZYzPihB+njNEVDsjEaJgaPb3yGJ+KGt7e+Aisr/wQu1CTMxWc7b7LsGQKerAw2xRnOk0tHzD/7eb6mox1olzHbGJf/evJ6b7RuWhRCTraIiP8aBiosPVrxnW8D7K/eB31yjoZsGz1GQTHUxdD/5qq/UY7YYeJ2T6HU8ZixC7Kg7UIf2ruF1sokJEFDEMUmiG8CJB31K/h7yLcXXtn8BKyveYdpEt7LcOq2lkqqkJHs1MjoCQuHnLXk4Umv/lWNahda7lRbwG1nzD+SaSp4mASs2RJGgxR3BrrKO3xfwu/Wz4IvD67EsChKmfieclEMBVFQFqOw8fAnmOfZsM37MdjNfFF1g2tjIPj2r2hhCa7D/bKGPMVD24+UNQph4YyFG74LbD8P3eWS1gw5PcCcVCSlSbSysYt1lR+Av16Bntml2EK74raiAtSEKuD9nX+BN3c/AgEhyLY5p3EM8qqMpwlBZpspZkH+XbPHPvmpGthudDivc5ZOG+8xH1keAVqdZjyom+MKjHc59VIN9LIMgXMHTGGvvM9ovL6UTkmaqRYjEyJ2ReNrE6dDBvNX5Z/D+3vegP2hr8Fl4psaEvigQvvunRqQkkIEspXCDVf2v2XUiH5npbwqXZfczlpx5d99UHkZiSyd4IYsqlYpChHJD2XZY2F8v8nMdaX5EvUs9T8dNbYoEldwi2i4RKto+qsF8rToRdc7jmyB5XvfgW/qVoDZ5GQPlnUWzIoVcqHX+IUT/q/Ng2uJ0E5JJcbiNbMGl0d2fR0Co93l5qDuTqssgDC24rASgqFZZ8KY0nNhUOFwNHhpu1Tew2o+CiFWwe0EXsbSwUu1lAjucBXsqtwCnx78EDbVfYjdo5PNbKd0D51AknHIuX96auLfp6lBKUO3Uty3/OqH3XD4vnQZtjHwItDCKrZNN5IirNQxDdMrYwSckH8GDCs6CUqzjwKnJRPP1seWIoe6PuJjq9E2V6yDr6vWwA/+rWAxWcAs4n3YlEKKZNQBRGa7nOntYx988swzHmnLCw1bhG6lePmLJYXb/Bs3e6CymITE+WKwkGh0Vh1y5xOVXJ+RsUitiR4UC8kesIAdetoHw7E5I+Do3IFQ6uoLWfY8cNhcbNaZPLeWwEZZlCj4w3XgCdTCIe8PsMv9DXyLn4PBLRCGINjEXOZe09n8GsoLP04rUA60wl9EEzZbKnzw0bNfm6/GdAi61uS85TdeXwPlL0bFALZudJtZaCcIqxmodUlImogcYP/RVYQ8c2/o4TgKcjMKIcdWAJnmXLCZ7GAycY0jS/RmsgD4InXgDlWzkdsK/z6ojuyFoOBBajnYTgc00Zje7rYl8JyQO5whuXYPzznt5GtPvkfbV6RD0LWEClJ51rLLV/lM1WNpIU+ntKgWQcUl2tDYQhQkOYz/I2wvOdIa9OGgfJNWNLMRWhp4M2ELJe1D80JkGzFDmuaSuhQoX9j5KhboAb2vfWD8/72qRnQYujeF+StuOK1SKV8dFSMWvnq/K4G3OMoWn4SjASn+n4ViWOMsa+fGQOShToVaLU+gKzUG6n4pd9lK/uolo/56lpDBZk51ge6jZPPHv/iFA3Jep4fGWMZRniRM+t/pYHLjC3coT42JzA7Jxmn0oUA6hz7c5oqBru8KJGkiVsyzVbJFcyFvjp4kIehOFEKOped8k2I7wvcD6QoMUYF54dVLRGABDR+ey9h3/ml8RGSJhXUF0Eta6MPpQmUQ6UGz1+aMf+5zdoKOMIQoc8c+uT9LKHiGPyFP2oRapyG3+pmDbyBA1GeLpSVLVaG5WBcvpzkMq73jMoY9bgHHNjZxSk1QX03YDQTpEROzmagbNUGBqfiZWeOe1F4rpisMI8pVo6cHkN0P0wNGzHDsSl3QTwbovWEDjKBoHUrm9iGmk9r0+vxUYGh/MG/cs2+45KyPsDyc/t3QHeTCWxQrFFpLHr503M18G3ADYLjhkCnkzzKDPcQNwW626AuUKco1E/JW3Dvm6dfVQENgOFHmTXh2c65Y+Cb6Gfitq/gLPxWgAYsOcaG95AE1wDAYThRCb0u/+TbFxTZp43qlmzCpQ9PKtCBbgBwx/8W7Rz/2mRpoGNJClJtOv3+/Q8l+mM3/sHLSbbu9oPaDFiLxIzJi7YqzItOfO4+HGIu0EIUwwXLuM1bFtZEPepHfT7futlnaC7bduiiDGRudVcmcO/v836dlM7u0EeWscZdHXELuPVaFXoatobsLag/4mhtsXLJITyp+dV6fS/6sRhmOtBGFsGjCiyvs4HrH6Hcq/1TB9+ZX2JvDHHL+PWMHXZS2nZnTShRCgal4rkPOxAJqU/rdaCt4Ry2CS3G9s2jis8vZ1zQh7US598zfbbfLGU8JivFv3fypgbSJRXHU58iFc9SgtCHtRCEMcB73uAMtdjJqu9F20KiJXXY8PufsZ3aqQWlDpxDlxtFzq3LEgnvpUQJOlW7vJxFiUuGeolPJ3jvYOeIZNTCt6BSiEO4/64VXs6DgBf5kLNIFDdxuujQFH0agIwk1iTPUQ+xz43WjZyd7uZGh6DSiEM4rufD2LOj5rghoryBXujuipmBNRxHBLGeGbNHMybPOenyZGpV2dCpRzii7LDy536+vyJbyf08LgtP/TFDXBWkTmh+jd+f0sPT55ZJz3/iPGtUp6DLafu5H117mhZpHw6K/P1+1xbukn0t3RE2EysqbikwvfgST5Hi9WOgz875JTzR5d05noEvVw2P/nJnpd7nn1il10wLgKZLZXraUSVrjisRhq6F/YlqnWXEs9MYc2fZ5NhQ+Om/iH99XgzsdXbLBPv/Jorzv/VsvUSzShXJUGRERA6Uhwce3AlXP+SmASkN7wFlku18QxJ2iInziEgvenX/W86sF2t+jC6HLy/21Vb/PPmTeXbarbmNGKOyRTWzl+U8DEnKhd9ZxYomt//7bXQt2C8d3G2nd+FED4P8DACKGNdr1A1wAAAAASUVORK5CYII=;" parent="3PrFZPDsfoUqDwBEQ-ub-1" vertex="1">
          <mxGeometry x="498" y="318.15999999999997" width="24.91" height="22.2" as="geometry" />
        </mxCell>
        <mxCell id="OBmhxJP84bgnXMby7c-Y-0" value="" style="sketch=0;html=1;dashed=0;whitespace=wrap;fillColor=#2875E2;strokeColor=#ffffff;points=[[0.005,0.63,0],[0.1,0.2,0],[0.9,0.2,0],[0.5,0,0],[0.995,0.63,0],[0.72,0.99,0],[0.5,1,0],[0.28,0.99,0]];verticalLabelPosition=bottom;align=center;verticalAlign=top;shape=mxgraph.kubernetes.icon;prIcon=cronjob" vertex="1" parent="3PrFZPDsfoUqDwBEQ-ub-1">
          <mxGeometry x="466.88" y="307.93999999999994" width="33.05" height="30" as="geometry" />
        </mxCell>
        <mxCell id="76A-MhQWAJ-8z7elBmuN-0" value="" style="endArrow=classic;html=1;rounded=0;" edge="1" parent="3PrFZPDsfoUqDwBEQ-ub-1" source="tIqQvR4jQwkFoqSZPl2D-18" target="3PrFZPDsfoUqDwBEQ-ub-32">
          <mxGeometry width="50" height="50" relative="1" as="geometry">
            <mxPoint x="322" y="285" as="sourcePoint" />
            <mxPoint x="322" y="381" as="targetPoint" />
          </mxGeometry>
        </mxCell>
        <mxCell id="76A-MhQWAJ-8z7elBmuN-1" value="Lancamento-processador" style="rounded=1;whiteSpace=wrap;html=1;verticalAlign=bottom;" vertex="1" parent="3PrFZPDsfoUqDwBEQ-ub-1">
          <mxGeometry x="353.26" y="276.59000000000003" width="83.91" height="40" as="geometry" />
        </mxCell>
        <mxCell id="76A-MhQWAJ-8z7elBmuN-2" value="" style="shape=image;verticalLabelPosition=bottom;labelBackgroundColor=default;verticalAlign=top;aspect=fixed;imageAspect=0;image=data:image/png,iVBORw0KGgoAAAANSUhEUgAAAIoAAAB7CAYAAACrSRjYAAAAAXNSR0IArs4c6QAAAARnQU1BAACxjwv8YQUAAAAJcEhZcwAADsMAAA7DAcdvqGQAACkcSURBVHhe7X0JYBRF1v/rnjMzk/sgJBwCKhA5RPECBRQQddUVj9VPUfBYb10BEWVBEfAAr139Vt3Pc9djD//qrrq7IpfgBbKggJyKXAZIyDGZmczd3f/3qrozSWYmx6R7EjW/ZJKequ7qqle/evVeVXW1AF0cL698MrvaeuC4XbVf2UORWsUEIihq3I8dUfz0yT5OLLH223ebMO974XSrzGO6HrokUZ5dMzd/j//7S2Rb9EI5Kh8viaHSIPgAFAkzLPxkiKIIAljADhY5wy8Kwk5RET/NVvLenTfxjx8LgtClitmliPL427OyfLk1c91K7bSQ4itUBAlJoTBy/JQIEg+tZAKYFSSOYvsiW8h9dP6EF99TIzodXYYov11x7WUe2b04KtT3kwUZTBhGJCGa/FxATUFBzpCmMcs2sCqON/KVohlzJ/2hUj2l09DptbBh+3vWt37462MesfZOSQizMAVpIgB2M6yh/XyIwqlCf6nMEjvCbml3rlx0/YJJL62mMzoLnVoLK3e+a11W/s7fPMrhi6JMd5ChillCjSJQ0/oZQkZtQpUiYvlRCigLCcniCDvD2ZMXn/fGv/lZ6Yeo/u8ULN33jz945KqLIiLa/ygg0iWkSUhIP1dQ2UVFRkngD1OpIkSEgDVk9r2zeM30ifys9KPTiLJw5Y3T/ELFDZIQQQViQQ0SU24/X5pwcLsMNQvKhLgi4nFYDNiqQodfeHHdY/n8rPSiU4jy3CcLimrkI4tDpgjr/ESyR9iows+dIk3Bmw7vjskD9InVfXfWbbyDBacZnUKUQ9EfFgTBW8R6Y5UbkmDqpklzoK2GVgsdMNtFxp+QUH/3gqW3D2LxaUTaifLI8rsGe6Sqa2XUqZpXQy2G/+1GEzS0HDzAX5JPWPQ7/WLNwzw8fUg7UWqVikVBwWPltj2BS4OTphtNEZMRHYmMLyL4BM/k+5fdMIHHpQdpJcpvl02dUC/WXSyLkmrRd6M9kIkt2B2FhSDUi+4ln+x918pjjEfaiLJm1buWoOJdIkEYtYcJmwYfXOpG2yGjShFRbuQFoSxHfPjtP6aqUYYjbURZGv3gzoBYP4I1CmQIdT2aYu1G2yCiSqHGRWZtVIiAH7wLl/zn7kIeayzSQpQnPppR6IOa2ZJA468auvVJauDzX6RXAoK3x0HTnplqhKFIC1EOwL6ZIdFX2K1DdAbaK5IYnLFoxe3D1BDDYDhRnvxi9mjJFL5bs9y7oR9oljkqhCxepfZxNcgwGE6Ucv+BByNQb6IbdbXOhqhL7iYb02G541RubmaT8U2V0uWAhi0tyagH98RHPp0+RQ01BIYS5d7/TL3AL7vHC0Cjrl3PJiFCcFKYIIoGYlCqAZ90GOqkSvDJbgyLYjyewWazu+AqRSI4kjiKnuSRQPl9r77+pEWN0R20PsgQvPLZ7zLKpe/eioh+1So37FYpg3QEESEk1UGOqQhOL74YxhVfASflnwPFtj5QG0DCRCrAJNJwBZ3dtfSiIpCjjPkSJYhAtNDn9Lo/fW3TF2q0rjBMn85ZMe3+Wjj0IE1mkYrk6FpahbIVjHpgTMGlcP7AK6DIUYqhmpKVoSpQDu/vegtWV74BdnM+c+u7YhnYiC1mzipnVh9jGXrCHWMX7lejdYMhzXzJ8pl9qpQDL0lC2EGC5zTpWgImhCUPjM77JVx1/O2QbW08HEE5FsBhyYayouHg9YVht28jWJhm6VrgOSXQLLPkiEqR3E9e2/xPFqQjDLFRKqF8flgMFfAisCU4PKILAR1LcIkFMAk1iV10NcojFzuBlg/ZRAdMOuZSyDEX0zCXGtO1wHOuoGEbhTqhZsr8VTeNYkE6QneiLFh+y6h6wXM1ibkrIyz7YFjuGOjp6q2GxOeXCQdrodjZG4bnnQkh2cvCuy6Yu2z2S+5HFEXRtW51TUyRFLFWqXoYW57ZIGWlGyQ5AkWuEjADOQq0OpXyG9MmDKptRZ1nsbMHu6YrgzQL5dgPvjGPfHynrvNAutbmvFXXXRMUA2NpQbARs8O83miFPvvW8Jdsfol1CxRD7qz6Xz0zEVhMQ6Pj58ehUbDVjNxvFfyedIkkRiEkhCGqhJhrzRaOq2lpd9VdRpg+3SOK9z0c2Xv3i/9alKHGdBi6EeW5VQtzfUrdXAVCzAo3gCeYZixRGigLoDEqyUHIEnuAU8iGoFSJXUo93l+jSPJMUEwT26m1/LZxwTeNuQSkGhAiAvQ09YeelmMw1Aw+qYp1bkRiog390EywniCZU5omzGvUFCr73rpzlhrVYejm9Yy4ps8DPqi9UEGfnrUsFIi+YiBgiqitZAU1iOyH8cVT4LJBt8I5/S6HMb3OhSE546A+GIZD9VtBNNlavH8Ery/LGQWDCrRpEkpbPUyAPe5t8HXNGrCKTjUkHkSlSDQIZ/a4Aq4afBdM7H8xnN57EozsMRacUADfu7/Ck5AmImpFPFlnnqjk58smqTuNKKGhv7hq4t8+fv2/deyEDkAXoixZPXtwtXToTxEhZCJ1Sn06CUFnOSBoHUYQXEIuXFd2P0w6+hIoyOgJGWYnZFgyoYerFIb3PAlCIYAdnrVgRo8lWR6iSJTBjYnSyhB9W4gSlurgsv4zYXLZVMjLKAKbKQOs+Mm25UNZ4XDo6yyD7dWbwStXYN7s6lX6gUrASsEG4hgcWA/5n7+29R/8a+rQpeupjdBiaZ+VD3XzLOrR9dDIIyXDBSCAX66DXtZBcNcJj8HIEjSFmvMcVW6GmAkXDroaBjpHY4sKqBHxiMteSvlVy4oXkxd1Qs4vYPyA8zBXZgxp3LFROzfB8OLT4K6Ri6G/fSQEI3UYRldqUKu2A+Cp0eImdOwxORm1bwjqr1m47Obx/IzU0WGizFs2bbxPcF+qiDGSpCTzhMBuBnNISwDr5Vooc42CO06YD0flDFRNhmZ3YlpBAZc5G04tnYTdi5uHGwm1fskjGll6OlgFB8sbt0I00BGvxt6Z/eGWE+fBMOom0W7RKqAxZVIFt8x4StRQyYAOmgLgNtUs2fD98g6NFnaIKKu+/Iu1XqhfHBSCyGJdlFMTCJgmpRuKVsMQ15lww/H3QpGzVwM/NJO1MRSVrKXO3tiGSb13vAKSAjUopU93MIsZ2PVh3iiY/Y2/LzfGZSiw94Rpx98NI3PORyO3htkU3APSN6+UO6JrQPGe8N73b17NQ1NDh2r3w9r3rw6A70Q0TNQyxldcx6BARHLDsY7T4drhMyHf3gND1IExFGwCmjSERZQwftNX8HGgxqFpUbxfROIP2bPmnOjeRAgUuYKEybUWwpThd8LQzIkQxoZAjUInS6AJyAuKQgR8gnfRi+sfTnnZZMo5e3rF/YVBMbBIFmgQCgXAvJ2OVQy1Kq2iqbsJo+FaaDkKpg6fgUZrD5Y8U+jst/G98Fj7yioJjc/ab9E70sZWjAeNl+yp2aV+I4omvi8LVQ3nXGsBTBt2B/RBmyWEbj0P5fmnIYYO5x01HtmNZNr6oa54V83WGWpMu5EyUSqU8gfDQn0xrzD8qC2rIyAbp0HAsgw2xQrThsyGEtdRXHwsSrsPN3RjDNGOBKj074cvDr4HdlMOC0mEuNymlH3t3gJ6ONmwuvw9qAyU4/f4vDWGdiuKLXSUwjVD7wQHGuESEpvsCnpqknVH/LSUwZ9dpruRHkbDVvTOmL/0pjIe2z6kRJR5H91U5hGOXE9WdYoSTggqE42/ULECUi1cdvR0GJR/ApNoom0waOiqAXgtaZsjgYPw2pbnoDKyG0xC8nU8cal1sFZMghUOhXfD65ufZmThDmrLsuFUkGFAThlcdexMCMpeJIkCJtKE5EEyG0gfkGyCot/qNbkfVIPahZSI4hOq50fA3+hpP33Aew1aaVYLYwouh1F9J/AKVLuTODSyEei6XdVb4Pfr58AW7yqwYAvvYN23Gxlo0G7xfgxPYR52VG9SQ1sG2SxUjSN7jYVzelyLntAR/MYH5PTQ0k2AiQbBf+n85Tefr4a0Ge0mygMrbjw/LPguo2PdiYI/Evb1BZYBcMHAq8AmoNfCboF/1H69MWJEEOCrg5/B01/dAwcju9hYCsW2lLu4uJZObiMoPzbs7iqi32JepsN/yz9WQ1uDAmawwqRjL4O+1uEQQouCbDS9iU7dUEQMQD1UL1659q12ucvtIsp7n71i8Sk1i2lPE4LeXgWlF47WwS/7Xwc9yA1uBWzjRBTouvI18PzWefSkP5Ir+chpOkATgDZwQVSU4fltc+DLH1raUUtravxvnr0QJg+4DqSoH4XBxrdZuH6g+SXsEcBTttLzwa1qYJvQLqKs9a+6NQDeMuJ/ir1WiwgrPjguewKcVHqGGtIaBNhYsQ5e2j6H9UJm0kBtRFwV6FontAudBQSTBV7Y8VvYfGitGt46hpWcAiPzLoCgYsRgIRVSAUmMQL3g/e3C929rs7vc5tp+fM3M3vWCey6togL6oBWtJ0ibKJIEk/pdgd6KCwNaN+T2uHfAn7c+hPnBlikSedte23E9TVxAxyGigSuLIryy/SHYi3ltHTJYkewT+08Gq2xvR2naDlngg5gB8BUEHL42G7ZtJkp1pOrBkOBnyxuZ26WLRuGioL9BmivJnQSDC4ayMF5zzUVF3zmB6iI18Oa2P0CdXImaJIMNLLUHcZUQF9Bx0CAaabk6uRpe3/o0uCNH1JhkjQzLgPk4Om8QnJR3PkQkTyycybvjbCY5saKKEnjkqhse+PevNYG3iDbV9qOrbz/Nq9RMaSxLfewTmhLn6ShSFEb3Pg+sIrUk/GEyaSoYOpONbKKgl+56G3b6VoEdDVd98qI/qEroYzM54Dvfl/DRzneR5kQSEnuiPHN5mNDKOR09Phm7LzbRikf0X59yUnoEdByEkMVndj/GvraCNhGlOlq5MIKJaqaXXqBii4qZzfIem3kaDCwYwiOSCITuTp+dRzbB0vLXwGHuwcK7KqiCmabDj82aCcsOvQTbq8htplIkLyOhf95AKHOdChG2/JKHanF6gbIWEOsnzV9545VqUFK0SpT7l93wP2glj2cbBOvC6Bj4zWXsdjxwctFZWPGaW0s/ie4lQEDywb+++wvIJswP9repIk7oetcCQhtdpaQFdACiaK/8+7s3wM+6FG30tin46DS62aITRvWciN1PPatQVfHqDtQq1DXOfXH14y16Ai1K+vX1z+V6oGaBoq5H1T+vlGYUsk2FUNbj+Iawpv+b4pvKL+Er3zKwoDpX1xqkhLgrDagILUn6TwSwC1mwpW4ZbK34mkckQiNGHF04BHJMxWzCkdtgiWWSKvhIE9s+Y/AeaXuLyyZbJMpOz7rfRAT/0VSdLJ86g/pj1u04ToRCV7EaSkgslKDsh0/2fYR2TAaYmE2beqbirjSgfHxiTwN9kcBsdsKafR9AMKpNAjZHrIPPc/aAwTmjISwHmXbSm81avdLTnN5oxZ1PrJqRdPAqKVHmL721tE6qvjUsUo0YIEUEGWchrPwhBaegW9j6gvG9NTthi3cFEoWWOHZMaHFX61sHCUGVYhFdsM27EvbWfqeGJocFf47LH8ZWz7FHc3UGr1WqBRqxjRRUykcWsqAESEoUtIefDJuChXxPdm2UUGdGY3I0itkP3cHWocDXFWshSl4AbUPRQfLGXW1MW2gKNtqKlYIF33j4UyxD62NFvXMHgEOk555RWDobKlRk+pDmow0YvXLtVb/98LpTWWQzJCTKkhXTJ9TLtb8iN1SkwhCbDegjZUWGAksfKHA27nZiaCyWunANbKpaBxnYz/9YQV4Qfchd/qbmC/BgmQgtVX+BswSK7QNBUiItnpcKiKbsvQPY+DhZQpaAyfsoj22KhEQpl/bOCQt+LBRZ5tgGjDBQEFG0T3pnDgSnzaWGNAW/KxfPIc8BOBzaBqJAC6o7LrK4FDqeZBuAJUKtImI3ezi0HQ7WaZsO0M0TZ8BhdkCpcwDKKmhIPTDNjHliOUDChAT/2AdW3XQtj40hjij3rbh+WsQUODNZxvWEhEQpcfZDx9GGd0t0v1jo/rrd6B+hsFT6/BhBOafKoKOwSCvi+LA+L1F8uaj0NGdU6uzLjH7jy84G4aA2UnHf85891mTVVxOiLF42O8crV83h7rAhO2I0gYwsKHAUsOPEximJhmIk2OfZBSb0dvRCnMiNrgMGrqHpJREWyIQD/j2o/mMDas0bpxZaRF0zdhGcZAaC2VCYOzF4zJ7AV9PVUIYmRPGZjkxHbXIMua3a0LpR4La2BXJseWpIfE1pOQhE/XDYvw/Mgk0N+XGClZkqA7sQi2CGI/6DrGwciUjAZZJjz8fzadyIfTUQVO8yRMUI+BX3zQ//Z0aD8dhAlNfXPpFTD97rqfWaMEMG84TBLFixD9aM03iiaFrGj8L0RKqxb09oUqWEuOKlobx0EzZvg0cCEqU2dAgCER+PYuWPlwHBbnHxJxQNziPpO/7YDXOXi2rEAw2PeDRI/kBg/4lBqC+lrJKvkyzT+oEmyzIgw4othX1LBJ6HUCSALc+LudKPKHGlM7q4zUAqvl6qRqIEG0KSwWq2srEjTjHjQBqP1uySK053UszCZB7TiCjuaNVJINPrY3lQRwe0WgNlhRYk20zairwE91ODaGIsCvR4qH61SUmnmRtNQLYXLXkMRbUXbiaSNw+ziBbseuzG2yhsrS7fKpXcZjSgBz2xagabeW0gCnabI9lr2/CYbxuRKOP6grl79AIFBrpf4nuSgNibJXSsWla+huTooOXyGiMN1BE0jqEeJ4MJu9yWnijQC2y2G/sTAj1jJUE0tzbiPpa+NxAF+8pcUodM7VD96VgpSYEEaHEzGTUL7BQ2hqBjdaHwtR2UeF0lKC+7Lz8MREJ4hn5dH4HuSJXDEX9/rQ5I29Dbv4wGLy51PfQNc4aC8Ua9zNVsKLkkB43PSSOQ6qUHniJyqCEkkbAI1JpoMY+eoJVnez27ICTT2IwmpObgIqEnFvfXfa/rVhV0LzO9bt/MNUUiEmrSiFLXy/KpL1FbBhoh2Jh65x41kr7F7txSyzYE2EfLfgiG+dYUiQaTtLkQMuZsYkbDdz1gQeNwq+dT2FO7Va2RRDoUQ/B3T+1O2OymycjEI8ipgMpiE3PAZtHGhpLLP4x2DG38k0hGxoHuFWs+DUSxChnppCvLBhmp/khLOy1ywThRmC5LLqpC/WZQudBN8P+2vwyH/fvV782ARh1tSvz2jpfRG+C+YMegkQEtJCxLprUQHObWyRdEry+kaOMt6YMiy1Betee/dNxQdrsls7YlVusP6p3D4Ikk3zVKq7oMFGahrSebGNMTVtEKewMb4NmN82FTxVrwRz1kwLEPuePfVP4Xntu4AHb714LFpOeqeFovGIZCewnYzXx4IFbaeHjCbnXr0uTn6A3mlYpmyLUVMqHHGolJ3BC3g5HBELGVVgf4DGpiklIYudE26JN5DMjYT+sLBaymTCgP74KnN0+HJWvvhpc3PQF/+vopeGLdLHhy0x2wL7gdu6k87Jn10CeUBn1kkKQg9HL0Q7JqtldyGlbVVyBFKD59RCEIgtmX48zfQ8cNpXdEs1aLcvuejekoiAAV9QdQbHypZTxIPDw/fXMGYtb0zRsfBBDAChlgNrmgPLQTPj/yNqypegv2BLehoelkC6rIZaQpjQ7fndJAT4+VFInXN4d2jOQUSJY2zbsdRBmZ2MNt+pa/NVjkjM13jn5oLx03EKWPY8Amu+DazzKdJuLSZnw/+HagmteGsZuDLAeexdLsPpBrPkq1U/QSGFU+T5+Gr2kuyY4GZoaYDRY8pnWq5JZyiuhhSpIxTg9sSJBlLkaPoh8PxvSTpR6U/FBe/z0qfLsuOWgN2s5P9HSESRbe5aGNiDJt9PR6h5j5Kgjqk/RpALm9h4O7oNpfrYY0RywjuY4CODZ3JLqqAbIxVXRccGQtaEf8fvyeWsoN/3XQZjTqSZ8QluGYrJFsR0sW3nCXeLixay737wCxoYsyDqxRspFZbMSytTIX8l9To2JEITilnk9ZpQy2bVB6fHYR6hUPHPB8r35vDl5x9NcKdji+x2iIolGnNBnN/TGBKIFaSvLBicWno9ZqfUOBH+r2gkc6iJdSmY0d6iKXnUbLRcUCGUL2c/dN+t8KNaopG+6duMidBQWPmLBa9ByzSAZ6PSvZKduOrMe7qfufNQG1NPpwQpQVDIN+thMhqiQ6t+uD7BNafFVqGQqDC1t/XyQNom+v+Qq7RAe2cApJrnn0gYjaOgoZiutg/8zjnlUDGeLUxhVn3fimHTLXUyYJVEW8HRiQSezjbIILdrjXo4pVux+aQlCJoQmG/1XYxr6nlV4AAakChW600IyAAH6pEkb3Oh9y7Mk2EiBG8PLXhWpga806vsTAAJAEtWFG7tXR2lk7uCwF824+9b5KFqEijihDTaeE881F91nBQfWIKdCEnGbQ6QsSiSiYoSqyB3ZWbWNhDXM/TW5HheEFOqXXGOhlHYGusjb0/+MB5bnEMhxO7XUWlibm0cWA3+lXtYdo88CK0HYQRFriHpOBfsD0tCSpnvGfDWwfLxj7/Ms8MIaEhsicsc+scEHe3yXWaukULJQBFi4TFqo6WuK4oeJT/iYKUn9J76dAnr0Izut3JXoD2s4APx74Mc/n9L0KjVh6+i+RlqZyk/oXsYuKwLqDq1W3WDtX3zogonJjXgQJiYI+HxRZShI+25OQKIQisdc8u+LyUFImmfbUaF4onUDdD6rWTbUrYa97NwtKpr0oLxRzSq+xcGLOZAjIHX4XQNpAI6vDs86DU/qMYd+TNzwefsizF752L2fjO3QqL3mya1IFklK2sCUctFewU8p69d6x/7tSjWyCpESZfuYju5yK6zGygqMiLWjSHyQsQSZrnhbxeGHdgZV4H255J6MlCc2Gwrt40PWQLZZgy6MuiMRoEJE7DNoQOAoOIRsuGXQdOE3ZGEajN/H5ZS2cNUgFZfExak03ahfu4RnjXNAyjyimjQYs5IT7uIYkfdF2UqIQ+ivDH7NJzm38GdoWT00JjRtVhikXPq98Dw7UfUeypSKoMTEw0ary7Z3VH6449naIRn1MeSZS5J0NtmGfILF96a48Zib0z9G2eE2cU6Y1MKrcuw/WHH4XbOZslBHJQZOF3iXkHb1ZtqL88xbfOmrOVjUiDi3W/q/PvjuUZSpcRKN0fBmecVVB62F9UAUr9r6HFR9l31vDKb3GwUV9Z0B9lLwg0nrx5OpMUMV7o4dhcu/fwMl9zsKQ1vJH48MSrNn/AbiVgzTXooYbBT7ubAXn9t71gx5SAxOi1VnANX/e8M24qSefEYJAf95PGgcapt7v3QwDsk6AImeJGpoc1B765R+NBkAGbHWvVNeLGEfm9oBISwQ+r+RWuKBsClgFG+dJK279zuot8Maux8FizjTOLlRByZsVC+SZe9016+yHWtiLo439SaGpZK5FtrPpZt5dUAH0LwTNXivYJ7//7WvgjdTywBa4yRb/CA64aPAU+EXvO2nrBgyLrRvhdgt9w2rDCjKG5o1FqPomigz+yEE4v+QOuKRsGthpp4Y2kCQoeeGD795ADwQ9QQPkGwNlBj+KCBlK1tIHxz33Jg9PjjYR5Z5xT6x1mQpeJxNMs9b5Ngz6ip5sIbPJATu9q2HVnn9h6lQYiklsyNEgEcXQfikXD5oKU/o9ABHJh+ZtiBODydo4M5cZ45gDoiCXDbq1Mr1lwwu/6v8ATD5uGntvMkOCTDSX3po9y2FT3TL1Pcz655pS5HLhK+3NijXskHLv5rEto01EIRRZetxvk21VNLZCwuGVoG9hSNz0Y7Pkw7/2vQBbj2yI5TDhpBzNcvLBQJo3mXTMJXDb0N+xXYrqo1UYr0348fP0Nne1rkEjTBC1YJapCG4Z+hicd8yl2N20NpejNQSAXdWb4Z29z4HdkoNp0bILI7wc1cDGH2pkmWL+iwvO+eM3alSLaNVG0bD0lU89Y6acEI4KoXOYVsEb6e9nUIrccaRZkd012+G4opHgQuHxymh6P6on+tAVvAUKUOLqDccXngxS0AR7vevZSnKBLYpueq0e4PdUIKgEICx74Yyiy2HqsBkwMG84xrTeBlmOsOEdCRyCFzY/gt0tvWvQguF8yEB/8EZOH4eSeSQnmP+rlW+ub9MayzYThTD7N/dt/CG855IIBAp5pSVq5amDC5emDFADoMBqI+VQ5amCoUUnsZc4Mq2CgiWwVsF+2BcMxiPKDl7rsubAkOKToF/miVBX74by0GakncyWNXBhqRcx8I6D041/5x8CS5B94mkqQ0jxQgTd88GuMTBl8CyYOOCXkG3NZ7Halc2hZpERnFL0SXXwt03PwnbfGiwjjbFwqMoqYRqpgqWF3aMJ1Uqm0mPug+e8kHBwLRHanY8Hlt/yi0rY94EihFlBuZCNggBeqRImFF4D/zPsZrW/51XABubwp7Ui0C6SOyq/hk8PLoct7o8hGHVjhbjY+g6RdaPa9Wo52OQYhrH5LVT/DZqTSkqviA0z7WGHHBiWfQaMKp3ENiqkdb2tgZOES4x4TWtr/v7NS7Ds0MvgNBey8IZ8GAAqB3XGmUretgvM5xw/bty1bV6E3LKUk+CelVd+WKdUTIoJ2RhohnN95BCcW3I7XELGIXoQXLFo4zot5IG2SccWRIgoQTjk2Y+k2Qyba9bCnvpt4FO9JAE1DU280V4k2rsRqTopDi0PkNFABaSG05wLfR0jYGjeCWyZQGlOf7RD+BJF+mmtu6H0KL90Hu138o8db8J7B56BTCQJ2Q50Bh+ZNQaUQ3pCKl/ue8GDE//4gRrcJqSUqwXLbhtSJfywIST4dH9nT1Ngz8iGmBV0N6vhnJ43wsVlV4PdRLtVtyXzvAJ55cTOpueJagJH2LYTld7DUOk7BDXBSvDLHv5AGhLMZLKyt3Ll2oqgOLM3FDqL2XuVc+2FeP/YPi2cym3TbjS8RQOJIdkH/9z+V3iv/BkkXxESFbUWM8pTrJA2gkiYqeS8tWTiW79Sg9qMlPM1d8XUP1RD+a28XVMyXGT6IpY9GrP0SodgXN5UuHTYtZBlKWC35H19MjQSPTvk7Z7Q+BoKlSACUQVJKXO3n+ZYzPihB+njNEVDsjEaJgaPb3yGJ+KGt7e+Aisr/wQu1CTMxWc7b7LsGQKerAw2xRnOk0tHzD/7eb6mox1olzHbGJf/evJ6b7RuWhRCTraIiP8aBiosPVrxnW8D7K/eB31yjoZsGz1GQTHUxdD/5qq/UY7YYeJ2T6HU8ZixC7Kg7UIf2ruF1sokJEFDEMUmiG8CJB31K/h7yLcXXtn8BKyveYdpEt7LcOq2lkqqkJHs1MjoCQuHnLXk4Umv/lWNahda7lRbwG1nzD+SaSp4mASs2RJGgxR3BrrKO3xfwu/Wz4IvD67EsChKmfieclEMBVFQFqOw8fAnmOfZsM37MdjNfFF1g2tjIPj2r2hhCa7D/bKGPMVD24+UNQph4YyFG74LbD8P3eWS1gw5PcCcVCSlSbSysYt1lR+Av16Bntml2EK74raiAtSEKuD9nX+BN3c/AgEhyLY5p3EM8qqMpwlBZpspZkH+XbPHPvmpGthudDivc5ZOG+8xH1keAVqdZjyom+MKjHc59VIN9LIMgXMHTGGvvM9ovL6UTkmaqRYjEyJ2ReNrE6dDBvNX5Z/D+3vegP2hr8Fl4psaEvigQvvunRqQkkIEspXCDVf2v2XUiH5npbwqXZfczlpx5d99UHkZiSyd4IYsqlYpChHJD2XZY2F8v8nMdaX5EvUs9T8dNbYoEldwi2i4RKto+qsF8rToRdc7jmyB5XvfgW/qVoDZ5GQPlnUWzIoVcqHX+IUT/q/Ng2uJ0E5JJcbiNbMGl0d2fR0Co93l5qDuTqssgDC24rASgqFZZ8KY0nNhUOFwNHhpu1Tew2o+CiFWwe0EXsbSwUu1lAjucBXsqtwCnx78EDbVfYjdo5PNbKd0D51AknHIuX96auLfp6lBKUO3Uty3/OqH3XD4vnQZtjHwItDCKrZNN5IirNQxDdMrYwSckH8GDCs6CUqzjwKnJRPP1seWIoe6PuJjq9E2V6yDr6vWwA/+rWAxWcAs4n3YlEKKZNQBRGa7nOntYx988swzHmnLCw1bhG6lePmLJYXb/Bs3e6CymITE+WKwkGh0Vh1y5xOVXJ+RsUitiR4UC8kesIAdetoHw7E5I+Do3IFQ6uoLWfY8cNhcbNaZPLeWwEZZlCj4w3XgCdTCIe8PsMv9DXyLn4PBLRCGINjEXOZe09n8GsoLP04rUA60wl9EEzZbKnzw0bNfm6/GdAi61uS85TdeXwPlL0bFALZudJtZaCcIqxmodUlImogcYP/RVYQ8c2/o4TgKcjMKIcdWAJnmXLCZ7GAycY0jS/RmsgD4InXgDlWzkdsK/z6ojuyFoOBBajnYTgc00Zje7rYl8JyQO5whuXYPzznt5GtPvkfbV6RD0LWEClJ51rLLV/lM1WNpIU+ntKgWQcUl2tDYQhQkOYz/I2wvOdIa9OGgfJNWNLMRWhp4M2ELJe1D80JkGzFDmuaSuhQoX9j5KhboAb2vfWD8/72qRnQYujeF+StuOK1SKV8dFSMWvnq/K4G3OMoWn4SjASn+n4ViWOMsa+fGQOShToVaLU+gKzUG6n4pd9lK/uolo/56lpDBZk51ge6jZPPHv/iFA3Jep4fGWMZRniRM+t/pYHLjC3coT42JzA7Jxmn0oUA6hz7c5oqBru8KJGkiVsyzVbJFcyFvjp4kIehOFEKOped8k2I7wvcD6QoMUYF54dVLRGABDR+ey9h3/ml8RGSJhXUF0Eta6MPpQmUQ6UGz1+aMf+5zdoKOMIQoc8c+uT9LKHiGPyFP2oRapyG3+pmDbyBA1GeLpSVLVaG5WBcvpzkMq73jMoY9bgHHNjZxSk1QX03YDQTpEROzmagbNUGBqfiZWeOe1F4rpisMI8pVo6cHkN0P0wNGzHDsSl3QTwbovWEDjKBoHUrm9iGmk9r0+vxUYGh/MG/cs2+45KyPsDyc/t3QHeTCWxQrFFpLHr503M18G3ADYLjhkCnkzzKDPcQNwW626AuUKco1E/JW3Dvm6dfVQENgOFHmTXh2c65Y+Cb6Gfitq/gLPxWgAYsOcaG95AE1wDAYThRCb0u/+TbFxTZp43qlmzCpQ9PKtCBbgBwx/8W7Rz/2mRpoGNJClJtOv3+/Q8l+mM3/sHLSbbu9oPaDFiLxIzJi7YqzItOfO4+HGIu0EIUwwXLuM1bFtZEPepHfT7futlnaC7bduiiDGRudVcmcO/v836dlM7u0EeWscZdHXELuPVaFXoatobsLag/4mhtsXLJITyp+dV6fS/6sRhmOtBGFsGjCiyvs4HrH6Hcq/1TB9+ZX2JvDHHL+PWMHXZS2nZnTShRCgal4rkPOxAJqU/rdaCt4Ry2CS3G9s2jis8vZ1zQh7US598zfbbfLGU8JivFv3fypgbSJRXHU58iFc9SgtCHtRCEMcB73uAMtdjJqu9F20KiJXXY8PufsZ3aqQWlDpxDlxtFzq3LEgnvpUQJOlW7vJxFiUuGeolPJ3jvYOeIZNTCt6BSiEO4/64VXs6DgBf5kLNIFDdxuujQFH0agIwk1iTPUQ+xz43WjZyd7uZGh6DSiEM4rufD2LOj5rghoryBXujuipmBNRxHBLGeGbNHMybPOenyZGpV2dCpRzii7LDy536+vyJbyf08LgtP/TFDXBWkTmh+jd+f0sPT55ZJz3/iPGtUp6DLafu5H117mhZpHw6K/P1+1xbukn0t3RE2EysqbikwvfgST5Hi9WOgz875JTzR5d05noEvVw2P/nJnpd7nn1il10wLgKZLZXraUSVrjisRhq6F/YlqnWXEs9MYc2fZ5NhQ+Om/iH99XgzsdXbLBPv/Jorzv/VsvUSzShXJUGRERA6Uhwce3AlXP+SmASkN7wFlku18QxJ2iInziEgvenX/W86sF2t+jC6HLy/21Vb/PPmTeXbarbmNGKOyRTWzl+U8DEnKhd9ZxYomt//7bXQt2C8d3G2nd+FED4P8DACKGNdr1A1wAAAAASUVORK5CYII=;" vertex="1" parent="3PrFZPDsfoUqDwBEQ-ub-1">
          <mxGeometry x="416.26" y="265.09000000000003" width="24.91" height="22.2" as="geometry" />
        </mxCell>
        <mxCell id="76A-MhQWAJ-8z7elBmuN-3" value="" style="sketch=0;html=1;dashed=0;whitespace=wrap;fillColor=#2875E2;strokeColor=#ffffff;points=[[0.005,0.63,0],[0.1,0.2,0],[0.9,0.2,0],[0.5,0,0],[0.995,0.63,0],[0.72,0.99,0],[0.5,1,0],[0.28,0.99,0]];verticalLabelPosition=bottom;align=center;verticalAlign=top;shape=mxgraph.kubernetes.icon;prIcon=api" vertex="1" parent="3PrFZPDsfoUqDwBEQ-ub-1">
          <mxGeometry x="382.68999999999994" y="257.28999999999996" width="33.05" height="30" as="geometry" />
        </mxCell>
        <mxCell id="76A-MhQWAJ-8z7elBmuN-4" value="" style="endArrow=classic;html=1;rounded=0;" edge="1" parent="3PrFZPDsfoUqDwBEQ-ub-1" source="76A-MhQWAJ-8z7elBmuN-1" target="3PrFZPDsfoUqDwBEQ-ub-32">
          <mxGeometry width="50" height="50" relative="1" as="geometry">
            <mxPoint x="440" y="367" as="sourcePoint" />
            <mxPoint x="349" y="398" as="targetPoint" />
          </mxGeometry>
        </mxCell>
      </root>
    </mxGraphModel>
  </diagram>
  <diagram id="aR_86HVcAZjqbDr1_Hgp" name="lancamentos">
    <mxGraphModel dx="880" dy="524" grid="1" gridSize="10" guides="1" tooltips="1" connect="1" arrows="1" fold="1" page="1" pageScale="1" pageWidth="827" pageHeight="1169" math="0" shadow="0">
      <root>
        <mxCell id="0" />
        <mxCell id="1" parent="0" />
        <mxCell id="fqJi_lBx_MHF7-rJuPAz-1" value="" style="rounded=0;whiteSpace=wrap;html=1;fillColor=#cce5ff;strokeColor=#36393d;align=left;verticalAlign=top;" vertex="1" parent="1">
          <mxGeometry x="218" y="130" width="452" height="190" as="geometry" />
        </mxCell>
        <mxCell id="PSnkwW-FvarVJmxssFdN-1" value="model.Lancamento" style="shape=ext;double=1;rounded=0;whiteSpace=wrap;html=1;" vertex="1" parent="1">
          <mxGeometry x="230" y="250" width="210" height="50" as="geometry" />
        </mxCell>
        <mxCell id="PSnkwW-FvarVJmxssFdN-2" value="service.LancamentoService" style="shape=ext;double=1;rounded=0;whiteSpace=wrap;html=1;" vertex="1" parent="1">
          <mxGeometry x="230" y="200" width="210" height="50" as="geometry" />
        </mxCell>
        <mxCell id="PSnkwW-FvarVJmxssFdN-4" value="controller.LancamentoController" style="shape=ext;double=1;rounded=0;whiteSpace=wrap;html=1;" vertex="1" parent="1">
          <mxGeometry x="230" y="150" width="210" height="50" as="geometry" />
        </mxCell>
        <mxCell id="3at-yJXoL2xV23CnVJIH-2" value="" style="edgeStyle=orthogonalEdgeStyle;rounded=0;orthogonalLoop=1;jettySize=auto;html=1;" edge="1" parent="1" source="PSnkwW-FvarVJmxssFdN-5" target="3at-yJXoL2xV23CnVJIH-1">
          <mxGeometry relative="1" as="geometry" />
        </mxCell>
        <mxCell id="PSnkwW-FvarVJmxssFdN-5" value="LancamentoRepository (JPA)" style="shape=ext;double=1;rounded=0;whiteSpace=wrap;html=1;" vertex="1" parent="1">
          <mxGeometry x="529.95" y="200" width="130" height="50" as="geometry" />
        </mxCell>
        <mxCell id="PSnkwW-FvarVJmxssFdN-7" value="injetado" style="endArrow=classic;html=1;rounded=0;entryX=0.905;entryY=0.4;entryDx=0;entryDy=0;entryPerimeter=0;" edge="1" parent="1">
          <mxGeometry width="50" height="50" relative="1" as="geometry">
            <mxPoint x="529.95" y="220" as="sourcePoint" />
            <mxPoint x="439.99999999999994" y="220" as="targetPoint" />
          </mxGeometry>
        </mxCell>
        <mxCell id="3at-yJXoL2xV23CnVJIH-1" value="" style="image;aspect=fixed;html=1;points=[];align=center;fontSize=12;image=img/lib/azure2/databases/Azure_Database_PostgreSQL_Server.svg;" vertex="1" parent="1">
          <mxGeometry x="578.87" y="270" width="32.17" height="42.9" as="geometry" />
        </mxCell>
      </root>
    </mxGraphModel>
  </diagram>
  <diagram name="consolidado" id="kCFpNZg52dvyvcxc8P87">
    <mxGraphModel dx="880" dy="524" grid="1" gridSize="10" guides="1" tooltips="1" connect="1" arrows="1" fold="1" page="1" pageScale="1" pageWidth="827" pageHeight="1169" math="0" shadow="0">
      <root>
        <mxCell id="S_sgb-0x0mmM_hASnnnV-0" />
        <mxCell id="S_sgb-0x0mmM_hASnnnV-1" parent="S_sgb-0x0mmM_hASnnnV-0" />
        <mxCell id="S_sgb-0x0mmM_hASnnnV-2" value="" style="rounded=0;whiteSpace=wrap;html=1;fillColor=#cce5ff;strokeColor=#36393d;align=left;verticalAlign=top;" parent="S_sgb-0x0mmM_hASnnnV-1" vertex="1">
          <mxGeometry x="218" y="130" width="452" height="190" as="geometry" />
        </mxCell>
        <mxCell id="S_sgb-0x0mmM_hASnnnV-3" value="model.Consolidado" style="shape=ext;double=1;rounded=0;whiteSpace=wrap;html=1;" parent="S_sgb-0x0mmM_hASnnnV-1" vertex="1">
          <mxGeometry x="230" y="250" width="210" height="50" as="geometry" />
        </mxCell>
        <mxCell id="S_sgb-0x0mmM_hASnnnV-4" value="service.ConsolidadoService" style="shape=ext;double=1;rounded=0;whiteSpace=wrap;html=1;" parent="S_sgb-0x0mmM_hASnnnV-1" vertex="1">
          <mxGeometry x="230" y="200" width="210" height="50" as="geometry" />
        </mxCell>
        <mxCell id="S_sgb-0x0mmM_hASnnnV-5" value="controller.ConsolidadoController" style="shape=ext;double=1;rounded=0;whiteSpace=wrap;html=1;" parent="S_sgb-0x0mmM_hASnnnV-1" vertex="1">
          <mxGeometry x="230" y="150" width="210" height="50" as="geometry" />
        </mxCell>
        <mxCell id="S_sgb-0x0mmM_hASnnnV-6" value="" style="edgeStyle=orthogonalEdgeStyle;rounded=0;orthogonalLoop=1;jettySize=auto;html=1;" parent="S_sgb-0x0mmM_hASnnnV-1" source="S_sgb-0x0mmM_hASnnnV-7" target="S_sgb-0x0mmM_hASnnnV-9" edge="1">
          <mxGeometry relative="1" as="geometry" />
        </mxCell>
        <mxCell id="S_sgb-0x0mmM_hASnnnV-7" value="ConsolidadoRepository (JPA)" style="shape=ext;double=1;rounded=0;whiteSpace=wrap;html=1;" parent="S_sgb-0x0mmM_hASnnnV-1" vertex="1">
          <mxGeometry x="529.95" y="200" width="130" height="50" as="geometry" />
        </mxCell>
        <mxCell id="S_sgb-0x0mmM_hASnnnV-8" value="injetado" style="endArrow=classic;html=1;rounded=0;entryX=0.905;entryY=0.4;entryDx=0;entryDy=0;entryPerimeter=0;" parent="S_sgb-0x0mmM_hASnnnV-1" edge="1">
          <mxGeometry width="50" height="50" relative="1" as="geometry">
            <mxPoint x="529.95" y="220" as="sourcePoint" />
            <mxPoint x="439.99999999999994" y="220" as="targetPoint" />
          </mxGeometry>
        </mxCell>
        <mxCell id="S_sgb-0x0mmM_hASnnnV-9" value="" style="image;aspect=fixed;html=1;points=[];align=center;fontSize=12;image=img/lib/azure2/databases/Azure_Database_PostgreSQL_Server.svg;" parent="S_sgb-0x0mmM_hASnnnV-1" vertex="1">
          <mxGeometry x="578.87" y="270" width="32.17" height="42.9" as="geometry" />
        </mxCell>
      </root>
    </mxGraphModel>
  </diagram>
  <diagram name="lancamento-processador" id="o79OBswKyEXwPu8wTbGO">
    <mxGraphModel dx="880" dy="524" grid="1" gridSize="10" guides="1" tooltips="1" connect="1" arrows="1" fold="1" page="1" pageScale="1" pageWidth="827" pageHeight="1169" math="0" shadow="0">
      <root>
        <mxCell id="pYw6eVj78OGQYq_07MtF-0" />
        <mxCell id="pYw6eVj78OGQYq_07MtF-1" parent="pYw6eVj78OGQYq_07MtF-0" />
        <mxCell id="pYw6eVj78OGQYq_07MtF-2" value="" style="rounded=0;whiteSpace=wrap;html=1;fillColor=#cce5ff;strokeColor=#36393d;align=left;verticalAlign=top;" vertex="1" parent="pYw6eVj78OGQYq_07MtF-1">
          <mxGeometry x="218" y="130" width="452" height="190" as="geometry" />
        </mxCell>
        <mxCell id="pYw6eVj78OGQYq_07MtF-3" value="model.Lancamento" style="shape=ext;double=1;rounded=0;whiteSpace=wrap;html=1;" vertex="1" parent="pYw6eVj78OGQYq_07MtF-1">
          <mxGeometry x="230" y="250" width="230" height="50" as="geometry" />
        </mxCell>
        <mxCell id="pYw6eVj78OGQYq_07MtF-4" value="(kafka listener)&lt;br&gt;service.LancamentoProcessadorService" style="shape=ext;double=1;rounded=0;whiteSpace=wrap;html=1;" vertex="1" parent="pYw6eVj78OGQYq_07MtF-1">
          <mxGeometry x="230" y="200" width="230" height="50" as="geometry" />
        </mxCell>
        <mxCell id="pYw6eVj78OGQYq_07MtF-6" value="" style="edgeStyle=orthogonalEdgeStyle;rounded=0;orthogonalLoop=1;jettySize=auto;html=1;" edge="1" parent="pYw6eVj78OGQYq_07MtF-1" source="pYw6eVj78OGQYq_07MtF-7" target="pYw6eVj78OGQYq_07MtF-9">
          <mxGeometry relative="1" as="geometry" />
        </mxCell>
        <mxCell id="pYw6eVj78OGQYq_07MtF-7" value="LancamentoRepository (JPA)" style="shape=ext;double=1;rounded=0;whiteSpace=wrap;html=1;" vertex="1" parent="pYw6eVj78OGQYq_07MtF-1">
          <mxGeometry x="529.95" y="200" width="130" height="50" as="geometry" />
        </mxCell>
        <mxCell id="pYw6eVj78OGQYq_07MtF-8" value="injetado" style="endArrow=classic;html=1;rounded=0;" edge="1" parent="pYw6eVj78OGQYq_07MtF-1">
          <mxGeometry width="50" height="50" relative="1" as="geometry">
            <mxPoint x="529.95" y="220" as="sourcePoint" />
            <mxPoint x="460" y="220" as="targetPoint" />
          </mxGeometry>
        </mxCell>
        <mxCell id="pYw6eVj78OGQYq_07MtF-9" value="" style="image;aspect=fixed;html=1;points=[];align=center;fontSize=12;image=img/lib/azure2/databases/Azure_Database_PostgreSQL_Server.svg;" vertex="1" parent="pYw6eVj78OGQYq_07MtF-1">
          <mxGeometry x="578.87" y="270" width="32.17" height="42.9" as="geometry" />
        </mxCell>
      </root>
    </mxGraphModel>
  </diagram>
  <diagram name="consolidador" id="6FQlvcAOr8frYR60HHuc">
    <mxGraphModel dx="880" dy="524" grid="1" gridSize="10" guides="1" tooltips="1" connect="1" arrows="1" fold="1" page="1" pageScale="1" pageWidth="827" pageHeight="1169" math="0" shadow="0">
      <root>
        <mxCell id="rvNrq3B3bEohniqTUc59-0" />
        <mxCell id="rvNrq3B3bEohniqTUc59-1" parent="rvNrq3B3bEohniqTUc59-0" />
        <mxCell id="rvNrq3B3bEohniqTUc59-2" value="" style="rounded=0;whiteSpace=wrap;html=1;fillColor=#cce5ff;strokeColor=#36393d;align=left;verticalAlign=top;" parent="rvNrq3B3bEohniqTUc59-1" vertex="1">
          <mxGeometry x="20" y="130" width="680" height="190" as="geometry" />
        </mxCell>
        <mxCell id="rvNrq3B3bEohniqTUc59-3" value="model.Consolidado&amp;nbsp; modelLancamento" style="shape=ext;double=1;rounded=0;whiteSpace=wrap;html=1;" parent="rvNrq3B3bEohniqTUc59-1" vertex="1">
          <mxGeometry x="40" y="250" width="180" height="50" as="geometry" />
        </mxCell>
        <mxCell id="rvNrq3B3bEohniqTUc59-4" value="service.ConsolidadorService" style="shape=ext;double=1;rounded=0;whiteSpace=wrap;html=1;" parent="rvNrq3B3bEohniqTUc59-1" vertex="1">
          <mxGeometry x="40" y="200" width="180" height="50" as="geometry" />
        </mxCell>
        <mxCell id="rvNrq3B3bEohniqTUc59-5" value="ConsolidadorCommandRunner" style="shape=ext;double=1;rounded=0;whiteSpace=wrap;html=1;" parent="rvNrq3B3bEohniqTUc59-1" vertex="1">
          <mxGeometry x="40" y="150" width="180" height="50" as="geometry" />
        </mxCell>
        <mxCell id="rvNrq3B3bEohniqTUc59-6" value="" style="edgeStyle=orthogonalEdgeStyle;rounded=0;orthogonalLoop=1;jettySize=auto;html=1;" parent="rvNrq3B3bEohniqTUc59-1" source="rvNrq3B3bEohniqTUc59-7" target="rvNrq3B3bEohniqTUc59-9" edge="1">
          <mxGeometry relative="1" as="geometry" />
        </mxCell>
        <mxCell id="rvNrq3B3bEohniqTUc59-7" value="ConsolidadoRepository (JPA)" style="shape=ext;double=1;rounded=0;whiteSpace=wrap;html=1;" parent="rvNrq3B3bEohniqTUc59-1" vertex="1">
          <mxGeometry x="481.04" y="200" width="130" height="50" as="geometry" />
        </mxCell>
        <mxCell id="rvNrq3B3bEohniqTUc59-8" value="injetado" style="endArrow=classic;html=1;rounded=0;" parent="rvNrq3B3bEohniqTUc59-1" source="rvNrq3B3bEohniqTUc59-7" target="bRa1LgITid0776S838gR-0" edge="1">
          <mxGeometry width="50" height="50" relative="1" as="geometry">
            <mxPoint x="529.95" y="220" as="sourcePoint" />
            <mxPoint x="439.99999999999994" y="220" as="targetPoint" />
          </mxGeometry>
        </mxCell>
        <mxCell id="rvNrq3B3bEohniqTUc59-9" value="" style="image;aspect=fixed;html=1;points=[];align=center;fontSize=12;image=img/lib/azure2/databases/Azure_Database_PostgreSQL_Server.svg;" parent="rvNrq3B3bEohniqTUc59-1" vertex="1">
          <mxGeometry x="650" y="203.55" width="32.17" height="42.9" as="geometry" />
        </mxCell>
        <mxCell id="bRa1LgITid0776S838gR-1" value="injetado" style="edgeStyle=orthogonalEdgeStyle;rounded=0;orthogonalLoop=1;jettySize=auto;html=1;" parent="rvNrq3B3bEohniqTUc59-1" source="bRa1LgITid0776S838gR-0" target="rvNrq3B3bEohniqTUc59-4" edge="1">
          <mxGeometry relative="1" as="geometry" />
        </mxCell>
        <mxCell id="bRa1LgITid0776S838gR-0" value="ConsolidadoService&lt;br&gt;LancamentoService" style="shape=ext;double=1;rounded=0;whiteSpace=wrap;html=1;" parent="rvNrq3B3bEohniqTUc59-1" vertex="1">
          <mxGeometry x="284.00000000000006" y="200" width="130" height="50" as="geometry" />
        </mxCell>
        <mxCell id="bRa1LgITid0776S838gR-4" value="" style="edgeStyle=orthogonalEdgeStyle;rounded=0;orthogonalLoop=1;jettySize=auto;html=1;" parent="rvNrq3B3bEohniqTUc59-1" source="bRa1LgITid0776S838gR-2" target="bRa1LgITid0776S838gR-3" edge="1">
          <mxGeometry relative="1" as="geometry" />
        </mxCell>
        <mxCell id="bRa1LgITid0776S838gR-5" value="Injetado" style="edgeStyle=orthogonalEdgeStyle;rounded=0;orthogonalLoop=1;jettySize=auto;html=1;" parent="rvNrq3B3bEohniqTUc59-1" source="bRa1LgITid0776S838gR-2" target="bRa1LgITid0776S838gR-0" edge="1">
          <mxGeometry relative="1" as="geometry" />
        </mxCell>
        <mxCell id="bRa1LgITid0776S838gR-2" value="LancamentoRepository (JPA)" style="shape=ext;double=1;rounded=0;whiteSpace=wrap;html=1;" parent="rvNrq3B3bEohniqTUc59-1" vertex="1">
          <mxGeometry x="481.04" y="140" width="130" height="50" as="geometry" />
        </mxCell>
        <mxCell id="bRa1LgITid0776S838gR-3" value="" style="image;aspect=fixed;html=1;points=[];align=center;fontSize=12;image=img/lib/azure2/databases/Azure_Database_PostgreSQL_Server.svg;" parent="rvNrq3B3bEohniqTUc59-1" vertex="1">
          <mxGeometry x="650" y="143" width="32.17" height="42.9" as="geometry" />
        </mxCell>
      </root>
    </mxGraphModel>
  </diagram>
</mxfile>
